<svg preserveAspectRatio="none" width="100%" height="100%" overflow="visible" style="display: block;" viewBox="0 0 13.6 15.9999" fill="none" xmlns="http://www.w3.org/2000/svg">
<g id="icons">
<path id="apple-[#173]" fill-rule="evenodd" clip-rule="evenodd" d="M9.25671 2.5543C9.83997 1.8783 10.2331 0.936784 10.1255 0C9.28502 0.032 8.26816 0.536917 7.66549 1.21211C7.1243 1.8113 6.65187 2.76872 6.77888 3.68711C7.71646 3.7567 8.67345 3.23108 9.25671 2.5543ZM11.3592 8.5C11.3826 10.9216 13.5757 11.7271 13.6 11.7375C13.5822 11.7943 13.2497 12.8853 12.4448 14.0133C11.7483 14.9877 11.0259 15.9581 9.88769 15.9789C8.76972 15.9989 8.40973 15.3438 7.13077 15.3438C5.85262 15.3438 5.45299 15.958 4.39488 15.9988C3.29631 16.038 2.45904 14.9446 1.75768 13.9734C0.322588 11.9871 -0.773548 8.36007 0.698754 5.91211C1.43005 4.69693 2.73651 3.92623 4.15543 3.90703C5.23377 3.88703 6.25224 4.60234 6.91154 4.60234C7.57084 4.60234 8.80855 3.74235 10.1093 3.86875C10.6538 3.89035 12.1827 4.07908 13.164 5.45586C13.0847 5.50306 11.3398 6.47603 11.3592 8.5Z" fill="var(--fill-0, white)"/>
</g>
</svg>
