<svg preserveAspectRatio="none" width="100%" height="100%" overflow="visible" style="display: block;" viewBox="0 0 12 12" fill="none" xmlns="http://www.w3.org/2000/svg">
<g id="CaretDown">
<path id="Vector" d="M10.148 4.89797L6.39797 8.64797C6.34571 8.70041 6.28361 8.74202 6.21524 8.77041C6.14687 8.7988 6.07356 8.81341 5.99953 8.81341C5.9255 8.81341 5.85219 8.7988 5.78382 8.77041C5.71545 8.74202 5.65335 8.70041 5.60109 8.64797L1.85109 4.89797C1.74542 4.7923 1.68606 4.64897 1.68606 4.49953C1.68606 4.35009 1.74542 4.20677 1.85109 4.10109C1.95677 3.99542 2.10009 3.93606 2.24953 3.93606C2.39897 3.93606 2.5423 3.99542 2.64797 4.10109L6 7.45312L9.35203 4.10063C9.4577 3.99495 9.60103 3.93559 9.75047 3.93559C9.89991 3.93559 10.0432 3.99495 10.1489 4.10063C10.2546 4.2063 10.3139 4.34962 10.3139 4.49906C10.3139 4.64851 10.2546 4.79183 10.1489 4.8975L10.148 4.89797Z" fill="var(--fill-0, white)"/>
</g>
</svg>
