<svg preserveAspectRatio="none" width="100%" height="100%" overflow="visible" style="display: block;" viewBox="0 0 16 16" fill="none" xmlns="http://www.w3.org/2000/svg">
<g id="flag-for-flag-nigeria-svgrepo-com 1">
<path id="Vector" d="M1.77778 2.22222C1.30628 2.22222 0.854097 2.40952 0.520699 2.74292C0.187301 3.07632 3.05176e-07 3.5285 3.05176e-07 4L3.05176e-07 12C3.05176e-07 12.4715 0.187301 12.9237 0.520699 13.2571C0.854097 13.5905 1.30628 13.7778 1.77778 13.7778H5.33333V2.22222H1.77778Z" fill="var(--fill-0, #009A49)"/>
<path id="Vector_2" d="M5.33333 2.22222H10.6667V13.7778H5.33333V2.22222Z" fill="var(--fill-0, #EEEEEE)"/>
<path id="Vector_3" d="M14.2222 2.22222H10.6667V13.7778H14.2222C14.6937 13.7778 15.1459 13.5905 15.4793 13.2571C15.8127 12.9237 16 12.4715 16 12V4C16 3.5285 15.8127 3.07632 15.4793 2.74292C15.1459 2.40952 14.6937 2.22222 14.2222 2.22222Z" fill="var(--fill-0, #009A49)"/>
</g>
</svg>
