<svg preserveAspectRatio="none" width="100%" height="100%" overflow="visible" style="display: block;" viewBox="0 0 600 480" fill="none" xmlns="http://www.w3.org/2000/svg">
<g id="136487623_5dc0d426-f604-4155-9fda-cccfb6fbdb86 1">
<path id="Vector" d="M299.963 111.651C167.431 111.651 59.9927 165.652 59.9927 232.266C59.9927 274.248 102.668 311.221 167.403 332.823C205.384 345.498 250.958 352.881 299.963 352.881C348.969 352.881 394.543 345.498 432.523 332.823C497.259 311.221 539.934 274.248 539.934 232.266C539.934 165.652 432.495 111.651 299.963 111.651Z" fill="var(--fill-0, #5D3595)"/>
<path id="Vector_2" d="M299.963 119.624C176.192 119.624 75.8555 170.055 75.8555 232.266C75.8555 294.476 176.192 344.908 299.963 344.908C423.734 344.908 524.071 294.476 524.071 232.266C524.071 170.055 423.734 119.624 299.963 119.624Z" fill="var(--fill-0, #2C0662)"/>
<path id="Vector_3" d="M324.73 190.336C323.326 188.831 321.833 187.417 320.343 186C319.325 185.031 318.289 183.943 317.815 182.592C317.464 181.592 317.457 180.481 317.351 179.423C317.186 177.777 316.902 176.096 316.384 174.521C314.47 168.701 308.923 166.857 303.504 165.577C300.93 164.969 298.304 164.409 295.946 163.165C293.104 161.665 291.81 159.118 290.272 156.423C288.529 153.369 286.714 150.344 284.202 147.85C283.015 146.671 281.663 145.666 280.212 144.83C278.182 144.388 276.247 144.161 274.56 144.233C269.693 144.441 265.168 146.655 260.459 147.902C254.288 149.537 247.679 149.489 241.532 147.765C237.627 146.671 233.931 144.923 230.035 143.798C220.232 140.967 209.358 142 203.149 150.879C202.318 152.068 201.569 153.382 200.35 154.17C197.834 155.796 194.523 154.559 191.533 154.755C188.16 154.977 185.012 157.281 183.783 160.428C183.088 162.208 182.98 164.154 182.561 166.018C181.248 171.853 175.541 172.716 170.341 172.23C167.216 171.939 164.058 171.34 160.965 171.875C156.884 172.582 153.257 175.396 151.48 179.131C151.577 180.357 151.768 181.578 151.727 182.806C151.672 184.516 150.877 186.04 149.746 187.294C147.791 189.46 145.18 191.016 143.051 193.009C140.995 194.935 138.944 197.498 139.292 200.502C139.62 203.326 141.607 205.547 144.302 206.314C147.164 207.128 150.337 206.58 153.208 206.101C155.986 205.638 158.95 204.857 161.785 205.121C164.854 205.406 167.165 208.133 169.352 210.042C171.946 212.307 174.905 214.135 178.487 213.777C181.626 213.463 184.461 211.944 186.967 210.108C192.13 206.324 196.847 201.113 203.887 202.475C206.708 203.021 208.939 204.556 210.263 207.124C211.609 209.734 212.17 212.699 213.033 215.485C213.55 217.152 214.162 218.76 214.999 220.296C215.772 221.714 216.782 223.314 218.303 224.028C220.864 225.232 223.019 223.151 224.425 221.219C226.229 218.742 227.595 215.38 230.331 213.773C233.236 212.068 236.808 213.085 239.977 212.909C243.826 212.695 246.645 210.521 248.455 207.19C250.296 203.802 250.806 199.73 253.166 196.617C257.842 190.448 267.436 189.638 273.567 194.003C277.778 197.001 279.72 201.922 283.521 205.281C285.297 206.851 287.502 207.679 289.879 207.532C293.526 207.306 296.377 205.109 299.58 203.646C300.578 203.191 301.515 202.817 302.547 203.223C303.953 203.776 305.231 204.786 306.528 205.544C310.59 207.916 314.892 208.765 319.387 207.02C322.944 205.64 327.63 202.845 328.484 198.785C329.177 195.484 326.824 192.581 324.73 190.336Z" fill="var(--fill-0, #A13321)"/>
<path id="Vector_4" d="M445.47 261.906C444.199 260.962 443.106 259.87 442.178 258.679L403.347 259.945C406.912 263.824 408.924 269.084 408.695 274.322C408.689 274.452 408.681 274.582 408.673 274.711L408.672 274.74L408.666 274.812C408.663 274.864 408.658 274.915 408.654 274.967C408.651 275.016 408.647 275.065 408.643 275.113C408.641 275.141 408.639 275.169 408.637 275.196L408.634 275.221L408.597 275.592L408.587 275.684C408.572 275.813 408.556 275.941 408.539 276.069L408.539 276.073L408.484 276.447L408.469 276.542C408.428 276.795 408.383 277.046 408.333 277.294L408.315 277.379L408.235 277.75L408.23 277.77L408.146 278.122L408.125 278.204C408.063 278.451 407.995 278.695 407.924 278.938L407.902 279.012C407.829 279.255 407.751 279.495 407.67 279.733L407.644 279.808L407.517 280.163L407.511 280.178L407.381 280.52L407.356 280.585L407.213 280.938L407.207 280.952L407.064 281.284L407.034 281.353L406.877 281.7L406.876 281.702L406.712 282.047L406.686 282.099L406.513 282.446L406.511 282.45L406.336 282.783L406.307 282.837L406.121 283.175L406.114 283.188L405.928 283.512L405.901 283.559C405.769 283.784 405.633 284.006 405.494 284.227L405.469 284.267C405.328 284.489 405.184 284.709 405.035 284.927L405.01 284.964C404.86 285.184 404.706 285.402 404.548 285.619L404.53 285.644C404.369 285.864 404.205 286.081 404.038 286.297L404.028 286.31C403.857 286.529 403.683 286.747 403.505 286.962L403.503 286.965C403.423 287.062 403.342 287.159 403.26 287.255C403.231 287.29 403.2 287.325 403.17 287.361C403.117 287.423 403.063 287.485 403.009 287.548C402.978 287.583 402.947 287.619 402.915 287.655C402.86 287.719 402.804 287.782 402.748 287.845C402.718 287.878 402.688 287.911 402.658 287.945C402.597 288.013 402.535 288.081 402.474 288.149C402.449 288.176 402.425 288.203 402.4 288.23C402.314 288.323 402.227 288.416 402.14 288.509C402.14 288.51 402.139 288.51 402.139 288.51C402.046 288.61 401.951 288.709 401.856 288.808C401.851 288.813 401.847 288.817 401.842 288.822C401.756 288.911 401.67 288.999 401.584 289.087C401.563 289.108 401.543 289.128 401.522 289.149C401.45 289.222 401.378 289.295 401.305 289.367C401.282 289.39 401.259 289.413 401.236 289.436C401.16 289.511 401.085 289.585 401.008 289.659C400.99 289.677 400.971 289.695 400.953 289.713C400.662 289.995 400.366 290.272 400.066 290.546C400.055 290.556 400.044 290.565 400.034 290.575C399.941 290.659 399.848 290.743 399.755 290.826C399.747 290.834 399.738 290.841 399.73 290.849C399.631 290.937 399.532 291.025 399.432 291.112C399.43 291.114 399.427 291.117 399.425 291.119C395.224 294.799 390.208 297.803 385.732 300.402C384.605 301.056 383.47 301.7 382.329 302.332C417.174 294.167 444.25 280.982 457.828 265.149C453.598 265.682 449.164 264.648 445.47 261.906Z" fill="var(--fill-0, #36363D)"/>
<path id="Vector_5" d="M492.656 199.663C487.247 191.904 476.571 189.997 468.81 195.405C467.511 196.31 466.386 197.368 465.422 198.53L426.647 196.092C425.72 197.042 424.697 197.901 423.59 198.647C423.155 198.94 422.707 199.218 422.252 199.489C421.615 199.867 420.966 200.23 420.321 200.597C419.825 200.88 419.332 201.166 418.851 201.463C418.527 201.663 418.208 201.868 417.897 202.081C417.725 202.199 417.555 202.32 417.388 202.443C417.221 202.567 417.057 202.693 416.896 202.823C416.714 202.969 416.537 203.12 416.364 203.276C416.306 203.328 416.25 203.38 416.193 203.433C416.042 203.575 415.895 203.72 415.752 203.87C415.609 204.02 415.47 204.175 415.337 204.335C415.088 204.63 414.862 204.937 414.652 205.253C414.442 205.57 414.251 205.895 414.073 206.229L413.901 206.566C413.565 207.243 413.284 207.951 413.031 208.675L412.969 208.856C412.639 209.825 412.358 210.822 412.066 211.817L412.012 212.003L411.901 212.376C411.827 212.624 411.751 212.871 411.673 213.118L411.64 213.222L437.918 222.931C437.26 224.058 436.749 225.233 436.371 226.433L388.865 242.368C388.928 242.59 388.99 242.812 389.05 243.035L389.15 243.411L389.199 243.598C389.315 244.037 389.427 244.476 389.541 244.914L389.591 245.101C390.01 246.692 390.471 248.258 391.212 249.681L391.306 249.858C391.451 250.124 391.605 250.385 391.772 250.64C391.853 250.763 391.936 250.885 392.023 251.006C392.109 251.127 392.198 251.246 392.291 251.363C392.557 251.701 392.844 252.018 393.147 252.318C393.299 252.468 393.454 252.614 393.614 252.756C393.72 252.85 393.828 252.943 393.937 253.035C393.992 253.08 394.047 253.126 394.102 253.17C394.213 253.26 394.325 253.349 394.438 253.436C394.552 253.523 394.666 253.609 394.782 253.694C394.873 253.76 394.966 253.826 395.058 253.892C395.097 253.919 395.136 253.946 395.174 253.973C395.225 254.008 395.276 254.043 395.327 254.079C395.456 254.167 395.586 254.254 395.717 254.341L396.083 254.579C396.26 254.693 396.439 254.805 396.619 254.917C396.798 255.029 396.979 255.14 397.16 255.251C398.245 255.914 399.346 256.564 400.369 257.299C401.453 258.078 402.449 258.968 403.347 259.945L442.178 258.68C443.106 259.87 444.199 260.962 445.47 261.906C449.164 264.649 453.598 265.683 457.829 265.149C462.296 264.584 466.536 262.27 469.433 258.371C472.894 253.713 473.634 247.877 471.936 242.759C475.946 243.518 480.24 242.856 484.003 240.573C490.893 236.394 493.781 228.133 491.453 220.779C496.56 214.995 497.263 206.273 492.656 199.663Z" fill="var(--fill-0, #FEE5CD)"/>
<path id="Vector_6" d="M167.403 332.823C195.571 353.562 244.42 368.189 299.963 368.189C355.507 368.189 404.355 353.562 432.523 332.823C394.543 345.498 348.969 352.881 299.963 352.881C250.958 352.881 205.384 345.498 167.403 332.823Z" fill="var(--fill-0, #3C3B41)"/>
<path id="Vector_7" d="M417.742 160.056C415.237 158.265 412.676 156.622 410.263 155.122C397.472 147.17 383.709 140.642 369.196 136.376C359.517 133.531 349.443 131.716 339.355 131.135C331.246 130.667 323.132 131.017 315.203 132.247C312.881 133.835 310.721 135.671 308.788 137.796C305.901 140.97 303.552 144.758 303.155 149.122C302.744 153.647 304.578 157.949 307.688 161.195C308.004 161.524 308.329 161.832 308.662 162.122C311.216 162.459 313.914 162.594 316.262 163.503C318.272 164.282 319.953 165.637 321.263 167.326C325.086 168.274 328.871 169.311 331.979 171.795C337.888 176.519 339.301 184.798 342.736 191.167C347.443 199.891 356.326 204.835 365.891 206.519C374.753 208.079 383.931 207.352 392.237 203.806C400.256 200.382 407.8 194.582 413.04 187.595C417.674 181.415 420.073 173.859 419.111 166.135C418.851 164.049 418.38 162.023 417.742 160.056Z" fill="var(--fill-0, #F49A4B)"/>
<path id="Vector_8" d="M323.562 151.481C324.161 151.993 324.812 152.449 325.482 152.856C330.189 155.72 335.97 156.526 340.504 159.656C346.738 163.96 349.724 171.712 353.803 177.82C358.386 184.681 367.876 189.387 375.776 191.205C385.274 193.39 396.721 191.61 402.375 182.972C405.233 178.605 406.36 173.138 405.463 167.997C404.478 162.361 401.167 157.309 396.931 153.461C392.696 149.613 387.57 146.873 382.312 144.614C369.259 139.006 354.977 136.144 340.785 136.776C335.177 137.026 316.91 138.712 321.09 148.286C321.635 149.535 322.519 150.591 323.562 151.481Z" fill="var(--fill-0, #F7AD60)"/>
<path id="Vector_9" d="M267.426 313.278C262.398 310.903 257.683 308.007 253.542 304.548C253.53 304.538 253.518 304.528 253.506 304.518C253.349 304.387 253.193 304.255 253.037 304.122C253.005 304.094 252.973 304.066 252.94 304.038C252.806 303.923 252.673 303.807 252.541 303.691C252.498 303.654 252.455 303.616 252.413 303.579C252.288 303.468 252.163 303.356 252.039 303.245C251.995 303.206 251.952 303.167 251.909 303.128C251.746 302.981 251.585 302.833 251.424 302.683L251.331 302.597L251.088 302.368L250.972 302.258L250.743 302.039L250.61 301.91L250.25 301.556L250.076 301.383L249.905 301.21L249.719 301.021L249.557 300.855L249.364 300.655L249.211 300.495L248.892 300.156L248.879 300.142L248.841 300.101L248.543 299.777L248.434 299.656L248.202 299.399L248.084 299.265L247.849 298.998L247.755 298.89C247.644 298.762 247.535 298.634 247.426 298.506C247.201 298.241 246.98 297.973 246.761 297.703C246.107 296.893 245.482 296.06 244.893 295.206C244.795 295.064 244.698 294.921 244.602 294.778C244.409 294.491 244.221 294.202 244.037 293.91C243.945 293.765 243.854 293.618 243.764 293.471C243.585 293.178 243.41 292.882 243.239 292.584C243.154 292.435 243.069 292.285 242.987 292.135C242.738 291.685 242.499 291.23 242.273 290.771C241.819 289.852 241.41 288.915 241.053 287.961C240.934 287.643 240.821 287.323 240.713 287.001C240.66 286.841 240.608 286.679 240.557 286.518C240.455 286.194 240.36 285.869 240.271 285.542C240.137 285.052 240.017 284.558 239.912 284.06C237.987 274.919 241.245 265.224 246.957 257.37C247.215 257.015 247.477 256.663 247.745 256.314C248.013 255.965 248.285 255.619 248.562 255.276C248.7 255.105 248.839 254.935 248.979 254.765C249.12 254.595 249.261 254.426 249.403 254.258C249.608 254.016 249.816 253.776 250.024 253.537C250.106 253.444 250.187 253.35 250.27 253.257C250.599 252.886 250.933 252.517 251.273 252.153C251.386 252.032 251.499 251.91 251.613 251.79C251.765 251.629 251.918 251.469 252.072 251.309C252.688 250.671 253.318 250.044 253.96 249.427C254.442 248.964 254.931 248.507 255.427 248.056C255.592 247.906 255.758 247.756 255.924 247.607C256.237 247.327 256.552 247.049 256.869 246.773C257.06 246.608 257.251 246.443 257.442 246.279C257.613 246.133 257.784 245.988 257.956 245.844C258.3 245.554 258.647 245.267 258.995 244.982C259.343 244.697 259.694 244.414 260.047 244.134C260.753 243.572 261.467 243.019 262.188 242.473C262.909 241.927 263.637 241.388 264.371 240.856C264.737 240.591 265.105 240.326 265.474 240.064C265.844 239.801 266.214 239.54 266.586 239.28C267.328 238.761 268.074 238.248 268.824 237.739C269.033 237.597 269.254 237.466 269.477 237.338C269.551 237.295 269.625 237.253 269.7 237.21L269.994 237.039C270.395 236.802 270.798 236.568 271.203 236.337C271.81 235.991 272.42 235.65 273.035 235.316C273.239 235.205 273.445 235.094 273.65 234.984C273.793 234.908 273.936 234.832 274.079 234.757C274.42 234.577 274.761 234.399 275.104 234.222C275.448 234.046 275.792 233.871 276.137 233.699C276.972 233.281 277.814 232.875 278.661 232.48C278.873 232.381 279.085 232.283 279.297 232.186C279.935 231.894 280.576 231.608 281.22 231.328C282.078 230.956 282.942 230.594 283.812 230.243C284.029 230.155 284.247 230.068 284.465 229.982C284.901 229.809 285.338 229.639 285.776 229.472C285.995 229.388 286.215 229.305 286.434 229.223C286.654 229.141 286.874 229.059 287.095 228.978C287.756 228.735 288.42 228.499 289.086 228.268C289.252 228.211 289.418 228.155 289.583 228.098C289.715 228.053 289.847 228.009 289.978 227.965C290.572 227.765 291.167 227.569 291.765 227.379C291.989 227.307 292.214 227.236 292.439 227.166C293.113 226.956 293.79 226.751 294.468 226.553C295.147 226.355 295.828 226.162 296.511 225.976C296.738 225.914 296.966 225.852 297.194 225.792C297.422 225.731 297.651 225.671 297.879 225.611C298.565 225.433 299.252 225.26 299.941 225.093C300.171 225.038 300.4 224.983 300.631 224.929C301.321 224.766 302.013 224.609 302.706 224.458C303.168 224.357 303.632 224.259 304.095 224.164C304.559 224.068 305.023 223.975 305.488 223.885C306.418 223.704 307.35 223.534 308.284 223.374C309.219 223.214 310.155 223.064 311.093 222.925C312.031 222.785 312.971 222.656 313.912 222.536C314.382 222.476 314.854 222.419 315.325 222.365C315.796 222.31 316.267 222.258 316.739 222.208C316.975 222.183 317.211 222.159 317.447 222.136C317.919 222.089 318.391 222.044 318.864 222.002C319.1 221.981 319.336 221.96 319.573 221.941C319.809 221.921 320.045 221.902 320.282 221.883C320.991 221.827 321.7 221.777 322.41 221.732C322.633 221.719 322.857 221.705 323.08 221.692C323.566 221.664 324.053 221.638 324.54 221.615C324.777 221.604 325.014 221.594 325.251 221.583C325.724 221.563 326.197 221.546 326.67 221.531C327.144 221.516 327.617 221.504 328.091 221.493C332.355 221.402 336.586 221.48 340.797 221.733C341.562 221.779 342.327 221.831 343.091 221.888C345.2 222.047 347.303 222.252 349.403 222.501L349.402 222.498C348.857 220.708 346.997 219.327 346.608 217.691L346.606 217.686C346.021 215.2 347.423 212.114 346.94 209.43C346.367 206.238 344.363 203.371 341.658 201.595C341.647 201.661 341.634 201.726 341.621 201.792C341.394 202.918 340.997 204.008 340.451 204.992C340.378 205.123 340.303 205.253 340.225 205.38C339.25 206.971 337.871 208.242 336.188 208.874C335.611 209.091 334.999 209.232 334.355 209.286C333.621 209.347 332.852 209.306 332.087 209.268L331.857 209.256L331.514 209.241L331.286 209.232L331.059 209.226L330.834 209.223L330.498 209.225L330.277 209.232L330.057 209.244L329.84 209.262L329.519 209.301L329.414 209.317C329.274 209.34 329.135 209.369 329 209.403L328.698 209.49L328.501 209.561C328.436 209.586 328.372 209.613 328.309 209.642C328.245 209.671 328.182 209.701 328.12 209.734L328.027 209.784L327.846 209.894L327.498 210.151C327.29 210.326 327.109 210.523 326.945 210.735L326.712 211.064L326.604 211.235L326.4 211.589L326.209 211.952L326.116 212.135L325.933 212.502L325.746 212.866C325.036 214.217 324.079 215.42 322.951 216.438L322.589 216.754L322.404 216.907C322.279 217.008 322.153 217.106 322.026 217.203C321.898 217.3 321.769 217.394 321.638 217.487C321.507 217.579 321.374 217.669 321.24 217.757L321.038 217.887C320.903 217.973 320.766 218.056 320.627 218.137L320.419 218.257C320.279 218.336 320.138 218.413 319.996 218.487C319.853 218.561 319.71 218.633 319.565 218.702C319.276 218.841 318.982 218.97 318.684 219.09C318.535 219.149 318.385 219.206 318.234 219.261C317.933 219.37 317.628 219.469 317.32 219.558C317.165 219.602 317.011 219.644 316.855 219.683C316.7 219.722 316.544 219.759 316.388 219.792C316.231 219.826 316.074 219.857 315.916 219.886L315.68 219.926C315.522 219.952 315.364 219.974 315.205 219.994C315.046 220.014 314.887 220.031 314.728 220.046C314.489 220.067 314.25 220.083 314.01 220.091C313.691 220.102 313.371 220.102 313.051 220.09C307.814 219.891 305.104 214.913 300.087 213.955C299.113 213.769 298.136 213.766 297.156 213.855C296.938 213.875 296.721 213.899 296.502 213.927L296.339 213.949C294.431 214.209 292.513 214.726 290.587 214.842L290.422 214.851C290.257 214.858 290.092 214.863 289.927 214.864L289.596 214.862C286.045 214.785 283.405 213.317 281.077 211.347L280.775 211.087C280.575 210.912 280.378 210.734 280.181 210.552L279.888 210.278C279.742 210.14 279.597 210 279.453 209.859L279.165 209.576L278.879 209.29L278.595 209.002L278.311 208.711L278.028 208.419L277.746 208.126C277.322 207.685 276.899 207.243 276.472 206.805C276.33 206.659 276.187 206.513 276.043 206.368L275.756 206.08L275.466 205.794C275.321 205.651 275.175 205.51 275.027 205.37C274.635 204.996 274.235 204.632 273.826 204.282C273.621 204.107 273.414 203.935 273.203 203.768L272.885 203.52L272.563 203.278L272.4 203.16L272.07 202.929L271.734 202.706C271.565 202.597 271.394 202.49 271.22 202.387C270.989 202.249 270.753 202.117 270.512 201.992C270.212 201.835 269.905 201.688 269.59 201.553C269.369 201.458 269.145 201.368 268.916 201.285C268.688 201.201 268.455 201.123 268.218 201.052L268.032 200.997C267.596 200.872 267.153 200.767 266.703 200.683C266.447 200.635 266.188 200.594 265.928 200.56C265.799 200.542 265.669 200.527 265.538 200.514L265.343 200.495C265.212 200.483 265.082 200.473 264.951 200.465L264.755 200.454C264.625 200.447 264.493 200.443 264.363 200.44L264.167 200.437C264.036 200.437 263.906 200.438 263.775 200.441C263.645 200.444 263.514 200.449 263.384 200.455C263.189 200.465 262.995 200.48 262.8 200.499C262.542 200.524 262.285 200.557 262.03 200.598C261.902 200.618 261.775 200.64 261.649 200.665C259.752 201.033 257.985 201.857 256.61 203.222C255.958 203.868 255.425 204.596 254.976 205.378C254.809 205.671 254.652 205.972 254.505 206.279C254.359 206.586 254.222 206.9 254.093 207.218C253.922 207.643 253.764 208.077 253.616 208.516C253.395 209.175 253.195 209.846 253.003 210.519C252.874 210.968 252.749 211.418 252.622 211.865C252.495 212.312 252.367 212.757 252.232 213.196L252.128 213.526L252.019 213.857C251.925 214.133 251.825 214.409 251.719 214.684C251.655 214.849 251.589 215.014 251.52 215.178C251.429 215.396 251.334 215.613 251.234 215.828C251.159 215.989 251.082 216.149 251.002 216.308C250.869 216.572 250.729 216.831 250.581 217.085L250.401 217.387L250.214 217.683C250.118 217.829 250.02 217.972 249.919 218.113C249.684 218.441 249.434 218.754 249.167 219.047L248.935 219.293L248.696 219.528L248.449 219.753L248.193 219.966L247.93 220.167C247.216 220.687 246.415 221.071 245.518 221.269C245.171 221.346 244.826 221.391 244.48 221.411L244.134 221.422L243.789 221.418C243.616 221.411 243.444 221.4 243.271 221.383C243.099 221.367 242.926 221.345 242.754 221.319L242.409 221.262L242.064 221.195L241.892 221.158L241.547 221.078L241.202 220.991L240.857 220.898L240.684 220.849L240.339 220.749C240.051 220.664 239.763 220.576 239.474 220.488L239.128 220.383L238.782 220.279C237.336 219.847 235.881 219.473 234.405 219.541C231.203 219.688 228.252 222.167 227.556 225.295C227.157 227.089 227.439 228.973 227.128 230.785L227.094 230.968C227.058 231.151 227.016 231.332 226.966 231.511C226.901 231.749 226.824 231.985 226.736 232.216L226.596 232.558C226.498 232.785 226.389 233.007 226.271 233.224L226.087 233.546C225.991 233.704 225.89 233.86 225.784 234.012L225.566 234.313C225.454 234.461 225.336 234.605 225.215 234.746L224.966 235.023C224.754 235.249 224.53 235.465 224.296 235.669L224.009 235.907L223.714 236.134L223.563 236.243C223.36 236.387 223.151 236.521 222.937 236.647L222.776 236.74L222.448 236.915C221.675 237.308 220.847 237.586 219.993 237.724L219.626 237.775C219.318 237.81 219.009 237.826 218.697 237.823C217.637 237.813 216.571 237.568 215.576 237.137L215.228 236.978L215.056 236.892C214.885 236.805 214.717 236.712 214.551 236.613C214.386 236.515 214.224 236.412 214.065 236.304L213.752 236.081C213.495 235.889 213.248 235.684 213.013 235.468L212.737 235.202C212.603 235.066 212.473 234.926 212.347 234.782C212.18 234.59 212.022 234.392 211.875 234.187L211.765 234.032C211.515 233.668 211.296 233.285 211.114 232.887L211.038 232.716L210.899 232.367C210.834 232.191 210.777 232.013 210.727 231.832L210.637 231.468L210.6 231.283C210.566 231.098 210.539 230.911 210.521 230.723C210.509 230.597 210.5 230.47 210.496 230.343C210.457 229.311 210.492 228.338 210.554 227.401C210.565 227.245 210.576 227.089 210.587 226.935C210.616 226.549 210.649 226.169 210.681 225.793C210.694 225.643 210.707 225.494 210.72 225.345C210.752 224.972 210.783 224.603 210.809 224.236C210.819 224.089 210.829 223.942 210.838 223.796C210.847 223.65 210.854 223.504 210.861 223.358C210.868 223.212 210.873 223.066 210.877 222.92L210.883 222.702C210.885 222.556 210.886 222.41 210.886 222.264C210.886 222.118 210.884 221.972 210.88 221.825C210.875 221.679 210.87 221.533 210.862 221.386L210.848 221.165C210.84 221.055 210.831 220.944 210.821 220.834C210.8 220.612 210.775 220.389 210.742 220.165C210.726 220.053 210.709 219.941 210.69 219.828C210.652 219.603 210.607 219.376 210.555 219.147C210.538 219.07 210.52 218.994 210.501 218.917C210.463 218.764 210.422 218.61 210.377 218.455C210.311 218.222 210.236 217.987 210.153 217.75C209.903 217.037 209.576 216.302 209.152 215.536L209.064 215.379L208.884 215.068L208.697 214.761L208.502 214.458L208.403 214.309C208.302 214.159 208.198 214.012 208.092 213.867L207.875 213.58L207.651 213.3C207.538 213.161 207.42 213.025 207.301 212.892L207.057 212.63C206.933 212.501 206.806 212.375 206.676 212.253C206.546 212.13 206.413 212.011 206.276 211.896C206.14 211.781 206 211.669 205.857 211.562C205.714 211.455 205.568 211.351 205.419 211.252C205.356 211.211 205.293 211.171 205.23 211.131C204.977 210.973 204.716 210.83 204.449 210.699C204.248 210.602 204.045 210.512 203.838 210.429C203.47 210.283 203.093 210.161 202.708 210.062C202.516 210.013 202.323 209.97 202.128 209.932C200.177 209.558 198.096 209.769 196.241 210.501C193.274 211.674 190.883 214.071 189.363 216.876C188.906 217.718 188.521 218.601 188.102 219.464C187.963 219.751 187.819 220.037 187.668 220.318C187.618 220.412 187.567 220.505 187.515 220.598L187.356 220.874C187.301 220.965 187.246 221.056 187.19 221.146C187.133 221.236 187.075 221.325 187.016 221.414C186.658 221.948 186.228 222.416 185.742 222.82C185.672 222.877 185.602 222.934 185.53 222.989C185.171 223.264 184.784 223.507 184.376 223.718C183.804 224.013 183.188 224.246 182.546 224.418C182.362 224.468 182.176 224.512 181.989 224.551C180.957 224.768 179.869 224.838 178.787 224.767C178.492 224.747 178.197 224.718 177.904 224.678L177.611 224.634C177.028 224.541 176.452 224.406 175.895 224.232C174.981 223.947 174.117 223.555 173.346 223.062C173.243 222.997 173.142 222.929 173.043 222.86C172.993 222.825 172.944 222.79 172.895 222.755C172.748 222.648 172.606 222.538 172.468 222.423C172.423 222.385 172.377 222.346 172.332 222.308C172.242 222.229 172.154 222.149 172.069 222.068C171.726 221.742 171.417 221.388 171.149 221.007C170.954 220.729 170.774 220.441 170.607 220.144C170.541 220.026 170.476 219.906 170.413 219.785C170.13 219.241 169.883 218.674 169.652 218.098L169.524 217.774C169.398 217.448 169.275 217.121 169.152 216.794C169.091 216.631 169.03 216.468 168.969 216.304C168.825 215.924 168.68 215.546 168.526 215.174L168.393 214.856L168.255 214.542C168.185 214.386 168.113 214.231 168.038 214.078C167.914 213.824 167.783 213.574 167.643 213.33L167.471 213.041L167.289 212.759L167.097 212.484C166.999 212.348 166.896 212.216 166.789 212.086C166.575 211.827 166.343 211.581 166.088 211.349C160.94 206.666 152.28 211.268 146.203 210.382C145.85 210.33 145.506 210.271 145.171 210.204C144.949 210.16 144.73 210.113 144.516 210.062C144.195 209.986 143.884 209.902 143.582 209.811C143.18 209.69 142.795 209.556 142.427 209.409C142.243 209.336 142.063 209.26 141.888 209.18C141.625 209.06 141.371 208.934 141.127 208.801C140.72 208.578 140.34 208.337 139.985 208.077C139.631 207.816 139.303 207.537 139.001 207.24L138.823 207.06C138.706 206.938 138.594 206.813 138.485 206.685C138.377 206.558 138.272 206.427 138.172 206.294C138.072 206.16 137.975 206.024 137.884 205.885L137.749 205.674C137.713 205.617 137.679 205.56 137.645 205.502C137.632 205.481 137.621 205.46 137.608 205.439C137.588 205.404 137.568 205.368 137.548 205.333C137.532 205.304 137.516 205.275 137.5 205.246C137.485 205.219 137.471 205.192 137.457 205.165C137.438 205.129 137.419 205.094 137.401 205.058C137.394 205.043 137.387 205.029 137.38 205.015C137.277 204.811 137.182 204.602 137.094 204.388C137.093 204.387 137.093 204.386 137.093 204.385C136.045 206.29 135.148 208.223 134.371 209.922C131.348 216.539 129.264 223.975 128.673 231.455C127.998 240.014 129.279 248.632 133.35 256.149C137.581 263.962 143.932 270.455 150.9 275.968C164.955 287.089 181.583 294.484 198.439 300.575C221.347 308.854 245.345 314.981 269.703 314.961C270.208 314.96 270.713 314.957 271.218 314.951C270.114 314.498 269.021 314.022 267.942 313.522C267.769 313.44 267.597 313.36 267.426 313.278Z" fill="var(--fill-0, white)"/>
<path id="Vector_10" d="M137.379 205.013C137.386 205.028 137.393 205.042 137.4 205.056C137.418 205.092 137.437 205.127 137.456 205.163C137.47 205.19 137.484 205.217 137.499 205.244C137.515 205.273 137.531 205.302 137.547 205.331C137.567 205.367 137.587 205.402 137.607 205.437C137.62 205.458 137.631 205.479 137.644 205.5C137.678 205.558 137.712 205.616 137.748 205.672L137.883 205.883C137.975 206.022 138.071 206.158 138.171 206.292C138.271 206.425 138.376 206.556 138.484 206.683C138.593 206.811 138.705 206.936 138.822 207.058L139 207.238C139.302 207.536 139.63 207.815 139.984 208.075C140.339 208.335 140.719 208.577 141.126 208.799C141.37 208.932 141.624 209.059 141.887 209.178C142.062 209.258 142.242 209.334 142.426 209.407C142.794 209.554 143.179 209.688 143.581 209.809C143.883 209.9 144.194 209.984 144.515 210.06C144.729 210.111 144.948 210.158 145.17 210.203C145.505 210.269 145.848 210.328 146.202 210.38C152.279 211.266 160.939 206.664 166.087 211.348C166.342 211.579 166.574 211.825 166.788 212.084C166.895 212.214 166.998 212.347 167.096 212.482L167.288 212.757L167.47 213.04L167.642 213.329C167.782 213.572 167.913 213.822 168.037 214.076C168.112 214.229 168.184 214.384 168.254 214.54L168.392 214.854L168.525 215.172C168.679 215.544 168.824 215.922 168.968 216.303C169.029 216.466 169.09 216.629 169.151 216.793C169.274 217.119 169.397 217.447 169.523 217.772L169.651 218.096C169.882 218.672 170.129 219.239 170.412 219.783C170.475 219.904 170.54 220.024 170.606 220.143C170.773 220.439 170.953 220.727 171.148 221.005C171.416 221.386 171.725 221.74 172.068 222.066C172.154 222.148 172.241 222.228 172.331 222.306C172.376 222.345 172.422 222.383 172.468 222.421C172.605 222.536 172.748 222.646 172.894 222.753C172.943 222.789 172.992 222.823 173.042 222.858C173.141 222.927 173.242 222.995 173.345 223.06C174.116 223.553 174.98 223.945 175.894 224.23C176.451 224.404 177.027 224.539 177.611 224.632L177.903 224.676C178.196 224.716 178.491 224.746 178.786 224.765C179.868 224.836 180.956 224.766 181.988 224.549C182.176 224.51 182.362 224.466 182.545 224.416C183.188 224.244 183.803 224.011 184.375 223.716C184.784 223.505 185.17 223.262 185.529 222.987C185.601 222.932 185.672 222.876 185.741 222.818C186.228 222.414 186.658 221.946 187.015 221.412C187.074 221.324 187.132 221.234 187.189 221.144C187.246 221.054 187.301 220.963 187.355 220.872L187.514 220.596C187.566 220.503 187.617 220.41 187.668 220.316C187.818 220.035 187.962 219.749 188.102 219.462C188.52 218.599 188.905 217.716 189.362 216.874C190.882 214.069 193.274 211.672 196.241 210.5C198.095 209.767 200.177 209.556 202.127 209.931C202.322 209.968 202.516 210.011 202.708 210.061C203.092 210.159 203.469 210.281 203.837 210.427C204.044 210.51 204.248 210.6 204.448 210.697C204.715 210.828 204.976 210.972 205.229 211.13C205.293 211.169 205.356 211.209 205.418 211.251C205.567 211.349 205.714 211.453 205.856 211.56C206 211.667 206.139 211.779 206.276 211.894C206.412 212.009 206.545 212.128 206.675 212.251C206.806 212.373 206.932 212.499 207.056 212.628L207.3 212.89C207.42 213.023 207.537 213.159 207.651 213.298L207.875 213.578L208.091 213.866C208.197 214.01 208.301 214.158 208.402 214.307L208.502 214.457L208.696 214.76L208.883 215.067L209.064 215.377L209.151 215.534C209.575 216.3 209.902 217.035 210.152 217.748C210.235 217.985 210.31 218.22 210.377 218.453C210.421 218.608 210.462 218.762 210.5 218.916C210.519 218.992 210.537 219.069 210.554 219.145C210.606 219.374 210.651 219.601 210.689 219.826C210.708 219.939 210.726 220.051 210.742 220.163C210.774 220.388 210.8 220.61 210.82 220.832C210.83 220.943 210.839 221.053 210.847 221.164L210.861 221.384C210.869 221.531 210.875 221.678 210.879 221.824C210.883 221.97 210.885 222.116 210.885 222.262C210.886 222.408 210.885 222.554 210.882 222.7L210.877 222.919C210.872 223.064 210.867 223.21 210.86 223.356C210.854 223.502 210.846 223.648 210.837 223.794C210.828 223.94 210.819 224.087 210.808 224.234C210.782 224.601 210.751 224.97 210.719 225.343C210.706 225.492 210.693 225.641 210.68 225.792C210.648 226.167 210.615 226.548 210.587 226.933C210.575 227.088 210.564 227.243 210.553 227.399C210.491 228.336 210.457 229.31 210.495 230.341C210.499 230.469 210.508 230.595 210.52 230.721C210.539 230.91 210.565 231.096 210.6 231.282L210.637 231.466L210.726 231.83C210.777 232.011 210.834 232.189 210.898 232.366L211.037 232.714L211.113 232.885C211.296 233.283 211.514 233.666 211.765 234.03L211.874 234.185C212.022 234.39 212.18 234.589 212.347 234.78C212.472 234.924 212.602 235.064 212.737 235.2L213.012 235.466C213.247 235.683 213.494 235.887 213.751 236.079L214.064 236.302C214.223 236.41 214.385 236.514 214.551 236.612C214.716 236.71 214.884 236.803 215.055 236.89L215.227 236.976L215.575 237.135C216.571 237.567 217.636 237.812 218.697 237.822C219.008 237.825 219.317 237.808 219.625 237.773L219.992 237.722C220.846 237.584 221.674 237.306 222.448 236.914L222.776 236.738L222.937 236.646C223.15 236.52 223.359 236.385 223.562 236.242L223.713 236.133L224.009 235.906L224.295 235.667C224.529 235.463 224.753 235.248 224.965 235.021L225.214 234.745C225.336 234.604 225.453 234.459 225.565 234.311L225.783 234.011C225.889 233.858 225.99 233.702 226.086 233.544L226.271 233.222C226.389 233.005 226.497 232.783 226.595 232.557L226.735 232.214C226.823 231.983 226.9 231.748 226.965 231.509C227.015 231.33 227.058 231.149 227.094 230.966L227.128 230.783C227.438 228.971 227.156 227.088 227.555 225.293C228.251 222.166 231.202 219.686 234.404 219.539C235.881 219.472 237.336 219.845 238.781 220.277L239.127 220.381L239.474 220.487C239.762 220.575 240.05 220.663 240.338 220.747L240.684 220.848L240.856 220.896L241.201 220.989L241.546 221.076L241.891 221.157L242.064 221.193L242.408 221.261L242.753 221.317C242.926 221.343 243.098 221.365 243.271 221.381C243.443 221.398 243.616 221.41 243.788 221.416L244.134 221.421L244.479 221.409C244.825 221.389 245.171 221.344 245.517 221.267C246.414 221.069 247.215 220.685 247.929 220.165L248.192 219.964L248.448 219.751L248.695 219.527L248.935 219.291L249.167 219.045C249.433 218.752 249.683 218.439 249.918 218.111C250.019 217.97 250.117 217.827 250.213 217.681L250.4 217.385L250.58 217.083C250.728 216.829 250.868 216.57 251.001 216.306C251.081 216.147 251.158 215.987 251.233 215.826C251.333 215.611 251.428 215.394 251.52 215.176C251.588 215.012 251.654 214.847 251.718 214.682C251.825 214.407 251.924 214.131 252.018 213.855L252.128 213.524L252.231 213.194C252.366 212.755 252.494 212.31 252.621 211.863C252.748 211.416 252.873 210.967 253.002 210.518C253.195 209.844 253.395 209.173 253.616 208.514C253.764 208.075 253.921 207.641 254.092 207.217C254.221 206.898 254.358 206.585 254.504 206.277C254.651 205.97 254.808 205.669 254.976 205.376C255.424 204.594 255.957 203.867 256.609 203.22C257.984 201.855 259.751 201.031 261.648 200.663C261.775 200.639 261.902 200.616 262.029 200.596C262.284 200.555 262.541 200.522 262.8 200.497C262.994 200.478 263.188 200.463 263.384 200.453C263.514 200.447 263.644 200.442 263.774 200.439C263.905 200.436 264.035 200.435 264.166 200.436L264.362 200.438C264.493 200.441 264.624 200.446 264.754 200.452L264.95 200.463C265.081 200.471 265.212 200.481 265.342 200.493L265.538 200.512C265.668 200.525 265.798 200.541 265.928 200.558C266.188 200.592 266.446 200.633 266.702 200.681C267.152 200.765 267.595 200.87 268.031 200.995L268.217 201.05C268.454 201.121 268.687 201.199 268.916 201.283C269.144 201.366 269.369 201.456 269.589 201.551C269.904 201.686 270.211 201.833 270.512 201.99C270.752 202.115 270.988 202.247 271.219 202.385C271.393 202.488 271.564 202.595 271.734 202.704L272.069 202.927L272.399 203.158L272.562 203.276L272.885 203.518L273.202 203.766C273.413 203.933 273.62 204.105 273.825 204.28C274.235 204.63 274.634 204.994 275.026 205.368C275.174 205.508 275.32 205.649 275.465 205.792L275.755 206.078L276.043 206.366C276.186 206.511 276.329 206.656 276.471 206.803C276.898 207.241 277.321 207.683 277.745 208.124L278.027 208.417L278.31 208.709L278.594 209L278.879 209.288L279.165 209.574L279.452 209.857C279.597 209.998 279.741 210.138 279.887 210.276L280.181 210.55C280.377 210.731 280.575 210.91 280.775 211.085L281.077 211.345C283.404 213.315 286.045 214.783 289.596 214.86L289.926 214.862C290.091 214.861 290.256 214.856 290.422 214.849L290.587 214.84C292.512 214.724 294.43 214.207 296.338 213.947L296.502 213.925C296.72 213.897 296.938 213.873 297.155 213.853C298.135 213.764 299.113 213.767 300.087 213.953C305.103 214.911 307.813 219.889 313.05 220.088C313.37 220.1 313.69 220.1 314.009 220.089C314.249 220.08 314.488 220.065 314.727 220.044C314.887 220.029 315.046 220.012 315.204 219.992C315.363 219.972 315.521 219.95 315.679 219.924L315.916 219.883C316.073 219.855 316.23 219.824 316.387 219.79C316.543 219.757 316.699 219.72 316.855 219.681C317.01 219.642 317.165 219.6 317.319 219.556C317.627 219.467 317.932 219.368 318.234 219.259C318.385 219.204 318.535 219.147 318.684 219.088C318.981 218.969 319.275 218.839 319.565 218.7C319.709 218.631 319.853 218.559 319.995 218.485C320.137 218.411 320.278 218.334 320.418 218.255L320.626 218.135C320.765 218.054 320.902 217.971 321.037 217.885L321.24 217.755C321.374 217.667 321.506 217.577 321.637 217.484C321.768 217.392 321.897 217.298 322.025 217.201C322.153 217.104 322.279 217.005 322.403 216.905L322.588 216.752L322.95 216.436C324.078 215.418 325.035 214.215 325.746 212.864L325.932 212.5L326.115 212.133L326.209 211.95L326.4 211.587L326.603 211.233L326.711 211.062L326.944 210.733C327.108 210.521 327.289 210.324 327.497 210.149L327.845 209.891L328.027 209.782L328.119 209.732C328.181 209.699 328.244 209.669 328.308 209.64C328.371 209.611 328.435 209.584 328.5 209.559L328.697 209.488L328.999 209.401C329.135 209.367 329.273 209.338 329.413 209.315L329.519 209.299L329.84 209.26L330.057 209.242L330.276 209.23L330.498 209.223L330.833 209.221L331.059 209.224L331.286 209.23L331.513 209.239L331.857 209.254L332.086 209.266C332.852 209.304 333.62 209.345 334.354 209.284C334.999 209.23 335.611 209.088 336.187 208.872C337.871 208.24 339.249 206.969 340.224 205.378C340.302 205.251 340.377 205.121 340.45 204.99C340.996 204.006 341.393 202.917 341.62 201.79C341.633 201.724 341.646 201.659 341.658 201.593C341.673 201.508 341.689 201.423 341.702 201.337C341.763 200.959 341.804 200.578 341.825 200.196C341.834 200.043 341.839 199.89 341.841 199.737L341.842 199.508C341.835 198.592 341.71 197.682 341.456 196.813C341.101 195.599 340.613 194.55 340.024 193.625C339.795 193.266 339.551 192.925 339.293 192.6C339.109 192.368 338.918 192.145 338.722 191.929L338.482 191.673L338.238 191.425C337.95 191.138 337.65 190.865 337.342 190.603L337.076 190.381C336.584 189.978 336.072 189.601 335.546 189.239C335.403 189.141 335.259 189.043 335.114 188.947C334.244 188.369 333.344 187.826 332.449 187.278L332.151 187.096C331.257 186.546 330.37 185.988 329.523 185.379L329.243 185.174C327.802 184.105 326.492 182.874 325.482 181.273C325.392 181.131 325.312 180.987 325.241 180.839C325.169 180.691 325.105 180.54 325.048 180.386L324.994 180.231C324.873 179.869 324.788 179.493 324.728 179.109L324.703 178.943L324.661 178.611L324.644 178.443L324.615 178.106C324.585 177.713 324.567 177.315 324.549 176.92L324.533 176.582C324.524 176.413 324.515 176.246 324.504 176.079C324.293 172.949 323.17 169.783 321.263 167.325C319.952 165.636 318.271 164.282 316.261 163.503C313.913 162.593 311.216 162.458 308.662 162.121C308.181 162.058 307.705 161.988 307.237 161.903C306.918 161.846 306.603 161.782 306.293 161.709L306.061 161.654C305.907 161.615 305.755 161.575 305.604 161.532L305.378 161.465C305.229 161.419 305.081 161.371 304.934 161.32L304.716 161.241C304.353 161.105 304.002 160.951 303.663 160.774L303.461 160.665C302.793 160.293 302.177 159.825 301.629 159.23C301.349 158.926 301.1 158.599 300.868 158.258C300.17 157.237 299.624 156.1 298.857 155.125L298.655 154.874L298.584 154.789L298.438 154.616L298.36 154.528L298.193 154.34L298.135 154.275L297.911 154.034L297.831 153.951L297.665 153.78L297.574 153.689L297.42 153.537L297.312 153.432L297.134 153.263L296.948 153.091L296.825 152.978L296.667 152.837L296.569 152.751L296.387 152.593L296.348 152.56C296.118 152.364 295.883 152.17 295.641 151.978L295.637 151.975C295.516 151.879 295.394 151.784 295.27 151.69C295.252 151.676 295.234 151.663 295.217 151.649C291.093 148.513 285.333 145.943 280.209 144.827C281.661 145.664 283.014 146.669 284.202 147.849C286.714 150.344 288.529 153.368 290.272 156.422C291.81 159.117 293.104 161.665 295.946 163.164C298.304 164.408 300.93 164.969 303.504 165.577C308.923 166.857 314.47 168.701 316.383 174.521C316.901 176.096 317.185 177.776 317.35 179.423C317.456 180.48 317.464 181.591 317.815 182.592C318.288 183.943 319.325 185.031 320.343 185.999C321.833 187.416 323.326 188.831 324.73 190.335C326.824 192.581 329.177 195.483 328.483 198.784C327.63 202.845 322.943 205.639 319.386 207.02C314.891 208.765 310.589 207.916 306.527 205.544C305.23 204.786 303.952 203.775 302.546 203.223C301.514 202.817 300.577 203.191 299.579 203.646C296.377 205.109 293.525 207.305 289.878 207.531C287.501 207.679 285.296 206.851 283.52 205.281C279.719 201.922 277.777 197.001 273.566 194.003C267.435 189.638 257.841 190.448 253.165 196.617C250.805 199.73 250.295 203.802 248.454 207.19C246.644 210.521 243.825 212.695 239.976 212.909C236.807 213.085 233.235 212.068 230.33 213.773C227.594 215.38 226.228 218.742 224.424 221.219C223.018 223.15 220.863 225.232 218.302 224.028C216.781 223.313 215.771 221.713 214.998 220.296C214.161 218.76 213.549 217.152 213.032 215.484C212.169 212.699 211.608 209.734 210.262 207.124C208.938 204.556 206.707 203.021 203.886 202.475C196.846 201.112 192.129 206.324 186.966 210.107C184.46 211.944 181.625 213.463 178.486 213.777C174.904 214.135 171.945 212.307 169.351 210.042C167.164 208.132 164.853 205.406 161.784 205.121C158.949 204.857 155.985 205.637 153.207 206.101C150.336 206.579 147.163 207.128 144.301 206.314C141.606 205.547 139.619 203.326 139.291 200.502C138.943 197.497 140.994 194.935 143.05 193.009C145.179 191.015 147.79 189.46 149.745 187.293C150.876 186.039 151.671 184.516 151.726 182.806C151.767 181.578 151.576 180.356 151.479 179.13C151.379 179.341 151.26 179.542 151.173 179.759C151.076 179.997 150.984 180.241 150.895 180.488C150.807 180.735 150.722 180.984 150.637 181.234C150.564 181.449 150.491 181.664 150.418 181.878C150.344 182.092 150.269 182.306 150.191 182.517C150.139 182.658 150.085 182.797 150.031 182.936C149.948 183.143 149.861 183.348 149.769 183.548C149.339 184.481 148.787 185.317 147.948 185.916L147.715 186.071L147.475 186.211L147.352 186.276C147.146 186.382 146.934 186.475 146.717 186.558C146.486 186.647 146.251 186.726 146.012 186.799L145.784 186.868L145.512 186.947L145.24 187.025L144.967 187.103L144.831 187.143C144.468 187.25 144.109 187.363 143.76 187.502C141.179 188.529 138.572 191.821 137.261 194.941L137.136 195.246C137.077 195.397 137.021 195.547 136.967 195.696C136.947 195.754 136.927 195.812 136.907 195.87C136.848 196.043 136.794 196.214 136.745 196.384C136.727 196.446 136.709 196.508 136.693 196.57C136.576 197.001 136.491 197.419 136.442 197.818C136.354 198.53 136.307 199.217 136.302 199.877C136.296 200.726 136.359 201.53 136.493 202.289C136.508 202.375 136.525 202.461 136.542 202.546C136.547 202.574 136.553 202.602 136.559 202.63C136.571 202.688 136.583 202.745 136.596 202.803C136.603 202.832 136.61 202.86 136.617 202.89C136.631 202.948 136.644 203.007 136.659 203.065C136.665 203.09 136.672 203.115 136.678 203.14C136.696 203.208 136.714 203.274 136.733 203.341C136.737 203.354 136.74 203.368 136.744 203.382C136.842 203.726 136.958 204.059 137.09 204.381C137.091 204.383 137.091 204.384 137.092 204.386C137.181 204.6 137.276 204.81 137.379 205.013Z" fill="var(--fill-0, #851B21)"/>
<path id="Vector_11" d="M419.111 166.135C420.073 173.859 417.675 181.415 413.04 187.595C407.8 194.582 400.256 200.382 392.237 203.806C383.931 207.352 374.753 208.079 365.891 206.519C356.326 204.835 347.443 199.891 342.736 191.167C339.301 184.798 337.888 176.519 331.979 171.795C328.872 169.311 325.086 168.275 321.263 167.326C323.171 169.783 324.294 172.95 324.504 176.079C324.516 176.246 324.525 176.414 324.533 176.583L324.549 176.92C324.568 177.315 324.585 177.713 324.615 178.107L324.644 178.444L324.662 178.611L324.703 178.944L324.728 179.109C324.789 179.493 324.873 179.869 324.995 180.232L325.049 180.386C325.105 180.54 325.169 180.691 325.241 180.839C325.313 180.987 325.393 181.132 325.482 181.273C326.493 182.875 327.803 184.106 329.244 185.175L329.524 185.379C330.37 185.988 331.257 186.547 332.151 187.096L332.45 187.279C333.345 187.826 334.244 188.369 335.114 188.948C335.259 189.044 335.404 189.141 335.547 189.24C336.072 189.601 336.585 189.979 337.077 190.381L337.343 190.603C337.651 190.866 337.95 191.139 338.238 191.425L338.483 191.674L338.722 191.93C338.919 192.146 339.11 192.369 339.293 192.601C339.551 192.925 339.795 193.267 340.024 193.626C340.613 194.551 341.102 195.599 341.456 196.813C341.71 197.682 341.835 198.592 341.842 199.509L341.842 199.738C341.84 199.891 341.834 200.043 341.826 200.196C341.804 200.578 341.763 200.96 341.703 201.338C341.689 201.423 341.674 201.509 341.658 201.594C344.362 203.369 346.367 206.237 346.94 209.429C347.422 212.113 346.02 215.199 346.606 217.685L346.608 217.69C347.544 218.109 348.487 218.509 349.432 218.892C360.205 223.262 372.633 225.774 384.196 223.522C389.627 222.464 394.898 220.252 399.07 216.557C401.538 214.37 403.57 211.749 405.343 208.981C407.298 205.928 409.036 202.53 411.909 200.216C414.603 198.048 418.096 197.191 421.202 195.783C424.174 194.435 426.928 192.595 428.752 189.83C430.898 186.577 431.86 182.66 432.107 178.661C432.232 179.34 432.323 180.031 432.376 180.738C432.373 180.695 432.37 180.652 432.367 180.609L432.359 180.515C432.348 180.386 432.337 180.258 432.324 180.131L432.323 180.122L432.279 179.745L432.268 179.657C432.251 179.53 432.234 179.403 432.215 179.277L432.213 179.267L432.154 178.903L432.138 178.809L432.07 178.439L432.067 178.425L431.992 178.067L431.974 177.982L431.889 177.615L431.885 177.598L431.796 177.248L431.774 177.168L431.673 176.803L431.671 176.794L431.565 176.444L431.541 176.365L431.424 176.005L431.422 175.999L431.3 175.647L431.276 175.582C431.19 175.343 431.1 175.105 431.005 174.87L430.978 174.805L430.832 174.452L430.829 174.446L430.677 174.102L430.652 174.047L430.49 173.697L430.486 173.687L430.325 173.357L430.294 173.294C430.179 173.064 430.059 172.835 429.936 172.609L429.913 172.566L429.721 172.222L429.719 172.218L429.525 171.883L429.501 171.843C429.367 171.616 429.229 171.392 429.088 171.169L429.065 171.134C428.921 170.909 428.773 170.685 428.622 170.463L428.606 170.44C428.451 170.213 428.292 169.989 428.129 169.765L428.126 169.761C427.962 169.536 427.794 169.314 427.623 169.093L427.617 169.085C427.54 168.986 427.462 168.887 427.383 168.788C427.356 168.755 427.33 168.722 427.303 168.689C427.249 168.621 427.194 168.553 427.138 168.484C427.11 168.45 427.082 168.415 427.053 168.381C427 168.316 426.946 168.252 426.892 168.187C426.862 168.151 426.831 168.114 426.8 168.078C426.742 168.009 426.683 167.94 426.624 167.871C426.601 167.844 426.579 167.818 426.556 167.792C426.385 167.594 426.211 167.398 426.034 167.203C426.019 167.185 426.002 167.167 425.986 167.149C425.914 167.07 425.841 166.991 425.768 166.912C425.745 166.887 425.722 166.862 425.699 166.838C425.632 166.766 425.564 166.694 425.497 166.623C425.473 166.597 425.448 166.572 425.424 166.546C425.349 166.467 425.274 166.389 425.199 166.311C425.185 166.296 425.17 166.282 425.156 166.267C424.874 165.977 424.587 165.69 424.295 165.407C424.28 165.393 424.266 165.379 424.252 165.365C424.165 165.282 424.079 165.199 423.992 165.116C423.982 165.107 423.972 165.098 423.962 165.088C423.871 165.002 423.779 164.915 423.686 164.829C423.678 164.821 423.669 164.813 423.661 164.806C421.814 163.087 419.796 161.501 417.734 160.026C418.377 162.004 418.85 164.04 419.111 166.135Z" fill="var(--fill-0, #E68A37)"/>
<path id="Vector_12" d="M428.753 189.831C426.929 192.597 424.175 194.437 421.203 195.784C418.096 197.193 414.604 198.049 411.91 200.218C409.037 202.531 407.299 205.929 405.344 208.982C403.571 211.751 401.539 214.372 399.071 216.558C394.899 220.254 389.628 222.466 384.197 223.523C372.634 225.776 360.205 223.263 349.433 218.894C348.488 218.51 347.544 218.111 346.608 217.691C346.997 219.327 348.858 220.708 349.403 222.498L349.404 222.501C347.303 222.252 345.2 222.048 343.092 221.888C342.328 221.83 341.563 221.779 340.797 221.733C336.587 221.48 332.355 221.402 328.091 221.493C327.618 221.504 327.144 221.516 326.671 221.531C326.198 221.546 325.724 221.563 325.251 221.583C325.015 221.594 324.778 221.604 324.541 221.615C324.054 221.638 323.567 221.664 323.081 221.692C322.857 221.705 322.634 221.718 322.411 221.732C321.701 221.777 320.991 221.827 320.282 221.883C320.046 221.902 319.809 221.921 319.573 221.941C319.337 221.96 319.1 221.981 318.864 222.002C318.392 222.044 317.92 222.089 317.448 222.136C317.212 222.159 316.976 222.183 316.74 222.208C316.268 222.258 315.797 222.31 315.325 222.365C314.854 222.419 314.383 222.476 313.912 222.536C312.971 222.656 312.031 222.785 311.093 222.925C310.155 223.064 309.219 223.214 308.284 223.374C307.351 223.534 306.418 223.704 305.488 223.885C305.024 223.975 304.559 224.068 304.096 224.164C303.632 224.259 303.169 224.357 302.707 224.458C302.013 224.609 301.321 224.766 300.631 224.929C300.401 224.983 300.171 225.038 299.941 225.093C299.253 225.26 298.565 225.433 297.88 225.611C297.651 225.671 297.423 225.731 297.195 225.792C296.967 225.852 296.739 225.914 296.511 225.976C295.829 226.162 295.148 226.355 294.468 226.553C293.79 226.751 293.113 226.956 292.439 227.166C292.214 227.236 291.99 227.307 291.765 227.379C291.168 227.569 290.573 227.765 289.979 227.965C289.847 228.009 289.715 228.053 289.584 228.098C289.418 228.155 289.252 228.211 289.087 228.268C288.421 228.499 287.757 228.735 287.095 228.978C286.875 229.059 286.655 229.141 286.435 229.223C286.215 229.305 285.996 229.388 285.777 229.472C285.338 229.639 284.901 229.809 284.465 229.982C284.247 230.068 284.029 230.155 283.812 230.243C282.943 230.594 282.079 230.956 281.22 231.328C280.576 231.608 279.935 231.894 279.298 232.186C279.085 232.283 278.873 232.381 278.661 232.48C277.814 232.875 276.973 233.281 276.138 233.699C275.792 233.871 275.448 234.046 275.105 234.222C274.762 234.399 274.42 234.577 274.079 234.757C273.936 234.832 273.793 234.908 273.651 234.984C273.445 235.094 273.24 235.205 273.035 235.316C272.421 235.65 271.81 235.991 271.204 236.337C270.799 236.568 270.396 236.803 269.995 237.039L269.7 237.21C269.626 237.253 269.552 237.295 269.477 237.338C269.255 237.466 269.034 237.597 268.825 237.739C268.075 238.248 267.328 238.761 266.586 239.28C266.214 239.539 265.844 239.801 265.475 240.063C265.105 240.326 264.738 240.59 264.371 240.856C263.638 241.388 262.91 241.927 262.188 242.473C261.467 243.019 260.753 243.572 260.047 244.134C259.695 244.414 259.344 244.697 258.995 244.982C258.647 245.267 258.3 245.554 257.956 245.843C257.784 245.988 257.613 246.133 257.443 246.279C257.251 246.443 257.06 246.608 256.869 246.773C256.552 247.049 256.237 247.326 255.924 247.606C255.758 247.756 255.592 247.905 255.427 248.056C254.931 248.507 254.443 248.964 253.96 249.427C253.318 250.043 252.688 250.67 252.072 251.309C251.919 251.469 251.766 251.629 251.613 251.79C251.499 251.91 251.386 252.031 251.273 252.153C250.934 252.517 250.6 252.885 250.27 253.257C250.188 253.35 250.106 253.444 250.024 253.537C249.816 253.776 249.608 254.016 249.403 254.258C249.261 254.426 249.12 254.595 248.979 254.765C248.839 254.935 248.7 255.105 248.562 255.276C248.285 255.619 248.013 255.965 247.745 256.314C247.478 256.663 247.214 257.015 246.957 257.37C241.245 265.224 237.987 274.918 239.912 284.06C240.017 284.558 240.137 285.052 240.271 285.542C240.36 285.869 240.455 286.194 240.557 286.517C240.608 286.679 240.66 286.84 240.713 287.001C240.821 287.323 240.934 287.642 241.053 287.961C241.41 288.914 241.819 289.851 242.273 290.771C242.499 291.23 242.738 291.685 242.987 292.135C243.069 292.285 243.154 292.435 243.239 292.584C243.41 292.882 243.585 293.178 243.764 293.471C243.854 293.618 243.945 293.764 244.037 293.91C244.221 294.201 244.409 294.491 244.602 294.777C244.698 294.921 244.795 295.064 244.893 295.206C245.482 296.06 246.107 296.893 246.761 297.703C246.98 297.973 247.201 298.241 247.426 298.506C247.535 298.634 247.645 298.762 247.755 298.89L247.849 298.998L248.084 299.265L248.202 299.398L248.434 299.655L248.543 299.776L248.841 300.101L248.892 300.155L249.211 300.495L249.364 300.655L249.557 300.855L249.719 301.021L249.905 301.21L250.076 301.383L250.25 301.556L250.61 301.909L250.743 302.038L250.972 302.257L251.088 302.368L251.331 302.597L251.424 302.683C251.585 302.832 251.746 302.98 251.909 303.128C251.952 303.167 251.996 303.206 252.039 303.245C252.163 303.356 252.287 303.468 252.413 303.578C252.455 303.616 252.498 303.653 252.541 303.691C252.673 303.807 252.807 303.923 252.94 304.038C252.973 304.066 253.005 304.094 253.037 304.121C253.193 304.254 253.349 304.387 253.506 304.518C253.518 304.528 253.53 304.538 253.542 304.548C258.581 308.755 264.468 312.125 270.735 314.745C268.725 313.301 266.807 311.734 265.037 310.008C260.067 305.159 255.983 299.022 255.508 291.92C255.012 284.509 258.445 277.417 265.213 274.065C271.908 270.751 279.712 271.161 286.909 269.922C289.992 269.392 293.274 268.751 295.97 267.079C298.662 265.41 300.388 262.861 301.549 259.958C304.004 253.823 306.509 247.98 311.486 243.436C315.862 239.439 321.345 236.864 326.857 234.82C337.757 230.778 350.256 228.642 361.746 231.243C367.142 232.464 372.344 234.834 376.403 238.654C378.803 240.914 380.755 243.595 382.444 246.416C384.306 249.526 385.94 252.975 388.742 255.375C391.368 257.623 394.834 258.585 397.896 260.087C400.827 261.524 403.524 263.446 405.263 266.265C407.31 269.582 408.153 273.526 408.279 277.53C408.448 276.745 408.573 275.939 408.644 275.112C408.648 275.064 408.652 275.015 408.655 274.966C408.661 274.891 408.668 274.815 408.672 274.74L408.674 274.71C408.682 274.581 408.69 274.452 408.695 274.322C408.924 269.083 406.913 263.823 403.348 259.944C402.45 258.967 401.454 258.077 400.37 257.297C399.347 256.562 398.246 255.913 397.161 255.249C396.98 255.139 396.799 255.028 396.62 254.916C396.44 254.804 396.261 254.692 396.084 254.578C395.829 254.414 395.577 254.247 395.328 254.077C395.277 254.042 395.226 254.007 395.175 253.972C395.137 253.945 395.098 253.917 395.059 253.89C394.967 253.825 394.874 253.759 394.783 253.692C394.667 253.608 394.553 253.522 394.439 253.435C394.326 253.347 394.214 253.259 394.103 253.169C394.048 253.124 393.993 253.079 393.938 253.033C393.829 252.942 393.721 252.849 393.615 252.754C393.456 252.613 393.3 252.467 393.148 252.317C392.845 252.017 392.558 251.7 392.292 251.362C392.199 251.245 392.11 251.125 392.024 251.005C391.937 250.884 391.854 250.762 391.773 250.638C391.606 250.384 391.452 250.123 391.308 249.857L391.213 249.68C390.472 248.256 390.012 246.691 389.592 245.1L389.542 244.913C389.428 244.475 389.316 244.036 389.2 243.597L389.151 243.409L389.051 243.034C388.991 242.811 388.929 242.589 388.866 242.367C388.805 242.154 388.742 241.941 388.677 241.73L388.561 241.361C388.403 240.871 388.229 240.387 388.034 239.914C387.358 238.276 386.416 236.771 385.282 235.407C384.999 235.066 384.703 234.734 384.397 234.411C384.193 234.196 383.984 233.984 383.77 233.777L383.446 233.469C383.228 233.266 383.006 233.067 382.78 232.872C382.553 232.677 382.323 232.485 382.089 232.299C381.855 232.112 381.617 231.929 381.376 231.751L381.012 231.486C380.768 231.312 380.521 231.142 380.271 230.976C380.225 230.946 380.179 230.916 380.133 230.886C382.433 230.547 384.734 230.154 387.038 229.703C387.333 229.646 387.628 229.587 387.923 229.527C388.334 229.444 388.745 229.359 389.156 229.271L389.346 229.23C389.722 229.149 390.097 229.065 390.472 228.979C390.688 228.93 390.903 228.879 391.118 228.828C391.447 228.749 391.775 228.668 392.102 228.585C392.429 228.502 392.756 228.416 393.081 228.327C393.555 228.198 394.028 228.063 394.497 227.921C394.785 227.834 395.071 227.744 395.356 227.652C395.692 227.544 396.025 227.431 396.358 227.314C396.539 227.251 396.719 227.186 396.9 227.12L397.169 227.021C397.371 226.945 397.572 226.868 397.773 226.788C397.952 226.718 398.129 226.647 398.306 226.574C398.444 226.517 398.582 226.46 398.719 226.401C399.234 226.181 399.744 225.948 400.248 225.702C400.415 225.62 400.582 225.536 400.749 225.451C401.148 225.247 401.543 225.032 401.933 224.808C402.193 224.659 402.451 224.505 402.706 224.347C402.961 224.189 403.213 224.026 403.463 223.859C403.587 223.776 403.711 223.691 403.834 223.606C404.327 223.264 404.806 222.904 405.271 222.528C405.403 222.421 405.534 222.312 405.663 222.202C406.1 221.832 406.521 221.447 406.925 221.047L406.934 221.038L406.938 221.034C407.093 220.88 407.245 220.723 407.395 220.564C408.015 219.908 408.589 219.214 409.108 218.481C409.229 218.311 409.347 218.14 409.461 217.967L409.699 217.595C410.086 216.971 410.434 216.321 410.736 215.648C411.024 215.005 411.271 214.342 411.496 213.669C411.545 213.52 411.594 213.371 411.641 213.221L411.675 213.116C411.753 212.87 411.828 212.622 411.903 212.374L412.013 212.002L412.068 211.815C412.359 210.821 412.641 209.824 412.971 208.855L413.033 208.674C413.285 207.95 413.567 207.242 413.903 206.564L414.075 206.228C414.252 205.894 414.444 205.568 414.654 205.252C414.863 204.936 415.09 204.629 415.338 204.333C415.472 204.173 415.611 204.019 415.754 203.869C415.897 203.719 416.044 203.573 416.195 203.431C416.251 203.378 416.308 203.326 416.366 203.274C416.539 203.119 416.716 202.968 416.897 202.822C417.058 202.692 417.223 202.566 417.39 202.442C417.557 202.318 417.726 202.198 417.898 202.08C418.21 201.866 418.529 201.661 418.852 201.461C419.334 201.164 419.826 200.878 420.322 200.596C420.967 200.228 421.617 199.865 422.254 199.487C422.709 199.217 423.157 198.939 423.592 198.645C424.699 197.899 425.722 197.04 426.649 196.09C427.018 195.713 427.372 195.321 427.709 194.915C427.842 194.757 427.971 194.597 428.098 194.435C428.224 194.273 428.349 194.109 428.471 193.944C428.593 193.778 428.713 193.611 428.829 193.441C428.946 193.272 429.061 193.101 429.173 192.928C429.284 192.756 429.394 192.582 429.5 192.406L429.658 192.141C429.814 191.875 429.963 191.605 430.107 191.333C430.299 190.97 430.479 190.601 430.648 190.227C430.733 190.04 430.815 189.852 430.894 189.662C431.052 189.284 431.199 188.9 431.333 188.514C431.401 188.32 431.465 188.125 431.527 187.93C431.588 187.735 431.647 187.538 431.702 187.341C431.813 186.947 431.911 186.549 431.997 186.149C432.04 185.949 432.08 185.748 432.117 185.547C432.209 185.044 432.282 184.537 432.333 184.028C432.354 183.825 432.371 183.621 432.386 183.416C432.414 183.008 432.429 182.598 432.43 182.188L432.429 181.881V181.88C432.427 181.753 432.423 181.626 432.419 181.499L432.418 181.461C432.416 181.401 432.413 181.341 432.41 181.281C432.407 181.209 432.403 181.137 432.399 181.065C432.394 180.967 432.388 180.87 432.381 180.773C432.38 180.761 432.379 180.75 432.378 180.738C432.326 180.031 432.234 179.34 432.109 178.661C431.861 182.661 430.899 186.578 428.753 189.831Z" fill="var(--fill-0, #E2812F)"/>
<path id="Vector_13" d="M177.746 186.886C179.733 187.793 182.055 187.495 184.164 186.93C186.52 186.298 188.848 185.319 190.604 183.626C193.131 181.189 194.147 177.638 195.509 174.403C196.872 171.167 199.034 167.827 202.449 167.012C204.725 166.469 207.174 167.165 209.43 166.543C214.443 165.159 216.296 158.088 221.374 156.969C223.319 156.54 225.382 157.111 227.323 156.666C228.685 156.354 229.948 155.502 230.75 154.357C231.812 152.841 231.376 152.356 229.965 151.351C227.714 149.748 224.986 148.821 222.22 148.766C218.766 148.696 215.304 149.986 212.738 152.299C210.139 154.642 208.23 158.1 204.853 159.019C201.252 159.999 197.37 157.633 193.767 158.602C191.187 159.296 189.319 161.586 188.233 164.027C187.147 166.467 186.671 169.13 185.79 171.652C184.91 174.174 183.503 176.677 181.173 177.983C179.921 178.685 178.383 179.077 177.149 179.764C174.024 181.504 174.739 185.514 177.746 186.886Z" fill="var(--fill-0, #BD4A25)"/>
<path id="Vector_14" d="M389.489 268.026C384.463 260.885 377.098 254.859 369.186 251.194C360.991 247.399 351.839 246.394 342.934 247.686C333.322 249.081 324.294 253.754 319.326 262.332C315.699 268.593 314.037 276.826 307.988 281.369C300.711 286.834 290.12 284.62 283.388 291.231C280.18 294.381 278.217 298.626 278.492 303.161C278.757 307.535 280.99 311.392 283.78 314.652C285.648 316.834 287.751 318.735 290.024 320.392C297.912 321.862 306.012 322.456 314.131 322.234C324.232 321.957 334.356 320.448 344.117 317.897C357.486 314.403 370.286 309.002 382.329 302.33C383.47 301.698 384.605 301.055 385.732 300.4C388.189 298.974 390.799 297.41 393.356 295.695C394.054 293.748 394.585 291.737 394.908 289.659C396.103 281.969 393.935 274.343 389.489 268.026Z" fill="var(--fill-0, #F49A4B)"/>
<path id="Vector_15" d="M408.278 277.531C408.153 273.526 407.31 269.582 405.263 266.265C403.523 263.446 400.826 261.524 397.896 260.087C394.833 258.586 391.368 257.624 388.741 255.375C385.939 252.976 384.305 249.527 382.443 246.417C380.755 243.596 378.803 240.914 376.402 238.655C372.344 234.834 367.142 232.465 361.745 231.243C350.255 228.642 337.757 230.778 326.857 234.82C321.344 236.864 315.861 239.439 311.485 243.436C306.509 247.981 304.004 253.824 301.549 259.959C300.387 262.862 298.661 265.41 295.97 267.079C293.273 268.752 289.991 269.392 286.909 269.923C279.711 271.162 271.907 270.751 265.213 274.066C258.444 277.417 255.011 284.509 255.507 291.921C255.982 299.022 260.067 305.16 265.037 310.009C266.8 311.729 268.713 313.291 270.716 314.731C270.884 314.801 271.048 314.88 271.216 314.95C271.346 315.003 271.476 315.056 271.606 315.109C271.959 315.252 272.314 315.393 272.669 315.531C273.381 315.808 274.096 316.075 274.815 316.333C275.713 316.655 276.617 316.963 277.525 317.257C277.767 317.336 278.009 317.413 278.252 317.489L278.335 317.515C282.162 318.714 286.072 319.663 290.033 320.4C287.756 318.741 285.65 316.838 283.78 314.652C280.99 311.393 278.756 307.536 278.491 303.162C278.217 298.627 280.18 294.382 283.387 291.232C290.12 284.62 300.711 286.835 307.988 281.37C314.037 276.827 315.699 268.594 319.326 262.332C324.294 253.755 333.322 249.081 342.934 247.687C351.838 246.395 360.991 247.4 369.185 251.195C377.098 254.859 384.463 260.885 389.489 268.027C393.935 274.344 396.103 281.969 394.908 289.66C394.584 291.747 394.051 293.768 393.348 295.723C395.457 294.31 397.524 292.783 399.425 291.118C399.427 291.116 399.43 291.113 399.433 291.111C399.532 291.024 399.631 290.936 399.73 290.848C399.738 290.841 399.747 290.833 399.755 290.826C399.849 290.742 399.941 290.659 400.034 290.574C400.044 290.565 400.055 290.555 400.066 290.545C400.366 290.271 400.662 289.994 400.953 289.712L401.009 289.658C401.085 289.584 401.16 289.51 401.236 289.435C401.259 289.412 401.282 289.389 401.305 289.366C401.378 289.294 401.45 289.221 401.522 289.149C401.543 289.128 401.564 289.107 401.584 289.086C401.671 288.998 401.757 288.91 401.842 288.821C401.847 288.817 401.852 288.812 401.856 288.807C401.951 288.708 402.046 288.609 402.14 288.51C402.14 288.51 402.14 288.509 402.14 288.509C402.227 288.416 402.314 288.323 402.4 288.229C402.425 288.202 402.449 288.175 402.474 288.148C402.536 288.08 402.598 288.012 402.659 287.944C402.689 287.911 402.718 287.878 402.748 287.844C402.804 287.781 402.86 287.718 402.916 287.654C402.947 287.618 402.978 287.583 403.01 287.547C403.063 287.485 403.117 287.423 403.17 287.36C403.2 287.325 403.231 287.289 403.261 287.254C403.342 287.158 403.423 287.062 403.503 286.965L403.506 286.961C403.683 286.746 403.858 286.529 404.028 286.309L404.038 286.297C404.205 286.081 404.37 285.863 404.53 285.643L404.548 285.618C404.706 285.402 404.86 285.183 405.01 284.963L405.035 284.926C405.184 284.708 405.328 284.488 405.469 284.266L405.494 284.227C405.634 284.006 405.769 283.783 405.901 283.558L405.929 283.511L406.114 283.187L406.121 283.175L406.307 282.836L406.336 282.783L406.511 282.449L406.513 282.445L406.687 282.098L406.712 282.046L406.876 281.701L406.877 281.7L407.034 281.352L407.065 281.283L407.207 280.951L407.213 280.937L407.356 280.584L407.381 280.52L407.512 280.177L407.517 280.162L407.644 279.807L407.67 279.732C407.752 279.494 407.829 279.254 407.902 279.011L407.924 278.937C407.996 278.695 408.063 278.45 408.126 278.204L408.146 278.122L408.231 277.769L408.235 277.75L408.316 277.378L408.333 277.294C408.383 277.045 408.428 276.794 408.469 276.542L408.484 276.447L408.539 276.072L408.539 276.069C408.557 275.941 408.572 275.812 408.587 275.683L408.597 275.591L408.635 275.22L408.637 275.196C408.639 275.168 408.641 275.14 408.643 275.112C408.572 275.94 408.448 276.745 408.278 277.531Z" fill="var(--fill-0, #E68A37)"/>
<path id="Vector_16" d="M352.352 263.292C344.4 264.871 334.772 269.288 329.984 276.007C325.722 281.989 322.503 289.647 316.142 293.76C311.516 296.752 305.712 297.383 300.92 300.103C300.239 300.49 299.575 300.926 298.961 301.419C297.891 302.277 296.975 303.306 296.392 304.539C291.926 313.982 310.133 316.22 315.731 316.639C329.898 317.699 344.26 315.271 357.476 310.06C362.799 307.96 368.006 305.376 372.356 301.658C376.706 297.94 380.169 292.991 381.323 287.387C382.376 282.275 381.414 276.776 378.69 272.325C373.299 263.52 361.911 261.395 352.352 263.292Z" fill="var(--fill-0, #F7AD60)"/>
<path id="Vector_17" d="M437.919 222.931L411.64 213.223C411.592 213.372 411.544 213.522 411.494 213.671C411.269 214.344 411.023 215.006 410.734 215.649C410.432 216.323 410.085 216.972 409.697 217.597L409.46 217.968C409.346 218.142 409.227 218.313 409.107 218.483C408.588 219.215 408.014 219.91 407.393 220.566C407.244 220.724 407.092 220.881 406.937 221.035L406.933 221.04L406.924 221.048C406.52 221.449 406.098 221.834 405.662 222.203C405.533 222.313 405.402 222.422 405.269 222.53C404.805 222.906 404.325 223.265 403.833 223.607C403.71 223.693 403.586 223.778 403.461 223.861C403.212 224.027 402.959 224.19 402.705 224.348C402.45 224.506 402.192 224.66 401.932 224.81C401.542 225.034 401.147 225.248 400.747 225.453C400.581 225.538 400.414 225.621 400.246 225.703C399.743 225.95 399.233 226.182 398.718 226.402C398.581 226.461 398.443 226.519 398.305 226.576C398.128 226.649 397.951 226.72 397.772 226.79C397.571 226.869 397.37 226.946 397.167 227.022L396.899 227.122C396.718 227.187 396.538 227.252 396.356 227.316C396.024 227.432 395.691 227.545 395.355 227.654C395.07 227.746 394.783 227.835 394.496 227.922C394.027 228.064 393.554 228.199 393.08 228.328C392.754 228.417 392.428 228.503 392.101 228.586C391.774 228.67 391.446 228.751 391.117 228.829C390.902 228.881 390.687 228.931 390.471 228.981C390.096 229.067 389.721 229.15 389.344 229.232L389.154 229.273C388.744 229.36 388.333 229.446 387.922 229.529C387.627 229.588 387.332 229.647 387.037 229.705C384.733 230.155 382.432 230.549 380.131 230.887C380.177 230.917 380.224 230.947 380.27 230.978C380.52 231.143 380.767 231.313 381.011 231.488L381.375 231.752C381.616 231.931 381.853 232.113 382.087 232.3C382.321 232.487 382.552 232.678 382.778 232.873C383.005 233.068 383.227 233.267 383.445 233.471L383.769 233.779C383.982 233.986 384.191 234.198 384.396 234.413C384.702 234.736 384.998 235.068 385.281 235.409C386.415 236.772 387.357 238.278 388.033 239.916C388.228 240.389 388.401 240.873 388.56 241.362L388.676 241.731C388.741 241.943 388.804 242.155 388.865 242.369L436.371 226.433C436.75 225.233 437.26 224.058 437.919 222.931Z" fill="var(--fill-0, #36363D)"/>
<path id="Vector_18" d="M492.656 199.663C487.247 191.904 476.571 189.997 468.81 195.405C467.511 196.31 466.386 197.368 465.422 198.53L426.647 196.092C425.72 197.042 424.697 197.901 423.59 198.647C423.155 198.94 422.707 199.218 422.252 199.489C421.615 199.867 420.965 200.23 420.32 200.597C419.825 200.88 419.332 201.166 418.851 201.463C421.926 200.925 425.25 201.231 428.219 201.553C434.672 202.253 440.976 203.893 447.228 205.582C450.127 206.365 452.922 207.49 455.827 208.24C458.824 209.014 461.709 208.906 464.68 208.085C469.359 206.792 474.762 203.172 479.724 205.13C484.028 206.829 485.602 211.774 483.406 215.785C482.267 217.867 480.468 219.491 480.392 222.017C480.316 224.494 481.818 226.686 482.189 229.089C483.122 235.135 477.262 240.343 471.954 241.768L471.609 241.854C470.955 240.2 470.039 238.635 468.87 237.228C471.419 229.948 468.782 221.603 462.023 217.218C457.618 214.36 452.394 213.795 447.734 215.206C448.495 215.281 449.258 215.431 450.014 215.659C455.277 217.243 460.977 222.625 459.861 228.641C459.418 231.032 457.851 233.177 457.851 235.656C457.852 238.183 459.6 239.86 460.676 241.976C462.75 246.052 461.027 250.947 456.673 252.515C451.655 254.322 446.363 250.54 441.726 249.106C438.781 248.196 435.9 248.001 432.881 248.684C429.955 249.346 427.127 250.385 424.206 251.081C417.905 252.58 411.555 254.028 405.083 254.534C402.107 254.766 398.775 254.971 395.717 254.341L396.083 254.579C396.26 254.693 396.439 254.805 396.619 254.917C396.798 255.029 396.979 255.14 397.16 255.251C398.245 255.914 399.346 256.564 400.369 257.299C401.453 258.078 402.449 258.968 403.347 259.945L442.178 258.68C443.106 259.87 444.199 260.962 445.47 261.906C449.163 264.649 453.598 265.683 457.829 265.149C462.296 264.584 466.536 262.27 469.433 258.371C472.894 253.713 473.634 247.877 471.936 242.759C475.946 243.518 480.24 242.856 484.003 240.573C490.893 236.394 493.781 228.133 491.453 220.779C496.56 214.995 497.263 206.273 492.656 199.663Z" fill="var(--fill-0, #F4D5BE)"/>
<path id="Vector_19" d="M295.752 137.309C293.699 138.691 291.734 140.199 289.914 141.871C288.38 143.28 286.922 144.807 285.615 146.445C289.092 147.767 292.507 149.587 295.217 151.649C295.234 151.663 295.252 151.677 295.27 151.69C295.393 151.785 295.516 151.88 295.637 151.975L295.641 151.979C295.883 152.171 296.118 152.365 296.348 152.56L296.387 152.593L296.569 152.752L296.667 152.838L296.825 152.979L296.948 153.091L297.134 153.264L297.312 153.433L297.42 153.538L297.574 153.69L297.664 153.781L297.831 153.952L297.911 154.035L298.135 154.275L298.193 154.34L298.36 154.528L298.437 154.617L298.584 154.79L298.655 154.874L298.857 155.125C299.624 156.1 300.17 157.238 300.868 158.259C301.1 158.599 301.349 158.926 301.629 159.231C302.177 159.825 302.793 160.293 303.461 160.666L303.663 160.775C304.002 160.952 304.353 161.106 304.715 161.242L304.934 161.32C305.081 161.372 305.229 161.42 305.378 161.466L305.604 161.532C305.755 161.575 305.907 161.616 306.061 161.654L306.293 161.71C306.603 161.782 306.918 161.846 307.237 161.904C307.705 161.988 308.181 162.058 308.662 162.122C308.328 161.832 308.003 161.523 307.688 161.195C304.577 157.949 302.743 153.647 303.155 149.122C303.552 144.758 305.901 140.971 308.788 137.796C310.723 135.668 312.886 133.83 315.212 132.24C311.236 132.856 307.304 133.685 303.448 134.766L303.331 134.799C303.092 134.866 302.854 134.934 302.615 135.003C301.515 135.323 300.421 135.663 299.334 136.024C298.971 136.145 298.61 136.268 298.25 136.393C298.069 136.455 297.89 136.518 297.709 136.582C297.17 136.773 296.633 136.97 296.098 137.172C295.742 137.307 295.387 137.444 295.033 137.583C293.439 138.211 291.869 138.887 290.33 139.614C289.988 139.776 289.648 139.94 289.309 140.106C286.386 141.544 283.584 143.168 280.957 144.99L280.959 144.99C285.467 141.867 290.487 139.325 295.752 137.309Z" fill="var(--fill-0, #E68A37)"/>
<path id="Vector_20" d="M289.914 141.871C291.734 140.199 293.699 138.691 295.752 137.309C290.487 139.325 285.467 141.867 280.959 144.99C282.484 145.36 284.055 145.852 285.615 146.445C286.923 144.806 288.38 143.279 289.914 141.871Z" fill="var(--fill-0, #E2812F)"/>
<path id="Vector_21" d="M371.076 218.232C370.566 218.411 370.16 218.715 370.062 219.082C369.885 219.742 370.038 220.357 370.948 220.66C371.897 220.976 373.087 221.245 373.626 220.465C373.993 219.934 374.029 219.186 373.527 218.631C372.943 217.987 371.849 217.961 371.076 218.232Z" fill="var(--fill-0, #BC5917)"/>
<path id="Vector_22" d="M364.881 216.802C364.408 216.9 364.014 217.121 363.884 217.434C363.65 217.997 363.712 218.559 364.482 218.935C365.284 219.326 366.305 219.704 366.874 219.077C367.261 218.651 367.381 217.993 367.002 217.444C366.561 216.805 365.597 216.653 364.881 216.802Z" fill="var(--fill-0, #BC5917)"/>
<path id="Vector_23" d="M370.725 214.319C370.92 214.034 370.937 213.633 370.667 213.337C370.352 212.994 369.766 212.983 369.353 213.13C369.08 213.227 368.863 213.391 368.811 213.588C368.718 213.942 368.802 214.271 369.29 214.431C369.799 214.598 370.438 214.739 370.725 214.319Z" fill="var(--fill-0, #BC5917)"/>
<path id="Vector_24" d="M319.035 160.827C319.623 160.563 320.043 159.941 319.9 159.207C319.735 158.353 318.813 157.764 318.011 157.596C317.482 157.485 316.978 157.534 316.703 157.797C316.211 158.27 316.022 158.875 316.643 159.606C317.291 160.368 318.17 161.215 319.035 160.827Z" fill="var(--fill-0, #BC5917)"/>
<path id="Vector_25" d="M313.454 153.163C312.998 153.002 312.547 152.986 312.273 153.187C311.781 153.547 311.543 154.06 312.007 154.78C312.489 155.53 313.167 156.383 313.979 156.141C314.53 155.977 314.974 155.477 314.935 154.81C314.889 154.036 314.143 153.407 313.454 153.163Z" fill="var(--fill-0, #BC5917)"/>
<path id="Vector_26" d="M319.738 154.067C320.053 153.925 320.276 153.59 320.198 153.197C320.107 152.74 319.612 152.427 319.182 152.339C318.897 152.281 318.628 152.308 318.481 152.45C318.219 152.704 318.119 153.029 318.454 153.419C318.802 153.826 319.275 154.278 319.738 154.067Z" fill="var(--fill-0, #BC5917)"/>
<path id="Vector_27" d="M275.658 169.309C276.273 170.322 277.294 171.113 278.429 171.453C280.046 171.937 281.823 171.569 283.444 172.039C287.677 173.267 288.853 179.352 293.015 180.8C294.889 181.452 296.999 180.999 298.895 181.585C301.739 182.465 303.382 185.41 304.355 188.222C305.327 191.035 305.989 194.095 307.992 196.296C309.382 197.826 311.298 198.783 313.256 199.448C315.008 200.044 316.956 200.425 318.687 199.768C321.307 198.774 322.134 195.422 319.588 193.776C318.582 193.126 317.303 192.71 316.283 192.046C314.384 190.812 313.333 188.616 312.728 186.434C312.124 184.252 311.868 181.973 311.086 179.849C310.302 177.724 308.85 175.683 306.706 174.953C303.712 173.933 300.297 175.719 297.305 174.69C294.5 173.725 293.077 170.694 291.008 168.567C288.967 166.469 286.11 165.185 283.185 165.053C280.842 164.946 278.483 165.579 276.49 166.81C275.24 167.582 274.844 167.968 275.658 169.309Z" fill="var(--fill-0, #BD4A25)"/>
<path id="Vector_28" d="M290.782 190.258L291.687 192.72L292.62 191.814L292.179 189.931L290.782 190.258Z" fill="var(--fill-0, #831D1E)"/>
<path id="Vector_29" d="M248.309 187.747L249.792 191.697L250.993 190.268L250.204 187.252L248.309 187.747Z" fill="var(--fill-0, #831D1E)"/>
<path id="Vector_30" d="M228.56 160.843L226.234 162.744L227.473 164.26L230.33 161.364L228.56 160.843Z" fill="var(--fill-0, #831D1E)"/>
<path id="Vector_31" d="M179.058 202.884L179.977 205.335L180.722 204.448L180.233 202.577L179.058 202.884Z" fill="var(--fill-0, #831D1E)"/>
<path id="Vector_32" d="M224.509 194.998L225.592 195.903L227.02 193.704L225.749 193.514L224.509 194.998Z" fill="var(--fill-0, #831D1E)"/>
<path id="Vector_33" d="M240.113 202.389L239.38 204.17L242.832 205.127L242.557 203.393L240.113 202.389Z" fill="var(--fill-0, #831D1E)"/>
<path id="Vector_34" d="M193.846 191.326L193.113 193.107L196.565 194.064L196.289 192.33L193.846 191.326Z" fill="var(--fill-0, #831D1E)"/>
<path id="Vector_35" d="M277.555 154.726L276.197 153.349L275.192 154.339L277.244 155.973L277.555 154.726Z" fill="var(--fill-0, #831D1E)"/>
<path id="Vector_36" d="M275.988 181.494L277.026 179.676L273.439 178.164L273.495 180.071L275.988 181.494Z" fill="var(--fill-0, #831D1E)"/>
<path id="Vector_37" d="M166.03 190.11L167.068 188.292L163.481 186.781L163.537 188.687L166.03 190.11Z" fill="var(--fill-0, #831D1E)"/>
<path id="Vector_38" d="M270.198 158.838L268.698 157.073L265.253 157.616L265.65 160.128L270.198 158.838Z" fill="var(--fill-0, #831D1E)"/>
<path id="Vector_39" d="M151.27 201.144L154.921 200.109L153.717 198.692L150.952 199.128L151.27 201.144Z" fill="var(--fill-0, #831D1E)"/>
<path id="Vector_40" d="M205.039 176.99L206.893 178.321L210.055 176.984L209.08 174.678L205.039 176.99Z" fill="var(--fill-0, #831D1E)"/>
<path id="Vector_41" d="M216.281 217.343L218.134 218.674L221.297 217.337L220.321 215.031L216.281 217.343Z" fill="var(--fill-0, #831D1E)"/>
<path id="Vector_42" d="M265.297 216.852C267.06 216.852 268.49 215.981 268.49 214.906C268.49 213.83 267.06 212.959 265.297 212.959C263.533 212.959 262.103 213.83 262.103 214.906C262.103 215.981 263.533 216.852 265.297 216.852Z" fill="var(--fill-0, #F8E8DA)"/>
<path id="Vector_43" d="M201.972 223.037C202.999 223.037 203.831 222.529 203.831 221.903C203.831 221.277 202.999 220.769 201.972 220.769C200.945 220.769 200.112 221.277 200.112 221.903C200.112 222.529 200.945 223.037 201.972 223.037Z" fill="var(--fill-0, #F8E8DA)"/>
<path id="Vector_44" d="M208.915 258.208C211.017 258.208 212.72 257.169 212.72 255.888C212.72 254.606 211.017 253.568 208.915 253.568C206.813 253.568 205.109 254.606 205.109 255.888C205.109 257.169 206.813 258.208 208.915 258.208Z" fill="var(--fill-0, #F8E8DA)"/>
<path id="Vector_45" d="M203.31 261.966C204.535 261.966 205.527 261.361 205.527 260.615C205.527 259.869 204.535 259.264 203.31 259.264C202.086 259.264 201.094 259.869 201.094 260.615C201.094 261.361 202.086 261.966 203.31 261.966Z" fill="var(--fill-0, #F8E8DA)"/>
<path id="Vector_46" d="M143.71 211.703C142.284 211.703 141.128 212.407 141.128 213.276C141.128 214.145 142.284 214.85 143.71 214.85C145.135 214.85 146.291 214.145 146.291 213.276C146.291 212.407 145.135 211.703 143.71 211.703Z" fill="var(--fill-0, #F8E8DA)"/>
<path id="Vector_47" d="M139.909 215.566C139.079 215.566 138.405 215.976 138.405 216.482C138.405 216.988 139.079 217.399 139.909 217.399C140.739 217.399 141.412 216.988 141.412 216.482C141.412 215.976 140.739 215.566 139.909 215.566Z" fill="var(--fill-0, #F8E8DA)"/>
<path id="Vector_48" d="M159.101 267.115C158.27 267.115 157.597 267.526 157.597 268.032C157.597 268.538 158.27 268.948 159.101 268.948C159.931 268.948 160.604 268.538 160.604 268.032C160.604 267.526 159.931 267.115 159.101 267.115Z" fill="var(--fill-0, #F8E8DA)"/>
<path id="Vector_49" d="M279.044 255.104C277.877 255.454 277.66 256.229 277.858 257.072C277.968 257.543 278.472 257.943 279.113 258.19C280.084 258.564 281.472 258.573 282.238 257.777C282.896 257.094 282.88 256.142 282.435 255.455C281.781 254.444 280.26 254.739 279.044 255.104Z" fill="var(--fill-0, #BC5917)"/>
<path id="Vector_50" d="M270.772 257.046C269.781 257.492 269.68 258.204 269.955 258.926C270.108 259.329 270.601 259.624 271.197 259.767C272.099 259.983 273.329 259.827 273.912 259.034C274.414 258.352 274.287 257.512 273.813 256.956C273.115 256.139 271.804 256.58 270.772 257.046Z" fill="var(--fill-0, #BC5917)"/>
<path id="Vector_51" d="M276.7 262.945C276.074 263.129 275.956 263.544 276.06 263.996C276.118 264.248 276.387 264.464 276.73 264.598C277.249 264.801 277.992 264.809 278.405 264.385C278.759 264.021 278.753 263.511 278.516 263.141C278.169 262.598 277.353 262.752 276.7 262.945Z" fill="var(--fill-0, #BC5917)"/>
<path id="Vector_52" d="M348.472 236.135C349.236 236.43 350.33 236.437 350.933 235.81C351.452 235.272 351.438 234.522 351.088 233.981C350.573 233.184 349.375 233.417 348.417 233.704C347.498 233.98 347.326 234.591 347.483 235.255C347.57 235.625 347.967 235.94 348.472 236.135Z" fill="var(--fill-0, #BC5917)"/>
<path id="Vector_53" d="M342.236 237.377C342.947 237.548 343.915 237.425 344.375 236.8C344.77 236.262 344.67 235.601 344.296 235.163C343.746 234.52 342.714 234.867 341.901 235.233C341.12 235.585 341.041 236.146 341.258 236.715C341.378 237.033 341.766 237.265 342.236 237.377Z" fill="var(--fill-0, #BC5917)"/>
<path id="Vector_54" d="M346.594 241.183C347.003 241.343 347.589 241.349 347.914 241.015C348.193 240.728 348.187 240.326 348.001 240.035C347.727 239.607 347.085 239.729 346.571 239.88C346.078 240.026 345.985 240.353 346.066 240.709C346.113 240.907 346.324 241.077 346.594 241.183Z" fill="var(--fill-0, #BC5917)"/>
<path id="Vector_55" d="M295.534 293.587C295.699 292.858 295.299 292.223 294.718 291.942C293.865 291.528 292.961 292.348 292.291 293.09C291.647 293.801 291.817 294.412 292.295 294.9C292.562 295.171 293.065 295.235 293.597 295.14C294.404 294.996 295.343 294.435 295.534 293.587Z" fill="var(--fill-0, #BC5917)"/>
<path id="Vector_56" d="M289.523 296.472C288.719 296.207 288.016 297.038 287.511 297.773C287.026 298.479 287.248 298.999 287.728 299.374C287.996 299.582 288.448 299.58 288.908 299.433C289.604 299.211 290.369 298.604 290.438 297.831C290.498 297.167 290.069 296.653 289.523 296.472Z" fill="var(--fill-0, #BC5917)"/>
<path id="Vector_57" d="M295.217 298.719C294.761 298.495 294.274 298.932 293.913 299.328C293.567 299.707 293.656 300.035 293.911 300.297C294.053 300.444 294.322 300.48 294.608 300.43C295.041 300.355 295.545 300.057 295.65 299.603C295.74 299.212 295.527 298.872 295.217 298.719Z" fill="var(--fill-0, #BC5917)"/>
<path id="Vector_58" d="M168.491 245.553C167.335 245.446 166.294 246.291 166.18 247.455C166.099 248.288 165.558 249.123 164.732 249.689C163.906 250.256 162.929 250.461 162.124 250.235C161.317 250.01 160.589 249.331 160.175 248.42C159.813 247.62 159.744 246.757 159.976 246.048C160.073 245.852 160.153 245.647 160.215 245.436C160.524 244.378 159.969 243.26 158.94 242.867C157.905 242.47 156.75 242.935 156.275 243.929L156.205 244.078L156.03 244.08C155.707 243.918 155.44 243.34 155.41 242.737C155.364 241.842 155.687 240.795 155.999 239.783C156.343 238.668 155.72 237.485 154.606 237.139C153.567 236.814 152.468 237.333 152.04 238.305C151.883 238.318 151.66 238.266 151.596 238.201C151.308 237.689 151.683 236.695 152.385 236.117C153.286 235.373 153.413 234.038 152.669 233.138C151.924 232.236 150.591 232.108 149.69 232.853C147.716 234.483 146.42 237.639 147.909 240.28C148.567 241.446 149.794 242.244 151.173 242.471C151.171 242.631 151.174 242.792 151.183 242.954C151.295 245.122 152.422 247.001 154.124 247.859C154.623 248.111 155.172 248.26 155.732 248.306C155.848 248.935 156.045 249.561 156.321 250.169C157.259 252.237 158.961 253.747 160.987 254.311C161.583 254.477 162.197 254.559 162.814 254.559C164.298 254.559 165.803 254.087 167.125 253.18C168.999 251.896 170.19 249.958 170.394 247.864C170.507 246.701 169.655 245.666 168.491 245.553Z" fill="var(--fill-0, #F8E8DA)"/>
<path id="Vector_59" d="M241.499 233.824C241.587 233.958 241.68 234.089 241.778 234.219C243.085 235.952 245.072 236.88 246.964 236.633C247.518 236.562 248.056 236.379 248.545 236.103C248.994 236.558 249.507 236.967 250.076 237.316C251.334 238.087 252.726 238.483 254.094 238.483C254.833 238.483 255.564 238.368 256.264 238.134C258.26 237.466 259.882 235.871 260.714 233.758C261.546 231.645 261.447 229.373 260.442 227.524C259.884 226.498 258.601 226.118 257.572 226.676C256.545 227.233 256.165 228.518 256.723 229.545C257.123 230.281 257.143 231.276 256.775 232.208C256.409 233.14 255.715 233.855 254.921 234.121C254.128 234.384 253.144 234.232 252.289 233.708C251.541 233.25 251 232.573 250.795 231.855C250.767 231.639 250.718 231.425 250.651 231.216C250.315 230.166 249.229 229.555 248.155 229.801C247.082 230.051 246.38 231.083 246.542 232.173L246.568 232.335L246.424 232.436C246.056 232.484 245.521 232.154 245.158 231.671C244.617 230.954 244.299 229.907 243.99 228.894C243.651 227.778 242.473 227.148 241.354 227.484C240.313 227.798 239.692 228.843 239.883 229.888L239.458 230.05C238.932 229.788 238.686 228.754 238.942 227.882C239.272 226.761 238.63 225.585 237.508 225.256C236.387 224.928 235.211 225.568 234.881 226.689C234.159 229.145 234.857 232.484 237.569 233.837C238.766 234.435 240.23 234.409 241.499 233.824Z" fill="var(--fill-0, #F8E8DA)"/>
<path id="Vector_60" d="M224.567 280.079C223.54 280.637 223.16 281.921 223.718 282.948C224.118 283.683 224.138 284.678 223.771 285.61C223.403 286.542 222.71 287.257 221.916 287.523C221.125 287.788 220.138 287.634 219.284 287.111C218.536 286.653 217.995 285.976 217.79 285.258C217.761 285.041 217.713 284.827 217.645 284.617C217.308 283.567 216.221 282.958 215.149 283.204C214.076 283.454 213.375 284.487 213.537 285.576L213.563 285.738L213.419 285.839C213.053 285.885 212.517 285.556 212.152 285.072C211.612 284.357 211.293 283.31 210.985 282.297C210.646 281.181 209.468 280.554 208.349 280.887C207.308 281.201 206.687 282.246 206.878 283.291L206.452 283.453C205.926 283.191 205.68 282.158 205.937 281.285C206.267 280.163 205.625 278.988 204.503 278.658C203.382 278.328 202.205 278.971 201.876 280.092C201.154 282.548 201.851 285.887 204.564 287.241C205.761 287.837 207.225 287.811 208.494 287.227C208.582 287.36 208.675 287.491 208.773 287.621C210.081 289.355 212.07 290.278 213.959 290.037C214.513 289.966 215.051 289.782 215.54 289.506C215.989 289.961 216.502 290.37 217.072 290.718C218.329 291.49 219.721 291.885 221.09 291.885C221.827 291.885 222.559 291.77 223.259 291.536C225.255 290.869 226.877 289.274 227.709 287.161C228.541 285.048 228.442 282.776 227.437 280.927C226.878 279.9 225.594 279.52 224.567 280.079Z" fill="var(--fill-0, #F8E8DA)"/>
<path id="Vector_61" d="M251.003 169.875C251.233 169.806 251.449 169.744 251.647 169.693C252.179 169.557 251.66 168.531 251.383 168.314C251.095 168.088 250.442 168.19 249.03 168.722C249.917 169.251 250.665 169.671 250.71 169.7L251.003 169.875Z" fill="var(--fill-0, #689E2F)"/>
<path id="Vector_62" d="M229.129 163.989C227.959 164.267 227.247 165.381 227.666 166.277C228.125 167.258 229.537 167.707 230.547 168.393C231.557 169.078 231.997 170.603 230.756 170.994C230.014 171.228 229.205 170.855 228.548 170.499C227.361 169.856 226.174 169.212 224.987 168.569C224.267 168.179 223.507 167.776 222.635 167.703C221.764 167.628 220.762 168.009 220.602 168.682C220.386 169.59 221.702 170.244 222.843 170.49C223.985 170.735 225.359 170.977 225.782 171.841C225.668 172.859 224.286 173.528 222.983 173.635C221.68 173.743 220.378 173.462 219.069 173.425C217.759 173.388 216.28 173.685 215.639 174.576C215.498 174.772 215.406 175.013 215.521 175.218C215.607 175.369 215.791 175.474 215.982 175.546C217.004 175.936 218.206 175.601 219.334 175.479C220.461 175.358 221.93 175.684 222.045 176.567C221.533 177.701 218.855 177.913 219.088 179.101C219.139 179.358 219.342 179.584 219.586 179.762C220.75 180.612 222.697 180.407 223.999 179.689C225.301 178.972 226.146 177.87 227.087 176.866C228.186 175.691 229.527 174.58 231.27 174.064C233.013 173.549 235.228 173.783 236.371 174.932C236.082 175.636 235.136 176.036 234.232 176.257C233.328 176.478 232.35 176.604 231.6 177.055C230.85 177.506 230.461 178.444 231.107 178.985C231.357 179.195 231.711 179.305 232.053 179.409C233.064 179.717 234.075 180.025 235.085 180.332C234.403 181.186 233.721 182.039 233.039 182.892C232.86 183.114 232.679 183.345 232.626 183.604C232.456 184.449 233.798 185.08 234.871 184.906C235.945 184.732 236.756 184.07 237.545 183.476C238.334 182.882 239.285 182.291 240.381 182.325C241.357 182.355 242.177 182.873 243.05 183.217C243.922 183.562 245.142 183.685 245.747 183.085C245.991 182.843 246.08 182.524 246.093 182.216C246.21 179.47 241.184 177.735 241.611 175.008C241.817 173.683 243.316 172.701 244.874 172.151C244.983 172.113 247.444 171.094 249.599 170.339C249.158 170.119 248.707 169.917 248.307 169.702C248.043 169.56 247.8 169.429 247.577 169.305C247.202 169.462 246.793 169.638 246.346 169.831C244.885 170.465 243.354 171.449 241.598 171.609C241.056 171.659 240.62 171.676 240.098 171.549C239.319 171.359 239.061 170.561 239.278 169.947C239.495 169.334 240.031 168.823 240.37 168.244C241.508 166.301 239.852 163.699 237.181 163.232C236.043 163.033 234.444 163.568 234.716 164.452C234.979 165.307 236.742 165.452 236.974 166.312C237.159 167 236.229 167.527 235.431 167.853C234.325 167.158 233.687 166.117 232.794 165.255C231.902 164.394 230.487 163.665 229.129 163.989Z" fill="var(--fill-0, #689E2F)"/>
<path id="Vector_63" d="M246.797 160.243C247.341 161.135 246.878 162.287 246.154 163.194C246.086 163.28 244.161 166.041 243.045 167.18C242.772 167.458 243.632 167.9 243.922 167.933C244.37 167.984 244.971 167.287 246.392 165.16C247.01 164.235 247.493 163.071 248.544 162.331C248.868 162.102 249.141 161.933 249.542 161.82C250.141 161.653 250.716 162.05 250.89 162.507C251.064 162.964 250.98 163.474 251.058 163.955C251.319 165.566 253.719 166.564 255.68 165.875C256.515 165.582 257.273 164.67 256.644 164.224C256.037 163.794 254.826 164.348 254.237 163.903C253.765 163.547 254.095 162.884 254.443 162.392C255.512 162.416 256.455 162.824 257.472 163.028C258.489 163.232 259.774 163.164 260.484 162.469C261.096 161.871 260.985 160.925 260.256 160.526C259.458 160.089 258.318 160.328 257.316 160.275C256.314 160.222 255.249 159.444 255.849 158.75C256.208 158.335 256.92 158.269 257.526 158.248C258.621 158.211 259.716 158.174 260.811 158.136C261.474 158.113 262.17 158.084 262.77 157.811C263.37 157.538 263.821 156.938 263.58 156.466C263.254 155.827 262.072 155.905 261.21 156.171C260.348 156.436 259.338 156.789 258.623 156.412C258.175 155.744 258.724 154.827 259.509 154.285C260.295 153.743 261.277 153.44 262.141 152.985C263.004 152.529 263.805 151.807 263.763 151.024C263.753 150.852 263.69 150.67 263.51 150.586C263.378 150.524 263.205 150.527 263.045 150.552C262.187 150.685 261.583 151.331 260.918 151.817C260.253 152.303 259.139 152.64 258.613 152.138C258.363 151.253 259.981 150.144 259.223 149.498C259.058 149.358 258.812 149.293 258.564 149.272C257.378 149.174 256.227 150.012 255.755 150.929C255.283 151.846 255.302 152.833 255.209 153.795C255.101 154.92 254.806 156.094 253.946 157.048C253.086 158.002 251.538 158.666 250.213 158.376C250.039 157.837 250.444 157.245 250.914 156.779C251.384 156.313 251.949 155.879 252.202 155.327C252.455 154.775 252.225 154.056 251.532 153.958C251.264 153.921 250.979 153.982 250.705 154.043C249.896 154.223 249.087 154.402 248.277 154.582C248.281 153.808 248.284 153.033 248.287 152.259C248.288 152.057 248.287 151.848 248.189 151.67C247.866 151.087 246.677 151.189 246.074 151.688C245.472 152.187 245.287 152.891 245.083 153.545C244.878 154.198 244.567 154.909 243.843 155.289C243.198 155.627 242.404 155.608 241.665 155.714C240.927 155.82 240.077 156.19 239.994 156.78C239.961 157.019 240.066 157.247 240.216 157.442C241.547 159.175 245.676 158.409 246.797 160.243Z" fill="var(--fill-0, #689E2F)"/>
<path id="Vector_64" d="M249.599 170.339C250.258 170.666 250.896 171.032 251.314 171.533C251.529 171.791 251.684 172.007 251.746 172.312C251.84 172.767 251.259 173.155 250.679 173.243C250.099 173.33 249.501 173.223 248.91 173.238C246.929 173.287 245.298 174.963 245.77 176.465C245.971 177.105 246.929 177.743 247.577 177.32C248.203 176.912 247.757 175.973 248.397 175.579C248.91 175.264 249.647 175.565 250.175 175.864C249.953 176.647 249.292 177.305 248.863 178.034C248.434 178.764 248.284 179.714 248.99 180.298C249.597 180.8 250.753 180.802 251.363 180.302C252.032 179.754 251.951 178.895 252.195 178.163C252.44 177.431 253.567 176.717 254.291 177.22C254.724 177.52 254.675 178.049 254.59 178.497C254.437 179.305 254.284 180.113 254.131 180.921C254.039 181.411 253.948 181.925 254.167 182.39C254.386 182.855 255.025 183.239 255.636 183.104C256.461 182.921 256.581 182.045 256.418 181.388C256.255 180.731 256.014 179.957 256.595 179.465C257.479 179.195 258.48 179.679 258.989 180.304C259.497 180.93 259.683 181.679 260.074 182.353C260.464 183.028 261.187 183.681 262.135 183.719C262.342 183.727 262.572 183.697 262.706 183.572L262.831 183.233C262.826 182.59 262.16 182.09 261.696 181.558C261.233 181.027 261.031 180.178 261.728 179.836C262.836 179.73 263.874 181.018 264.787 180.517C264.984 180.409 265.107 180.233 265.176 180.053C265.508 179.19 264.711 178.27 263.695 177.842C262.679 177.414 261.491 177.34 260.353 177.187C259.023 177.008 257.667 176.688 256.678 175.971C255.688 175.255 255.17 174.058 255.758 173.11C256.436 173.03 257.073 173.38 257.548 173.766C258.023 174.153 258.442 174.607 259.059 174.841C259.676 175.076 260.58 174.971 260.822 174.47C260.916 174.276 260.894 174.061 260.87 173.855C260.801 173.244 260.732 172.633 260.662 172.023L263.449 172.235C263.692 172.254 263.942 172.272 264.174 172.215C264.932 172.029 265.025 171.147 264.534 170.659C264.044 170.172 263.233 169.974 262.485 169.766C261.737 169.558 260.94 169.266 260.615 168.701C260.326 168.197 260.493 167.615 260.498 167.063C260.504 166.51 260.214 165.853 259.52 165.74C259.24 165.695 258.947 165.752 258.686 165.845C256.366 166.669 256.539 169.772 254.135 170.433C253.082 170.723 251.923 170.392 251.002 169.876L250.71 169.7C250.665 169.672 249.916 169.251 249.029 168.722C248.124 168.182 247.075 167.528 246.487 167.063C246.202 166.838 245.516 167.431 245.424 167.641C245.299 167.929 245.856 168.356 247.576 169.305C247.8 169.428 248.042 169.56 248.306 169.702C248.707 169.916 249.158 170.119 249.599 170.339Z" fill="var(--fill-0, #52802F)"/>
</g>
</svg>
