<svg preserveAspectRatio="none" width="100%" height="100%" overflow="visible" style="display: block;" viewBox="0 0 500 400" fill="none" xmlns="http://www.w3.org/2000/svg">
<g id="136470697_c7932d42-feb6-4e0d-918d-10924f593644 1">
<path id="Vector" d="M249.969 93.0421C139.526 93.0421 49.9939 138.043 49.9939 193.555C49.9939 228.54 85.5563 259.351 139.502 277.353C171.153 287.915 209.131 294.068 249.969 294.068C290.807 294.068 328.786 287.915 360.436 277.353C414.382 259.351 449.945 228.54 449.945 193.555C449.945 138.043 360.413 93.0421 249.969 93.0421Z" fill="var(--fill-0, #FFF7EF)"/>
<path id="Vector_2" d="M249.969 99.6864C146.827 99.6864 63.2129 141.713 63.2129 193.555C63.2129 245.397 146.827 287.424 249.969 287.424C353.112 287.424 436.726 245.397 436.726 193.555C436.726 141.713 353.112 99.6864 249.969 99.6864Z" fill="var(--fill-0, #FCE5DF)"/>
<path id="Vector_3" d="M381.594 226.063C381.586 225.943 381.577 225.822 381.565 225.702C381.553 225.583 381.54 225.462 381.525 225.342C381.422 224.503 381.244 223.666 381.044 222.847C380.997 222.655 380.949 222.464 380.899 222.273L380.886 222.222L380.871 222.165C380.828 222.004 380.785 221.842 380.741 221.681L380.732 221.65L380.72 221.607C379.957 218.847 378.931 216.167 377.674 213.61C374.141 206.417 368.792 200.136 362.361 195.208L362.361 195.213C360.541 193.816 358.643 192.517 356.665 191.354V191.353C355.793 190.84 354.908 190.351 354.011 189.886C352.643 189.178 351.247 188.526 349.828 187.936C347.761 187.076 345.652 186.338 343.512 185.716C344.359 184.893 345.172 184.03 345.951 183.136C351.039 177.3 353.872 170.026 352.624 162.35C352.672 162.415 352.716 162.483 352.764 162.548C352.764 162.538 352.766 162.528 352.766 162.518C346.894 154.531 338.667 148.167 329.481 144.343C323.207 141.731 316.546 140.241 309.782 139.728V139.721C308.777 139.648 307.772 139.596 306.766 139.563C306.613 139.558 306.46 139.555 306.307 139.55C306.14 139.546 305.973 139.541 305.806 139.538C305.623 139.534 305.439 139.532 305.255 139.53C305.114 139.528 304.973 139.526 304.832 139.525C304.665 139.524 304.499 139.524 304.333 139.524C304.167 139.524 304.001 139.524 303.835 139.525C303.694 139.526 303.552 139.528 303.411 139.53C303.227 139.532 303.043 139.534 302.86 139.538C302.693 139.541 302.526 139.546 302.36 139.55C302.207 139.555 302.054 139.558 301.901 139.563C300.895 139.596 299.889 139.649 298.885 139.721V139.728C292.12 140.241 285.46 141.731 279.186 144.343C278.698 144.546 278.213 144.756 277.731 144.973C276.296 145.62 274.886 146.329 273.507 147.097C272.853 146.214 272.17 145.352 271.46 144.511C265.807 137.813 258.449 132.463 250.344 129.089C244.07 126.478 237.41 124.987 230.645 124.474V124.468C229.641 124.395 228.635 124.342 227.629 124.31C227.476 124.305 227.323 124.301 227.17 124.297C227.003 124.293 226.837 124.287 226.67 124.284C226.486 124.28 226.302 124.279 226.119 124.277C225.978 124.275 225.836 124.272 225.695 124.271C225.529 124.27 225.363 124.27 225.196 124.271C225.03 124.27 224.864 124.27 224.698 124.271C224.557 124.272 224.415 124.275 224.274 124.277C224.09 124.279 223.906 124.28 223.723 124.284C223.556 124.287 223.39 124.293 223.223 124.297C223.07 124.301 222.917 124.305 222.764 124.31C221.758 124.342 220.752 124.395 219.748 124.468V124.474C212.983 124.987 206.323 126.478 200.049 129.089C195.582 130.949 191.363 133.4 187.516 136.361C179.826 142.253 173.671 150.11 170.335 159.106C170.334 159.109 170.333 159.113 170.332 159.116C170.278 159.261 170.225 159.406 170.173 159.551C170.166 159.571 170.159 159.59 170.152 159.61C170.105 159.741 170.059 159.872 170.013 160.003C170.001 160.038 169.989 160.072 169.978 160.107C169.937 160.226 169.896 160.346 169.855 160.466C169.804 160.617 169.754 160.77 169.705 160.922L169.699 160.941C169.595 161.264 169.495 161.587 169.398 161.912L169.373 161.996C169.333 162.132 169.294 162.267 169.255 162.403L169.233 162.481L169.156 162.76L169.149 162.785L169.135 162.834C169.091 162.995 169.048 163.157 169.005 163.318L168.991 163.373L168.977 163.426C168.927 163.617 168.879 163.808 168.832 164C168.645 164.764 168.478 165.543 168.373 166.325C161.675 166.852 155.082 168.338 148.868 170.925C144.404 172.783 140.181 175.258 136.333 178.214L136.336 178.197C129.904 183.125 124.561 189.419 121.029 196.614C119.772 199.17 118.739 201.836 117.976 204.596L117.968 204.623L117.955 204.67C117.911 204.831 117.868 204.993 117.825 205.154L117.813 205.201L117.797 205.262C117.747 205.453 117.699 205.644 117.652 205.836C117.337 207.124 117.078 208.453 117.077 209.772C117.077 209.891 117.079 210.011 117.083 210.131C117.092 210.37 117.109 210.609 117.137 210.847C117.165 211.085 117.204 211.322 117.254 211.557C117.347 211.995 117.477 212.421 117.641 212.836C117.707 213.002 117.778 213.166 117.855 213.328C117.893 213.409 117.932 213.49 117.973 213.57L118.098 213.81C118.271 214.128 118.462 214.439 118.672 214.743C118.933 215.123 119.221 215.493 119.531 215.852L119.72 216.067C119.847 216.209 119.979 216.349 120.113 216.489C120.247 216.627 120.385 216.765 120.525 216.901L120.738 217.103C120.881 217.237 121.027 217.37 121.176 217.501L121.4 217.697C121.626 217.891 121.858 218.082 122.094 218.269C122.33 218.457 122.57 218.641 122.814 218.821C122.977 218.942 123.141 219.061 123.306 219.178L123.555 219.354C123.721 219.47 123.889 219.585 124.057 219.698C124.225 219.811 124.395 219.923 124.564 220.034C124.903 220.255 125.245 220.47 125.587 220.68C125.757 220.785 125.928 220.889 126.099 220.991C126.305 221.115 126.51 221.236 126.714 221.356C126.88 221.452 127.044 221.548 127.208 221.642C127.345 221.721 127.482 221.8 127.618 221.877C127.737 221.945 127.856 222.012 127.974 222.078C128.149 222.177 128.322 222.274 128.493 222.369C128.61 222.434 128.726 222.499 128.84 222.563C128.999 222.651 129.156 222.738 129.312 222.824C129.424 222.886 129.534 222.948 129.644 223.009L129.895 223.148L130.092 223.258C130.207 223.321 130.32 223.385 130.432 223.447C131.739 224.181 133.073 224.862 134.43 225.494C135.399 225.946 136.38 226.373 137.37 226.776C137.767 226.937 138.164 227.094 138.563 227.248C142.156 228.631 145.868 229.713 149.623 230.552C150.595 230.769 151.571 230.97 152.55 231.156C152.941 231.231 153.333 231.303 153.725 231.373C153.921 231.408 154.117 231.442 154.313 231.476C155.294 231.644 156.278 231.798 157.263 231.938C157.855 232.022 158.447 232.101 159.039 232.175C159.237 232.2 159.435 232.224 159.632 232.248C160.008 232.293 160.384 232.336 160.76 232.377C161.195 232.424 161.63 232.47 162.065 232.512C162.606 232.565 163.146 232.615 163.688 232.66C165.312 232.797 166.938 232.902 168.567 232.976V233.081C169.248 233.097 169.929 233.109 170.61 233.117C171.746 233.131 172.881 233.133 174.016 233.124C174.47 233.128 174.925 233.129 175.379 233.129C176.06 233.13 176.741 233.125 177.422 233.117C178.103 233.109 178.784 233.097 179.465 233.081V232.976C180.287 232.938 181.108 232.893 181.929 232.84C183.296 232.752 184.662 232.641 186.025 232.507C186.191 232.491 186.357 232.474 186.523 232.457C186.532 232.642 186.547 232.826 186.569 233.011L186.574 233.053C186.601 233.283 186.638 233.512 186.687 233.741L186.733 233.942L186.766 234.071C186.97 234.859 187.297 235.61 187.721 236.325L187.898 236.612L188.002 236.773L188.218 237.086L188.308 237.212C188.391 237.325 188.477 237.438 188.564 237.55L188.637 237.641C188.776 237.815 188.922 237.988 189.071 238.158C189.222 238.328 189.377 238.496 189.536 238.661L189.55 238.675C190.019 239.16 190.527 239.626 191.062 240.073C191.522 240.457 192.001 240.827 192.493 241.184C192.646 241.296 192.801 241.407 192.957 241.515C193.425 241.843 193.901 242.158 194.38 242.463C195.019 242.87 195.663 243.257 196.297 243.626L196.55 243.773C196.886 243.967 197.219 244.156 197.547 244.34L197.791 244.478C198.035 244.614 198.275 244.747 198.511 244.878C198.746 245.009 198.977 245.137 199.203 245.262C199.354 245.346 199.503 245.428 199.648 245.51L199.864 245.631C200.985 246.259 202.126 246.85 203.283 247.404C205.984 248.697 208.777 249.792 211.626 250.717C212.033 250.849 212.441 250.977 212.851 251.102C213.055 251.165 213.26 251.227 213.465 251.288C213.716 251.362 213.967 251.435 214.218 251.507C214.584 251.611 214.951 251.714 215.318 251.813C216.351 252.093 217.389 252.353 218.43 252.593C218.639 252.641 218.847 252.688 219.056 252.735C219.737 252.887 220.419 253.031 221.103 253.168C221.274 253.202 221.445 253.236 221.616 253.269C221.958 253.336 222.3 253.4 222.643 253.463C222.986 253.526 223.329 253.587 223.673 253.646C223.844 253.676 224.016 253.705 224.188 253.734C224.532 253.791 224.876 253.847 225.22 253.901C225.908 254.008 226.598 254.109 227.288 254.204C228.472 254.365 229.658 254.507 230.847 254.63C231.243 254.671 231.64 254.71 232.036 254.747C232.631 254.803 233.227 254.854 233.823 254.901C234.22 254.932 234.618 254.961 235.015 254.989C235.413 255.016 235.811 255.042 236.209 255.065C236.607 255.089 237.005 255.111 237.403 255.131C237.603 255.141 237.802 255.151 238.001 255.16V255.264C238.682 255.28 239.363 255.293 240.044 255.301C240.725 255.309 241.406 255.313 242.087 255.313C242.542 255.313 242.996 255.311 243.45 255.307C243.904 255.311 244.358 255.313 244.812 255.313C245.493 255.313 246.175 255.309 246.856 255.301C247.537 255.293 248.218 255.28 248.898 255.264V255.16C251.289 255.05 253.675 254.877 256.052 254.63C256.449 254.589 256.844 254.546 257.24 254.501C257.834 254.433 258.427 254.36 259.019 254.283C259.216 254.257 259.414 254.231 259.611 254.204C260.301 254.11 260.991 254.009 261.679 253.901C262.024 253.847 262.368 253.791 262.711 253.734C262.883 253.705 263.055 253.676 263.226 253.646C263.57 253.587 263.913 253.526 264.256 253.463C264.599 253.4 264.941 253.336 265.283 253.269C265.454 253.236 265.625 253.202 265.796 253.168C266.48 253.031 267.163 252.887 267.844 252.735C268.052 252.689 268.261 252.641 268.469 252.593C268.719 252.536 268.968 252.477 269.217 252.417C269.964 252.238 270.708 252.048 271.451 251.848L271.751 251.767C272.049 251.686 272.346 251.602 272.643 251.518C273.161 251.37 273.679 251.216 274.194 251.058C274.505 250.962 274.815 250.864 275.125 250.764C279.248 249.436 283.254 247.752 287.035 245.631C287.146 245.569 287.26 245.505 287.374 245.441L287.571 245.332L287.822 245.192C287.932 245.132 288.043 245.07 288.155 245.008C288.31 244.922 288.467 244.835 288.626 244.746C288.785 244.658 288.946 244.569 289.108 244.478L289.389 244.32L289.664 244.424C289.773 244.466 289.882 244.506 289.991 244.547C290.285 244.656 290.58 244.764 290.875 244.869L291.191 244.981C291.543 245.104 291.895 245.226 292.248 245.344C292.654 245.479 293.061 245.611 293.47 245.74C293.674 245.804 293.878 245.867 294.083 245.93C294.697 246.118 295.313 246.298 295.931 246.471C296.343 246.586 296.756 246.698 297.17 246.807C297.791 246.97 298.414 247.126 299.038 247.274C299.454 247.374 299.87 247.47 300.288 247.563C301.261 247.78 302.236 247.981 303.215 248.168C303.606 248.242 303.998 248.314 304.39 248.384C304.586 248.419 304.782 248.453 304.978 248.487C305.959 248.655 306.943 248.809 307.928 248.949C308.52 249.033 309.112 249.112 309.704 249.186C309.902 249.211 310.1 249.235 310.297 249.259C310.673 249.304 311.049 249.347 311.425 249.388C311.86 249.436 312.295 249.481 312.73 249.524C313.271 249.577 313.812 249.626 314.353 249.671C315.976 249.808 317.603 249.913 319.233 249.988V250.092C319.686 250.103 320.14 250.112 320.594 250.119C320.821 250.122 321.048 250.126 321.275 250.129C322.41 250.142 323.546 250.145 324.681 250.135C324.703 250.135 324.724 250.135 324.746 250.135C325.078 250.138 325.41 250.14 325.742 250.14C325.784 250.14 325.826 250.14 325.868 250.14C326.179 250.141 326.49 250.14 326.8 250.139C326.878 250.139 326.955 250.138 327.032 250.138C327.384 250.136 327.735 250.133 328.087 250.129C328.314 250.126 328.541 250.123 328.768 250.119C329.222 250.112 329.676 250.103 330.13 250.092V249.988C330.952 249.95 331.773 249.905 332.593 249.852C333.961 249.763 335.326 249.653 336.689 249.518C337.085 249.479 337.482 249.438 337.878 249.395C338.224 249.357 338.57 249.318 338.917 249.277C339.609 249.195 340.3 249.107 340.99 249.012C341.335 248.964 341.68 248.915 342.025 248.864C342.813 248.748 343.599 248.622 344.384 248.487C344.777 248.42 345.169 248.35 345.561 248.278C346.736 248.062 347.907 247.824 349.075 247.564C349.492 247.47 349.909 247.374 350.325 247.275C350.949 247.126 351.571 246.97 352.192 246.807C352.606 246.699 353.019 246.587 353.431 246.472C354.05 246.299 354.666 246.119 355.28 245.931C355.484 245.868 355.689 245.805 355.893 245.74C356.251 245.628 356.607 245.512 356.963 245.394C357.082 245.354 357.201 245.314 357.32 245.274C357.657 245.161 357.993 245.045 358.328 244.927C358.731 244.784 359.133 244.638 359.534 244.488C359.935 244.338 360.334 244.184 360.732 244.027C360.988 243.925 361.243 243.822 361.498 243.718C361.753 243.613 362.007 243.507 362.26 243.399C363.131 243.029 363.994 242.641 364.847 242.232C366.005 241.678 367.145 241.088 368.266 240.459C369.91 239.537 371.921 238.465 373.878 237.211C374.048 237.101 374.218 236.991 374.387 236.879L374.64 236.71C374.808 236.597 374.976 236.482 375.142 236.366L375.391 236.191C375.556 236.073 375.72 235.954 375.883 235.834C376.126 235.652 376.367 235.469 376.603 235.281C376.717 235.19 376.83 235.098 376.942 235.006C377.061 234.908 377.18 234.809 377.297 234.708L377.521 234.513C377.67 234.382 377.816 234.249 377.959 234.115L378.172 233.913L378.481 233.605L378.686 233.393L378.977 233.079L379.166 232.865C379.256 232.761 379.343 232.655 379.429 232.549L379.625 232.303L379.823 232.04C379.967 231.843 380.104 231.643 380.233 231.441L380.41 231.154C380.834 230.439 381.161 229.688 381.365 228.9L381.397 228.771L381.444 228.57C381.492 228.341 381.529 228.112 381.557 227.882L381.562 227.84C381.595 227.55 381.614 227.259 381.619 226.968L381.62 226.784C381.619 226.543 381.61 226.303 381.594 226.063Z" fill="var(--fill-0, #A43716)"/>
<path id="Vector_4" d="M172.208 154.777C172.788 155.934 173.472 157.047 174.281 158.094C177.463 162.211 182.272 164.556 187.362 165.26C192.488 165.969 197.485 164.132 202.57 163.878C204.613 163.776 207.06 163.864 208.671 165.307C210.952 167.35 210.251 170.961 210.87 173.675C212.434 180.54 218.816 183.456 225.071 185.007C232.291 186.797 239.761 186.793 247.13 186.106C247.378 186.083 247.626 186.058 247.874 186.032C247.865 186.007 247.857 185.982 247.848 185.957C247.84 185.934 247.832 185.911 247.824 185.888C247.805 185.833 247.787 185.778 247.769 185.723C247.762 185.701 247.755 185.68 247.749 185.658C247.73 185.598 247.712 185.537 247.695 185.477C247.69 185.458 247.685 185.44 247.68 185.421C247.662 185.356 247.645 185.291 247.628 185.225C247.626 185.214 247.623 185.203 247.62 185.192C247.603 185.12 247.586 185.048 247.571 184.975C247.558 184.916 247.547 184.857 247.536 184.798C247.525 184.739 247.514 184.679 247.504 184.62C247.456 184.324 247.425 184.027 247.408 183.728C247.398 183.548 247.394 183.369 247.394 183.189C247.394 182.71 247.429 182.229 247.488 181.749C247.51 181.569 247.535 181.39 247.564 181.21C247.668 180.552 247.812 179.898 247.969 179.254C248.016 179.062 248.064 178.871 248.114 178.68C248.066 178.868 248.018 179.056 247.972 179.244L248.048 178.936C240.734 179.911 233.277 177.598 227.527 173.022C225.063 171.061 223.001 168.645 221.951 165.644C221.074 163.135 220.934 160.55 220.747 157.923C220.582 155.6 220.552 152.66 219.349 150.591C219.339 150.608 218.918 150.026 218.795 149.895C218.55 149.634 218.838 149.873 218.355 149.519L218.22 149.421C217.705 149.813 217.195 150.215 216.692 150.625C214.13 152.711 211.649 155.064 208.637 156.208C207.423 156.669 205.815 156.781 205.126 155.601C204.617 154.729 204.887 153.563 205.311 152.631C206.318 150.413 208.061 148.71 209.927 147.295C205.511 147.008 200.828 147.407 196.524 146.715C194.618 148.153 192.644 149.471 190.42 150.257C189.008 150.756 187.137 150.873 186.332 149.586C185.736 148.634 186.047 147.364 186.537 146.349C187.134 145.114 187.956 144.027 188.906 143.053C188.608 142.672 188.344 142.254 188.123 141.793C187.298 140.076 187.219 138.212 187.515 136.361C179.826 142.253 173.67 150.11 170.335 159.106C170.333 159.109 170.332 159.113 170.331 159.116C170.277 159.261 170.224 159.406 170.172 159.551C170.165 159.571 170.159 159.59 170.151 159.61C170.105 159.741 170.058 159.872 170.013 160.003C170.001 160.038 169.989 160.072 169.977 160.107C169.936 160.226 169.895 160.346 169.855 160.466C169.804 160.617 169.754 160.77 169.705 160.922L169.698 160.941C169.594 161.264 169.494 161.587 169.398 161.912L169.373 161.996C169.333 162.132 169.294 162.267 169.255 162.403L169.233 162.481L169.155 162.76C169.918 160 170.952 157.334 172.208 154.777Z" fill="var(--fill-0, #973413)"/>
<path id="Vector_5" d="M168.567 166.304C169.571 166.231 170.577 166.178 171.583 166.145C171.736 166.14 171.889 166.137 172.042 166.133C172.208 166.128 172.375 166.123 172.542 166.12C172.726 166.116 172.909 166.114 173.093 166.112C173.234 166.11 173.375 166.108 173.517 166.107C173.683 166.106 173.849 166.106 174.015 166.106C174.181 166.106 174.348 166.106 174.514 166.107C174.655 166.108 174.796 166.11 174.938 166.112C175.122 166.114 175.305 166.116 175.489 166.12C175.656 166.123 175.823 166.128 175.989 166.133C176.142 166.137 176.295 166.14 176.448 166.145C177.454 166.178 178.459 166.231 179.464 166.304V166.31C186.229 166.823 192.889 168.313 199.163 170.925C209.109 175.065 217.931 182.183 223.857 191.114C228.451 189.714 233.199 188.857 237.999 188.493V188.487C239.004 188.414 240.009 188.361 241.015 188.329C241.168 188.324 241.321 188.32 241.474 188.316C241.641 188.311 241.807 188.306 241.974 188.303C242.158 188.299 242.342 188.298 242.525 188.295C242.667 188.294 242.808 188.291 242.949 188.29C243.115 188.289 243.281 188.289 243.448 188.29C243.614 188.289 243.78 188.289 243.946 188.29C244.087 188.291 244.229 188.294 244.37 188.295C244.554 188.298 244.737 188.299 244.921 188.303C245.088 188.306 245.255 188.312 245.421 188.316C245.574 188.32 245.727 188.324 245.88 188.329C246.886 188.361 247.892 188.414 248.896 188.487V188.493C249.013 188.502 249.129 188.512 249.246 188.521C255.89 189.059 262.429 190.542 268.595 193.108C273.055 194.965 277.289 197.42 281.137 200.369C284.173 197.277 287.587 194.536 291.266 192.223C290.713 191.239 290.283 190.146 290.005 188.929C289.387 186.215 290.088 182.604 287.807 180.561C286.196 179.118 283.749 179.03 281.706 179.132C276.621 179.385 271.624 181.223 266.498 180.514C261.408 179.809 256.6 177.465 253.417 173.348C252.608 172.301 251.916 171.18 251.336 170.024C250.08 172.58 249.055 175.254 248.291 178.014L248.27 178.088C248.226 178.249 248.183 178.41 248.141 178.572L248.112 178.68C248.063 178.871 248.014 179.062 247.968 179.254C247.81 179.897 247.667 180.552 247.562 181.21C247.534 181.389 247.508 181.569 247.486 181.749C247.427 182.229 247.393 182.71 247.392 183.189C247.392 183.369 247.397 183.548 247.407 183.727C247.423 184.026 247.455 184.324 247.503 184.62C247.512 184.679 247.523 184.739 247.534 184.798C247.545 184.857 247.557 184.916 247.569 184.975C247.585 185.047 247.601 185.119 247.619 185.192C247.621 185.203 247.624 185.214 247.627 185.225C247.643 185.291 247.66 185.356 247.678 185.421C247.683 185.44 247.688 185.458 247.694 185.477C247.711 185.537 247.729 185.598 247.747 185.658C247.754 185.679 247.761 185.701 247.768 185.722C247.785 185.778 247.803 185.833 247.822 185.888C247.83 185.911 247.838 185.934 247.846 185.957C247.862 186 247.877 186.043 247.893 186.086C247.886 186.068 247.879 186.05 247.873 186.032C247.624 186.058 247.376 186.083 247.128 186.106C239.76 186.793 232.289 186.797 225.069 185.007C218.815 183.456 212.432 180.54 210.868 173.675C210.25 170.961 210.95 167.35 208.669 165.307C207.059 163.864 204.611 163.776 202.569 163.878C197.483 164.132 192.486 165.969 187.36 165.26C182.27 164.556 177.462 162.211 174.28 158.094C173.47 157.047 172.786 155.934 172.206 154.777C170.95 157.334 169.917 160 169.153 162.76L169.147 162.785L169.133 162.834C169.089 162.995 169.046 163.157 169.003 163.318L168.989 163.372L168.975 163.426C168.925 163.617 168.877 163.808 168.83 164C168.643 164.764 168.476 165.543 168.371 166.325L168.565 166.31V166.304H168.567ZM248.306 187.018C248.274 186.956 248.243 186.894 248.213 186.831C248.243 186.894 248.274 186.956 248.306 187.018ZM248.8 187.876C248.766 187.823 248.732 187.769 248.699 187.716C248.732 187.769 248.766 187.823 248.8 187.876ZM248.552 187.47C248.515 187.407 248.48 187.344 248.445 187.281C248.48 187.344 248.515 187.408 248.552 187.47ZM248.413 187.221C248.387 187.173 248.361 187.126 248.336 187.078C248.362 187.126 248.387 187.173 248.413 187.221ZM248.186 186.774C248.164 186.728 248.142 186.681 248.12 186.634C248.142 186.681 248.164 186.728 248.186 186.774ZM248.088 186.56C248.067 186.513 248.047 186.466 248.027 186.419C248.046 186.466 248.067 186.513 248.088 186.56Z" fill="var(--fill-0, #862E0F)"/>
<path id="Vector_6" d="M301.088 180.897C300.211 178.389 300.071 175.804 299.884 173.177C299.719 170.854 299.688 167.913 298.486 165.844C298.476 165.861 298.054 165.28 297.932 165.149C297.687 164.887 297.975 165.127 297.492 164.773L297.357 164.675C296.842 165.067 296.332 165.468 295.829 165.878C293.266 167.965 290.786 170.318 287.774 171.462C286.56 171.923 284.952 172.035 284.263 170.855C283.754 169.983 284.024 168.817 284.448 167.885C285.455 165.667 287.198 163.964 289.064 162.549C284.648 162.262 279.965 162.66 275.661 161.969C273.754 163.406 271.781 164.724 269.556 165.51C268.145 166.009 266.273 166.127 265.468 164.839C264.873 163.888 265.184 162.617 265.674 161.603C266.271 160.368 267.093 159.281 268.043 158.307C267.745 157.926 267.481 157.507 267.26 157.047C266.435 155.33 266.356 153.465 266.652 151.615C260.222 156.542 254.87 162.831 251.338 170.024C251.915 171.175 252.613 172.306 253.419 173.348C256.601 177.465 261.409 179.809 266.5 180.514C271.625 181.223 276.622 179.386 281.708 179.132C283.75 179.03 286.198 179.118 287.808 180.561C290.089 182.605 289.388 186.215 290.007 188.929C290.284 190.146 290.714 191.239 291.267 192.223C293.901 190.566 296.67 189.128 299.532 187.936C301.12 187.275 302.733 186.686 304.366 186.167C302.943 184.645 301.789 182.902 301.088 180.897Z" fill="var(--fill-0, #973413)"/>
<path id="Vector_7" d="M362.361 195.207C362.657 197.058 362.578 198.923 361.753 200.64C361.532 201.1 361.268 201.519 360.97 201.9C361.92 202.874 362.742 203.961 363.339 205.196C363.829 206.21 364.14 207.481 363.544 208.432C362.739 209.72 360.868 209.602 359.456 209.103C357.232 208.317 355.258 206.999 353.352 205.561C349.048 206.253 344.365 205.855 339.949 206.141C341.815 207.557 343.558 209.26 344.565 211.477C344.989 212.41 345.258 213.576 344.749 214.448C344.061 215.628 342.453 215.515 341.239 215.055C338.227 213.911 335.746 211.558 333.184 209.471C332.68 209.061 332.171 208.66 331.655 208.267L331.521 208.366C331.037 208.719 331.325 208.48 331.081 208.742C330.958 208.872 330.537 209.454 330.527 209.437C329.324 211.506 329.294 214.447 329.129 216.77C328.941 219.397 328.802 221.982 327.925 224.49C326.875 227.492 324.812 229.907 322.348 231.868C316.567 236.47 309.06 238.784 301.707 237.766C300.659 237.621 299.637 237.411 298.64 237.143C298.083 237.916 297.416 238.644 296.677 239.332C296.658 239.35 296.639 239.369 296.619 239.387C296.366 239.62 296.104 239.849 295.836 240.073C295.377 240.457 294.897 240.827 294.406 241.185C294.201 241.333 293.994 241.48 293.785 241.624C293.576 241.769 293.366 241.911 293.155 242.051C293.049 242.121 292.943 242.19 292.837 242.259C292.518 242.465 292.198 242.667 291.878 242.864L291.801 242.91C295.381 243.951 299.081 244.611 302.746 244.953C310.114 245.64 317.585 245.644 324.804 243.854C331.059 242.303 337.441 239.387 339.006 232.521C339.624 229.808 338.923 226.197 341.205 224.154C342.815 222.711 345.263 222.622 347.305 222.724C352.391 222.978 357.388 224.816 362.514 224.107C367.604 223.402 372.412 221.058 375.594 216.941C376.4 215.899 377.097 214.76 377.674 213.61C374.141 206.417 368.792 200.136 362.361 195.207Z" fill="var(--fill-0, #973413)"/>
<path id="Vector_8" d="M381.594 226.063C381.586 225.943 381.577 225.822 381.565 225.702C381.553 225.582 381.54 225.462 381.525 225.342C381.422 224.503 381.244 223.666 381.044 222.847C380.997 222.655 380.949 222.464 380.899 222.273L380.886 222.222L380.871 222.165C380.828 222.004 380.785 221.842 380.741 221.681L380.732 221.65L380.72 221.607C379.957 218.847 378.931 216.167 377.674 213.61C377.095 214.767 376.404 215.894 375.594 216.941C372.412 221.058 367.604 223.402 362.514 224.107C357.388 224.816 352.391 222.979 347.305 222.725C345.263 222.623 342.815 222.711 341.205 224.154C338.924 226.198 339.624 229.808 339.006 232.522C337.441 239.387 331.059 242.303 324.804 243.854C317.585 245.644 310.114 245.64 302.746 244.953C299.081 244.611 295.381 243.952 291.801 242.911C291.795 242.915 291.788 242.919 291.781 242.923C291.813 242.903 291.845 242.884 291.878 242.864C292.198 242.667 292.518 242.466 292.836 242.259C292.943 242.19 293.048 242.121 293.154 242.051C293.366 241.911 293.576 241.769 293.785 241.625C293.993 241.48 294.2 241.334 294.405 241.185C294.897 240.828 295.376 240.457 295.836 240.073C296.104 239.849 296.366 239.62 296.619 239.387C296.638 239.369 296.657 239.35 296.677 239.332C297.416 238.645 298.083 237.916 298.64 237.143C299.397 236.093 299.952 234.961 300.21 233.741C300.46 232.561 300.421 231.353 300.245 230.155L300.217 229.976C300.113 229.317 299.97 228.663 299.812 228.019C299.765 227.828 299.717 227.636 299.667 227.446L299.639 227.338C299.597 227.176 299.553 227.015 299.509 226.854L299.488 226.778C298.725 224.019 297.692 221.353 296.436 218.797C295.856 219.954 295.172 221.066 294.362 222.114C291.18 226.231 286.372 228.575 281.282 229.279C276.156 229.989 271.159 228.151 266.074 227.897C264.031 227.795 261.583 227.884 259.973 229.327C257.692 231.37 258.392 234.98 257.774 237.694C256.21 244.56 249.828 247.475 243.573 249.026C236.353 250.817 228.882 250.812 221.514 250.125C214.662 249.486 207.69 247.739 201.606 244.459C195.137 240.972 189.802 235.574 187.452 228.506C187.352 228.207 187.288 227.901 187.199 227.6C187.163 227.741 187.118 227.878 187.084 228.019C187.056 228.135 187.028 228.251 187.001 228.367C182.591 228.34 178.196 227.911 173.891 226.843C167.636 225.292 161.254 222.377 159.689 215.511C159.071 212.797 159.772 209.187 157.49 207.144C155.88 205.701 153.432 205.612 151.39 205.714C146.304 205.968 141.307 207.806 136.181 207.096C131.091 206.392 126.283 204.048 123.101 199.931C122.291 198.883 121.607 197.771 121.027 196.614C119.771 199.171 118.738 201.837 117.974 204.597L117.967 204.624L117.954 204.671C117.909 204.832 117.867 204.993 117.824 205.155L117.812 205.201L117.796 205.263C117.746 205.454 117.698 205.645 117.651 205.836C117.336 207.124 117.077 208.454 117.075 209.772C117.075 209.892 117.077 210.012 117.082 210.131C117.09 210.37 117.108 210.609 117.136 210.847C117.164 211.085 117.203 211.322 117.253 211.558C117.345 211.995 117.476 212.421 117.64 212.836C117.706 213.002 117.777 213.166 117.853 213.329C117.891 213.41 117.931 213.49 117.972 213.571L118.097 213.811C118.27 214.129 118.461 214.439 118.67 214.744C118.931 215.124 119.219 215.494 119.53 215.853L119.719 216.067C119.846 216.209 119.977 216.35 120.112 216.489C120.246 216.628 120.383 216.765 120.524 216.901L120.737 217.103C120.88 217.238 121.026 217.37 121.174 217.501L121.399 217.697C121.625 217.891 121.857 218.082 122.093 218.27C122.329 218.457 122.569 218.641 122.813 218.822C122.975 218.942 123.139 219.062 123.305 219.179L123.553 219.354C123.72 219.47 123.887 219.585 124.056 219.698C124.224 219.812 124.393 219.924 124.563 220.034C124.902 220.255 125.244 220.471 125.585 220.68C125.756 220.786 125.927 220.889 126.097 220.992C126.303 221.115 126.509 221.236 126.713 221.356C126.878 221.453 127.043 221.548 127.207 221.643C127.344 221.722 127.481 221.8 127.617 221.877C127.736 221.945 127.855 222.012 127.973 222.079C128.148 222.177 128.321 222.274 128.492 222.37C128.608 222.435 128.724 222.499 128.839 222.563C128.998 222.651 129.155 222.739 129.31 222.825C129.422 222.887 129.533 222.948 129.643 223.009L129.894 223.148L130.091 223.258C130.205 223.322 130.319 223.385 130.43 223.448C131.738 224.181 133.072 224.862 134.429 225.495C135.398 225.946 136.379 226.373 137.369 226.776C137.765 226.937 138.163 227.095 138.562 227.248C142.155 228.632 145.867 229.714 149.621 230.552C150.594 230.769 151.57 230.971 152.548 231.157C152.94 231.231 153.331 231.303 153.723 231.373C153.919 231.408 154.116 231.442 154.312 231.476C155.293 231.644 156.277 231.798 157.262 231.938C157.854 232.022 158.446 232.101 159.038 232.176C159.236 232.2 159.433 232.225 159.631 232.248C160.007 232.293 160.383 232.336 160.759 232.377C161.194 232.425 161.629 232.47 162.064 232.513C162.605 232.566 163.145 232.615 163.687 232.661C165.31 232.798 166.937 232.902 168.566 232.977V233.081C169.247 233.097 169.928 233.109 170.609 233.118C171.744 233.131 172.88 233.134 174.015 233.124C174.469 233.128 174.923 233.13 175.378 233.13C176.059 233.13 176.74 233.126 177.421 233.118C178.102 233.109 178.783 233.097 179.464 233.081V232.977C180.286 232.939 181.107 232.894 181.927 232.841C183.295 232.752 184.66 232.642 186.023 232.507C186.19 232.491 186.356 232.474 186.521 232.457C186.531 232.642 186.546 232.827 186.567 233.011L186.572 233.053C186.6 233.283 186.637 233.513 186.686 233.741L186.732 233.942L186.764 234.071C186.968 234.86 187.296 235.61 187.72 236.325L187.896 236.612L188.001 236.773L188.216 237.087L188.307 237.212C188.39 237.326 188.475 237.438 188.563 237.55L188.635 237.641C188.775 237.816 188.92 237.988 189.07 238.158C189.22 238.329 189.375 238.496 189.535 238.662L189.549 238.676C190.018 239.161 190.526 239.626 191.061 240.073C191.52 240.457 192 240.828 192.491 241.185C192.645 241.297 192.8 241.407 192.956 241.516C193.423 241.843 193.9 242.159 194.379 242.464C195.018 242.87 195.661 243.258 196.295 243.627L196.548 243.773C196.885 243.968 197.218 244.157 197.546 244.341L197.79 244.478C198.034 244.614 198.274 244.748 198.509 244.878C198.745 245.009 198.976 245.137 199.202 245.263C199.353 245.346 199.501 245.429 199.647 245.51L199.863 245.631C200.984 246.26 202.124 246.85 203.282 247.404C205.983 248.697 208.775 249.792 211.625 250.717C212.032 250.849 212.44 250.978 212.849 251.103C213.054 251.165 213.259 251.227 213.464 251.288C213.715 251.362 213.966 251.435 214.217 251.507C214.583 251.612 214.949 251.714 215.317 251.814C216.35 252.094 217.387 252.353 218.429 252.593C218.637 252.642 218.846 252.689 219.054 252.735C219.735 252.887 220.418 253.032 221.102 253.168C221.273 253.203 221.444 253.236 221.615 253.27C221.957 253.336 222.299 253.401 222.642 253.463C222.985 253.526 223.328 253.587 223.671 253.647C223.843 253.676 224.015 253.705 224.187 253.734C224.53 253.792 224.874 253.847 225.219 253.901C225.907 254.009 226.597 254.11 227.287 254.204C228.471 254.365 229.657 254.507 230.846 254.63C231.242 254.671 231.639 254.711 232.035 254.748C232.63 254.803 233.226 254.854 233.821 254.901C234.219 254.932 234.616 254.962 235.014 254.989C235.412 255.016 235.809 255.042 236.208 255.066C236.606 255.09 237.004 255.111 237.402 255.131C237.601 255.141 237.8 255.151 238 255.16V255.264C238.681 255.281 239.362 255.293 240.043 255.301C240.724 255.309 241.405 255.314 242.086 255.313C242.54 255.313 242.995 255.311 243.449 255.307C243.903 255.311 244.357 255.313 244.811 255.313C245.492 255.314 246.173 255.309 246.854 255.301C247.535 255.293 248.216 255.281 248.897 255.264V255.16C251.288 255.05 253.674 254.877 256.051 254.631C256.447 254.589 256.843 254.546 257.239 254.501C257.832 254.433 258.426 254.361 259.018 254.283C259.215 254.258 259.413 254.231 259.61 254.204C260.3 254.11 260.99 254.009 261.678 253.901C262.022 253.848 262.366 253.792 262.71 253.734C262.882 253.706 263.054 253.676 263.225 253.647C263.569 253.588 263.912 253.526 264.254 253.464C264.597 253.401 264.94 253.336 265.282 253.27C265.453 253.236 265.624 253.203 265.795 253.169C266.479 253.032 267.161 252.887 267.842 252.735C268.051 252.689 268.259 252.642 268.468 252.594C268.717 252.536 268.966 252.477 269.215 252.417C269.962 252.238 270.707 252.048 271.449 251.849L271.75 251.767C272.048 251.686 272.345 251.603 272.641 251.518C273.16 251.37 273.677 251.217 274.193 251.058C274.504 250.962 274.814 250.864 275.124 250.765C279.247 249.436 283.253 247.752 287.034 245.631C287.145 245.569 287.258 245.506 287.373 245.442L287.57 245.332L287.821 245.193C287.931 245.132 288.041 245.071 288.153 245.008C288.309 244.922 288.466 244.835 288.625 244.747C288.784 244.659 288.945 244.569 289.107 244.478L289.388 244.321L289.662 244.425C289.771 244.466 289.881 244.507 289.99 244.548C290.284 244.657 290.578 244.764 290.874 244.869L291.19 244.981C291.542 245.105 291.894 245.226 292.247 245.344C292.653 245.479 293.06 245.612 293.468 245.74C293.672 245.805 293.877 245.868 294.081 245.931C294.695 246.118 295.312 246.299 295.93 246.471C296.342 246.586 296.755 246.699 297.169 246.807C297.79 246.97 298.413 247.126 299.036 247.275C299.452 247.374 299.869 247.47 300.286 247.563C301.259 247.781 302.235 247.982 303.213 248.168C303.605 248.243 303.996 248.315 304.388 248.384C304.584 248.419 304.781 248.454 304.977 248.487C305.958 248.656 306.942 248.809 307.927 248.949C308.519 249.033 309.11 249.113 309.703 249.187C309.901 249.212 310.098 249.236 310.296 249.259C310.672 249.304 311.048 249.347 311.424 249.388C311.859 249.436 312.294 249.481 312.729 249.524C313.27 249.577 313.81 249.626 314.351 249.672C315.975 249.809 317.602 249.913 319.231 249.988V250.092C319.685 250.103 320.139 250.112 320.593 250.119C320.82 250.123 321.047 250.126 321.274 250.129C322.409 250.143 323.545 250.145 324.68 250.135C324.702 250.135 324.723 250.135 324.744 250.136C325.077 250.138 325.409 250.14 325.741 250.141C325.783 250.141 325.825 250.141 325.867 250.141C326.178 250.141 326.488 250.141 326.799 250.139C326.876 250.139 326.954 250.139 327.031 250.138C327.382 250.136 327.734 250.133 328.086 250.129C328.313 250.126 328.54 250.123 328.767 250.119C329.221 250.112 329.675 250.103 330.129 250.092V249.988C330.95 249.95 331.772 249.905 332.592 249.852C333.96 249.764 335.325 249.653 336.688 249.519C337.084 249.48 337.481 249.439 337.876 249.396C338.223 249.358 338.569 249.318 338.915 249.278C339.607 249.196 340.299 249.107 340.989 249.012C341.334 248.965 341.679 248.915 342.024 248.864C342.812 248.748 343.598 248.623 344.383 248.488C344.776 248.42 345.168 248.351 345.559 248.279C346.734 248.062 347.906 247.824 349.073 247.564C349.491 247.471 349.907 247.375 350.323 247.275C350.947 247.127 351.57 246.971 352.191 246.808C352.605 246.699 353.018 246.587 353.43 246.472C354.048 246.299 354.665 246.119 355.278 245.931C355.483 245.869 355.688 245.805 355.892 245.741C356.249 245.628 356.606 245.512 356.962 245.394C357.081 245.355 357.2 245.315 357.319 245.275C357.656 245.161 357.992 245.046 358.327 244.927C358.73 244.785 359.132 244.638 359.533 244.488C359.933 244.338 360.333 244.185 360.73 244.027C360.987 243.926 361.242 243.823 361.497 243.718C361.751 243.613 362.006 243.507 362.259 243.399C363.13 243.029 363.993 242.641 364.846 242.233C366.003 241.679 367.144 241.089 368.265 240.46C369.908 239.538 371.92 238.466 373.877 237.211C374.047 237.102 374.217 236.991 374.386 236.879L374.639 236.71C374.807 236.597 374.975 236.482 375.141 236.366L375.39 236.191C375.555 236.073 375.719 235.954 375.882 235.834C376.125 235.653 376.366 235.469 376.602 235.282C376.716 235.191 376.829 235.099 376.941 235.007C377.06 234.908 377.179 234.809 377.296 234.709L377.52 234.513C377.668 234.382 377.815 234.25 377.958 234.115L378.171 233.913L378.48 233.605L378.685 233.393L378.976 233.079L379.165 232.865C379.255 232.761 379.342 232.656 379.428 232.55L379.623 232.304L379.821 232.041C379.966 231.844 380.102 231.644 380.232 231.441L380.408 231.154C380.832 230.439 381.16 229.689 381.364 228.9L381.396 228.771L381.442 228.57C381.491 228.342 381.528 228.113 381.556 227.882L381.561 227.84C381.594 227.551 381.612 227.26 381.617 226.969L381.619 226.784C381.619 226.543 381.61 226.303 381.594 226.063Z" fill="var(--fill-0, #862E0F)"/>
<path id="Vector_9" d="M139.502 277.353C162.976 294.635 203.683 306.824 249.969 306.824C296.256 306.824 336.963 294.635 360.436 277.353C328.785 287.915 290.807 294.068 249.969 294.068C209.131 294.068 171.153 287.915 139.502 277.353Z" fill="var(--fill-0, #EEC7BF)"/>
<path id="Vector_10" d="M277.731 144.973C275.656 144.8 273.565 144.645 271.459 144.51C272.169 145.352 272.852 146.214 273.507 147.097C274.885 146.329 276.295 145.62 277.731 144.973Z" fill="var(--fill-0, #EEC7BF)"/>
<path id="Vector_11" d="M352.781 162.537C356.111 167.07 358.682 172.126 360.239 177.536L360.241 177.543C360.293 177.722 360.343 177.901 360.393 178.081L360.403 178.118C360.449 178.287 360.494 178.456 360.538 178.625L360.569 178.746C360.61 178.904 360.65 179.062 360.689 179.22L360.697 179.254C361.012 180.541 361.271 181.871 361.273 183.189C361.273 183.369 361.268 183.549 361.258 183.728C361.241 184.026 361.21 184.324 361.162 184.62C361.152 184.68 361.142 184.739 361.131 184.798C361.12 184.857 361.108 184.916 361.096 184.975C360.572 187.445 358.836 189.551 356.666 191.353C366.95 197.405 375.354 206.751 379.494 217.825C379.514 217.878 379.534 217.93 379.553 217.984C379.589 218.082 379.625 218.18 379.661 218.279C379.687 218.349 379.712 218.42 379.737 218.491C379.769 218.582 379.802 218.673 379.834 218.764C379.866 218.857 379.898 218.95 379.93 219.043C379.953 219.112 379.977 219.181 380 219.25C380.057 219.419 380.113 219.588 380.168 219.757L380.181 219.798C380.284 220.118 380.383 220.439 380.479 220.761L380.502 220.839C380.543 220.978 380.583 221.116 380.623 221.255L380.643 221.325C380.674 221.433 380.703 221.541 380.733 221.649L380.742 221.681L380.772 221.788L380.777 221.808C386.439 215.522 389.534 208.719 389.534 201.616C389.534 186.546 375.602 172.824 352.781 162.537Z" fill="var(--fill-0, #EEC7BF)"/>
<path id="Vector_12" d="M324.744 250.135C324.723 250.135 324.702 250.135 324.68 250.134C323.545 250.144 322.409 250.142 321.274 250.128C321.047 250.125 320.82 250.122 320.593 250.118C320.139 250.111 319.685 250.102 319.231 250.091V249.987C317.602 249.912 315.975 249.808 314.351 249.671C313.81 249.626 313.269 249.576 312.729 249.523C312.294 249.48 311.859 249.435 311.424 249.388C311.048 249.346 310.672 249.303 310.296 249.259C310.098 249.235 309.901 249.211 309.703 249.186C309.11 249.112 308.519 249.033 307.927 248.949C306.942 248.809 305.958 248.655 304.977 248.486C304.781 248.453 304.585 248.419 304.388 248.384C303.996 248.314 303.605 248.242 303.213 248.167C302.235 247.981 301.259 247.78 300.286 247.562C299.869 247.469 299.453 247.373 299.036 247.274C298.413 247.125 297.79 246.969 297.169 246.806C296.755 246.698 296.342 246.586 295.93 246.471C295.312 246.298 294.695 246.118 294.081 245.93C293.877 245.867 293.672 245.804 293.468 245.739C293.06 245.611 292.653 245.479 292.247 245.343C291.894 245.225 291.542 245.104 291.19 244.98L290.874 244.869C290.578 244.763 290.284 244.656 289.99 244.547C289.88 244.506 289.771 244.465 289.662 244.424L289.388 244.32L289.107 244.477C288.945 244.568 288.784 244.658 288.625 244.746C288.466 244.834 288.309 244.922 288.153 245.008C288.041 245.07 287.931 245.131 287.821 245.192L287.57 245.331L287.373 245.441C287.258 245.505 287.145 245.568 287.034 245.631C283.253 247.752 279.247 249.435 275.124 250.764C274.814 250.864 274.504 250.961 274.193 251.057C273.677 251.216 273.16 251.369 272.641 251.517C272.345 251.602 272.048 251.685 271.75 251.766L271.449 251.848C270.707 252.048 269.962 252.237 269.215 252.417C268.966 252.477 268.717 252.535 268.468 252.593C268.259 252.641 268.051 252.688 267.842 252.735C267.161 252.887 266.479 253.031 265.795 253.168C265.624 253.202 265.453 253.236 265.282 253.269C264.94 253.335 264.597 253.4 264.254 253.463C263.912 253.526 263.569 253.587 263.225 253.646C263.054 253.676 262.882 253.705 262.71 253.733C262.366 253.791 262.022 253.847 261.678 253.901C260.99 254.008 260.3 254.109 259.61 254.203C259.413 254.23 259.215 254.257 259.018 254.282C258.425 254.36 257.832 254.432 257.239 254.5C256.843 254.546 256.447 254.589 256.051 254.63C253.674 254.876 251.288 255.049 248.897 255.16V255.264C248.216 255.28 247.535 255.292 246.854 255.3C246.173 255.308 245.492 255.313 244.811 255.312C244.357 255.312 243.903 255.31 243.449 255.306C242.995 255.31 242.54 255.312 242.086 255.312C241.405 255.313 240.724 255.308 240.043 255.3C239.362 255.292 238.681 255.28 238 255.264V255.16C237.801 255.15 237.601 255.141 237.402 255.131C237.004 255.11 236.606 255.089 236.208 255.065C235.81 255.041 235.412 255.016 235.014 254.988C234.616 254.961 234.219 254.932 233.821 254.9C233.225 254.854 232.63 254.803 232.035 254.747C231.638 254.71 231.242 254.671 230.846 254.63C229.657 254.506 228.471 254.365 227.287 254.203C226.597 254.109 225.907 254.008 225.219 253.9C224.874 253.847 224.531 253.791 224.187 253.733C224.015 253.705 223.843 253.675 223.671 253.646C223.328 253.587 222.985 253.525 222.642 253.463C222.299 253.4 221.957 253.335 221.615 253.269C221.443 253.235 221.273 253.202 221.102 253.168C220.418 253.031 219.735 252.887 219.054 252.735C218.846 252.688 218.637 252.641 218.429 252.593C217.387 252.352 216.349 252.093 215.317 251.813C214.949 251.714 214.583 251.611 214.217 251.506C213.966 251.434 213.715 251.362 213.464 251.287C213.259 251.226 213.054 251.165 212.849 251.102C212.44 250.977 212.032 250.848 211.625 250.716C208.775 249.791 205.983 248.696 203.282 247.403C202.124 246.849 200.984 246.259 199.863 245.63L199.647 245.509C199.501 245.428 199.353 245.345 199.202 245.262C198.976 245.136 198.745 245.008 198.509 244.878C198.274 244.747 198.034 244.613 197.79 244.477L197.546 244.34C197.218 244.156 196.885 243.967 196.548 243.773L196.295 243.626C195.661 243.257 195.018 242.87 194.379 242.463C193.9 242.158 193.423 241.842 192.956 241.515C192.8 241.406 192.645 241.296 192.491 241.184C192 240.827 191.52 240.456 191.061 240.073C190.526 239.626 190.018 239.16 189.549 238.675L189.535 238.661C189.376 238.495 189.22 238.328 189.07 238.157C188.92 237.987 188.775 237.815 188.635 237.64L188.563 237.549C188.475 237.438 188.39 237.325 188.307 237.211L188.216 237.086L188.001 236.773L187.896 236.611L187.72 236.325C187.296 235.609 186.968 234.859 186.764 234.07L186.732 233.941L186.686 233.74C186.637 233.512 186.6 233.283 186.572 233.052L186.567 233.01C186.546 232.826 186.531 232.642 186.521 232.456C186.356 232.473 186.189 232.49 186.023 232.507C184.661 232.641 183.295 232.751 181.927 232.84C181.107 232.893 180.286 232.938 179.464 232.976V233.08C178.783 233.096 178.102 233.109 177.421 233.117C176.74 233.125 176.059 233.129 175.378 233.129C174.923 233.129 174.469 233.127 174.015 233.123C172.88 233.133 171.745 233.13 170.609 233.117C169.928 233.109 169.247 233.096 168.566 233.08V232.976C166.937 232.901 165.31 232.797 163.687 232.66C163.145 232.614 162.605 232.565 162.064 232.512C161.629 232.469 161.194 232.424 160.759 232.376C160.383 232.335 160.007 232.292 159.631 232.247C159.433 232.224 159.236 232.2 159.038 232.175C158.445 232.101 157.853 232.022 157.262 231.938C156.277 231.798 155.293 231.644 154.312 231.475C154.116 231.442 153.919 231.407 153.723 231.372C153.331 231.303 152.94 231.231 152.548 231.156C151.57 230.97 150.594 230.768 149.621 230.551C145.867 229.713 142.155 228.631 138.562 227.248C138.163 227.094 137.765 226.936 137.369 226.775C136.379 226.372 135.398 225.946 134.429 225.494C133.072 224.862 131.738 224.18 130.43 223.447C130.319 223.384 130.205 223.321 130.091 223.257L129.894 223.148L129.643 223.008C129.533 222.947 129.422 222.886 129.31 222.824C129.155 222.738 128.998 222.651 128.839 222.562C128.724 222.499 128.609 222.434 128.492 222.369C128.321 222.274 128.148 222.176 127.973 222.078C127.855 222.011 127.736 221.944 127.617 221.877C127.481 221.799 127.344 221.721 127.207 221.642C127.043 221.548 126.878 221.452 126.713 221.355C126.508 221.236 126.303 221.114 126.097 220.991C125.927 220.889 125.756 220.785 125.585 220.68C125.244 220.47 124.902 220.254 124.563 220.033C124.393 219.923 124.224 219.811 124.056 219.698C123.887 219.584 123.72 219.47 123.553 219.353L123.305 219.178C123.139 219.06 122.975 218.941 122.813 218.821C122.569 218.64 122.329 218.456 122.093 218.269C121.857 218.081 121.625 217.89 121.399 217.696L121.174 217.501C121.026 217.369 120.88 217.237 120.737 217.103L120.524 216.9C120.383 216.764 120.246 216.627 120.112 216.488C119.977 216.349 119.846 216.209 119.719 216.066L119.53 215.852C119.219 215.493 118.931 215.123 118.67 214.743C118.461 214.439 118.27 214.128 118.097 213.81L117.972 213.57C117.931 213.49 117.891 213.409 117.853 213.328C117.777 213.165 117.706 213.001 117.64 212.835C117.476 212.42 117.345 211.994 117.253 211.557C117.203 211.321 117.164 211.084 117.136 210.846C117.108 210.608 117.09 210.37 117.082 210.13C117.077 210.011 117.075 209.891 117.075 209.771C117.077 208.453 117.336 207.124 117.651 205.836L117.663 205.786C117.696 205.653 117.729 205.521 117.763 205.388L117.796 205.262L117.812 205.2L117.891 204.9L117.927 204.767L117.953 204.67L117.966 204.623C117.994 204.523 118.021 204.423 118.049 204.324L118.079 204.221C118.115 204.095 118.151 203.97 118.188 203.845L118.219 203.738C118.314 203.42 118.412 203.103 118.514 202.787L118.527 202.746C118.573 202.606 118.619 202.466 118.665 202.327C118.675 202.298 118.685 202.268 118.695 202.239C118.739 202.109 118.784 201.978 118.829 201.847C118.831 201.842 118.832 201.836 118.835 201.83C123.66 187.92 135.203 176.612 148.867 170.925C155.081 168.338 161.674 166.852 168.371 166.325C168.477 165.543 168.644 164.764 168.831 164L168.833 163.99C168.87 163.84 168.907 163.691 168.946 163.542L168.976 163.426L168.989 163.372C169.018 163.263 169.047 163.153 169.076 163.044L169.105 162.939L169.134 162.834L169.147 162.784C169.175 162.683 169.203 162.581 169.232 162.48L169.254 162.403C169.293 162.267 169.332 162.131 169.372 161.996L169.397 161.911C169.493 161.587 169.593 161.263 169.697 160.941L169.704 160.922C169.753 160.769 169.803 160.617 169.854 160.465C169.894 160.345 169.935 160.226 169.976 160.106C169.988 160.072 170 160.037 170.012 160.003C170.057 159.871 170.103 159.74 170.15 159.609C170.157 159.59 170.164 159.57 170.171 159.551C170.223 159.405 170.276 159.26 170.33 159.115C170.331 159.112 170.332 159.109 170.334 159.106C171.054 157.161 171.905 155.269 172.876 153.438C135.225 163.788 110.405 181.502 110.405 201.616C110.405 233.53 172.89 259.402 249.969 259.402C277.922 259.402 303.956 255.999 325.786 250.14C325.771 250.14 325.756 250.14 325.741 250.14C325.409 250.139 325.077 250.138 324.744 250.135Z" fill="var(--fill-0, #EEC7BF)"/>
<path id="Vector_13" d="M186.331 149.585C187.136 150.873 189.008 150.755 190.419 150.256C192.644 149.471 194.617 148.152 196.523 146.715C197.619 145.888 198.693 145.023 199.779 144.195C209.115 137.087 220.211 132.44 231.719 130.82C232.281 130.741 232.924 130.616 233.206 130.11C234.089 128.526 229.802 128.759 229.287 128.746C227.121 128.691 224.953 128.852 222.808 129.159C218.523 129.774 214.339 130.968 210.212 132.281L210.071 132.326C203.916 134.29 197.763 136.54 192.392 140.202C191.158 141.044 189.954 141.979 188.906 143.053C187.956 144.026 187.134 145.114 186.537 146.349C186.046 147.364 185.736 148.634 186.331 149.585Z" fill="var(--fill-0, #79280F)"/>
<path id="Vector_14" d="M205.31 152.631C204.886 153.563 204.617 154.729 205.126 155.601C205.815 156.781 207.422 156.669 208.636 156.208C211.648 155.064 214.129 152.711 216.691 150.624C217.195 150.214 217.704 149.813 218.22 149.421C225.925 143.553 234.89 139.696 244.16 138.278C244.643 138.204 245.196 138.088 245.439 137.623C246.201 136.167 242.518 136.39 242.075 136.38C240.215 136.335 238.352 136.487 236.508 136.774C232.826 137.348 229.229 138.452 225.681 139.667L225.559 139.709C220.267 141.525 214.976 143.603 210.353 146.977C210.21 147.081 210.068 147.187 209.926 147.295C208.06 148.71 206.318 150.413 205.31 152.631Z" fill="var(--fill-0, #79280F)"/>
<path id="Vector_15" d="M240.691 150.473C235.976 152.107 231.261 153.976 227.141 157.009C225.337 158.338 223.613 159.948 222.646 162.092C222.268 162.93 222.028 163.979 222.481 164.762C223.094 165.822 224.527 165.721 225.608 165.306C228.292 164.277 230.503 162.162 232.787 160.286C239.948 154.402 248.452 150.544 257.263 149.181C257.694 149.115 258.186 149.011 258.403 148.593C259.083 147.284 255.801 147.486 255.406 147.476C253.749 147.436 252.089 147.573 250.447 147.832C247.166 148.349 243.96 149.343 240.799 150.436L240.691 150.473Z" fill="var(--fill-0, #79280F)"/>
<path id="Vector_16" d="M345.951 183.136C345.172 184.03 344.359 184.892 343.512 185.715C345.652 186.338 347.761 187.075 349.828 187.935C351.247 188.526 352.643 189.177 354.011 189.886C356.82 187.041 359.03 183.645 360.329 179.74C360.428 179.441 360.493 179.135 360.582 178.834C360.618 178.975 360.663 179.112 360.697 179.254L360.688 179.22C360.649 179.062 360.61 178.904 360.569 178.746L360.538 178.625C360.494 178.456 360.449 178.287 360.403 178.118L360.392 178.081C360.343 177.901 360.293 177.722 360.241 177.543L360.239 177.536C358.657 172.049 356.023 166.933 352.623 162.35C353.872 170.026 351.038 177.299 345.951 183.136Z" fill="var(--fill-0, #973413)"/>
<path id="Vector_17" d="M360.329 179.74C359.03 183.645 356.82 187.041 354.011 189.886C354.908 190.351 355.793 190.84 356.665 191.353C358.835 189.551 360.572 187.445 361.095 184.975C361.108 184.916 361.119 184.857 361.13 184.798C361.141 184.739 361.152 184.68 361.161 184.621C361.21 184.324 361.241 184.027 361.258 183.728C361.267 183.549 361.272 183.369 361.272 183.189C361.271 181.871 361.012 180.542 360.697 179.254C360.663 179.113 360.618 178.975 360.582 178.834C360.493 179.135 360.428 179.441 360.329 179.74Z" fill="var(--fill-0, #862E0F)"/>
<path id="Vector_18" d="M265.468 164.839C266.273 166.127 268.145 166.009 269.556 165.51C271.781 164.724 273.754 163.406 275.661 161.968C276.757 161.142 277.83 160.276 278.917 159.449C288.252 152.341 299.348 147.694 310.856 146.074C311.418 145.995 312.061 145.87 312.343 145.364C313.226 143.78 308.939 144.013 308.423 144C306.257 143.945 304.09 144.106 301.945 144.413C297.66 145.028 293.476 146.221 289.349 147.535L289.208 147.58C283.053 149.544 276.899 151.793 271.529 155.456C270.295 156.298 269.09 157.233 268.042 158.307C267.092 159.28 266.271 160.368 265.674 161.603C265.183 162.617 264.873 163.887 265.468 164.839Z" fill="var(--fill-0, #79280F)"/>
<path id="Vector_19" d="M284.447 167.884C284.024 168.817 283.754 169.983 284.263 170.855C284.952 172.035 286.56 171.922 287.773 171.462C290.786 170.318 293.266 167.965 295.828 165.878C296.332 165.468 296.842 165.067 297.357 164.674C305.062 158.807 314.027 154.95 323.297 153.532C323.78 153.458 324.333 153.342 324.576 152.877C325.339 151.421 321.655 151.644 321.212 151.634C319.352 151.589 317.489 151.741 315.645 152.028C311.963 152.601 308.366 153.706 304.818 154.921L304.697 154.963C299.404 156.779 294.113 158.857 289.491 162.231C289.348 162.335 289.205 162.441 289.063 162.549C287.197 163.964 285.455 165.667 284.447 167.884Z" fill="var(--fill-0, #79280F)"/>
<path id="Vector_20" d="M319.828 165.727C315.113 167.361 310.398 169.23 306.279 172.263C304.474 173.592 302.75 175.201 301.783 177.346C301.406 178.184 301.165 179.232 301.618 180.016C302.232 181.076 303.664 180.974 304.746 180.56C307.43 179.531 309.641 177.416 311.924 175.54C319.086 169.656 327.59 165.798 336.401 164.435C336.831 164.368 337.324 164.264 337.541 163.846C338.22 162.537 334.938 162.739 334.544 162.73C332.886 162.69 331.227 162.827 329.584 163.086C326.303 163.602 323.098 164.596 319.937 165.689L319.828 165.727Z" fill="var(--fill-0, #79280F)"/>
<path id="Vector_21" d="M222.575 191.52C222.996 191.381 223.418 191.248 223.841 191.119C223.349 190.377 222.837 189.648 222.306 188.932C222.448 189.8 222.536 190.663 222.575 191.52Z" fill="var(--fill-0, #973413)"/>
<path id="Vector_22" d="M135.151 191.422C135.956 192.709 137.828 192.591 139.239 192.093C141.464 191.307 143.437 189.989 145.343 188.551C146.439 187.725 147.513 186.859 148.599 186.031C157.935 178.924 169.031 174.277 180.538 172.656C181.101 172.577 181.744 172.452 182.026 171.946C182.909 170.362 178.621 170.595 178.106 170.582C175.94 170.528 173.773 170.688 171.627 170.995C167.342 171.61 163.158 172.803 159.032 174.117L158.891 174.162C152.736 176.126 146.582 178.376 141.211 182.038C139.978 182.88 138.773 183.815 137.725 184.889C136.775 185.863 135.953 186.95 135.356 188.185C134.866 189.2 134.556 190.47 135.151 191.422Z" fill="var(--fill-0, #79280F)"/>
<path id="Vector_23" d="M154.13 194.467C153.706 195.399 153.437 196.566 153.946 197.438C154.635 198.617 156.243 198.505 157.457 198.044C160.469 196.901 162.949 194.547 165.512 192.461C166.015 192.051 166.525 191.649 167.04 191.257C174.745 185.39 183.711 181.532 192.98 180.114C193.463 180.04 194.016 179.924 194.259 179.459C195.022 178.003 191.338 178.227 190.895 178.216C189.035 178.171 187.172 178.323 185.329 178.61C181.646 179.184 178.049 180.289 174.501 181.503L174.38 181.545C169.088 183.362 163.797 185.44 159.174 188.813C159.031 188.917 158.889 189.023 158.747 189.131C156.88 190.546 155.138 192.25 154.13 194.467Z" fill="var(--fill-0, #79280F)"/>
<path id="Vector_24" d="M204.227 189.312C202.569 189.272 200.91 189.409 199.267 189.668C195.986 190.185 192.781 191.179 189.619 192.272L189.511 192.309C184.796 193.943 180.081 195.812 175.961 198.846C174.157 200.174 172.433 201.784 171.466 203.928C171.088 204.766 170.848 205.815 171.301 206.598C171.914 207.658 173.347 207.557 174.429 207.142C177.113 206.114 179.323 203.998 181.607 202.122C188.768 196.238 197.272 192.38 206.083 191.017C206.514 190.951 207.007 190.847 207.224 190.429C207.903 189.119 204.621 189.321 204.227 189.312Z" fill="var(--fill-0, #79280F)"/>
<path id="Vector_25" d="M363.545 208.432C364.14 207.48 363.829 206.21 363.339 205.196C362.742 203.961 361.921 202.873 360.97 201.9C359.922 200.826 358.718 199.89 357.484 199.049C352.113 195.386 345.96 193.137 339.805 191.173L339.664 191.128C335.537 189.815 331.353 188.621 327.068 188.006C324.923 187.699 322.755 187.539 320.59 187.593C320.074 187.606 315.787 187.373 316.67 188.957C316.952 189.463 317.595 189.588 318.157 189.667C329.665 191.287 340.761 195.934 350.096 203.042C351.183 203.87 352.257 204.735 353.352 205.562C355.259 206.999 357.232 208.317 359.457 209.103C360.868 209.602 362.74 209.72 363.545 208.432Z" fill="var(--fill-0, #79280F)"/>
<path id="Vector_26" d="M341.239 215.055C342.453 215.516 344.061 215.628 344.75 214.448C345.259 213.576 344.989 212.41 344.566 211.478C343.558 209.26 341.816 207.557 339.949 206.142C339.807 206.034 339.665 205.928 339.522 205.824C334.9 202.45 329.608 200.372 324.316 198.556L324.195 198.514C320.647 197.299 317.05 196.195 313.367 195.621C311.524 195.334 309.661 195.182 307.801 195.227C307.358 195.237 303.675 195.014 304.437 196.47C304.68 196.935 305.233 197.051 305.716 197.125C314.985 198.543 323.951 202.401 331.656 208.268C332.171 208.66 332.681 209.061 333.184 209.471C335.746 211.558 338.227 213.911 341.239 215.055Z" fill="var(--fill-0, #79280F)"/>
<path id="Vector_27" d="M294.469 206.323C294.075 206.332 290.793 206.13 291.472 207.439C291.689 207.857 292.182 207.961 292.612 208.028C301.423 209.391 309.927 213.249 317.089 219.132C319.372 221.008 321.583 223.124 324.267 224.153C325.349 224.567 326.781 224.669 327.395 223.609C327.848 222.825 327.607 221.777 327.23 220.939C326.263 218.794 324.538 217.184 322.734 215.856C318.615 212.823 313.9 210.954 309.184 209.319L309.076 209.282C305.915 208.189 302.71 207.195 299.429 206.679C297.786 206.42 296.126 206.283 294.469 206.323Z" fill="var(--fill-0, #79280F)"/>
<path id="Vector_28" d="M281.129 200.38C281.425 202.231 281.347 204.095 280.521 205.812C280.3 206.273 280.037 206.691 279.739 207.072C280.689 208.046 281.51 209.133 282.107 210.368C282.598 211.383 282.908 212.653 282.313 213.605C281.508 214.893 279.636 214.775 278.225 214.276C276 213.49 274.027 212.172 272.121 210.734C267.816 211.426 263.134 211.028 258.718 211.314C260.584 212.73 262.326 214.433 263.334 216.65C263.758 217.583 264.027 218.749 263.518 219.621C262.829 220.801 261.221 220.689 260.008 220.228C256.995 219.084 254.515 216.731 251.953 214.644C251.449 214.234 250.939 213.833 250.424 213.44L250.29 213.538C249.806 213.892 250.094 213.653 249.849 213.914C249.727 214.045 249.305 214.627 249.295 214.61C248.093 216.679 248.063 219.62 247.897 221.943C247.71 224.57 247.571 227.155 246.693 229.663C245.643 232.665 243.581 235.08 241.117 237.041C235.336 241.642 227.828 243.957 220.475 242.939C212.947 241.897 206.722 237.514 201.83 231.902C196.743 226.065 193.909 218.792 195.158 211.116C195.158 211.116 191.033 216.669 189.57 220.688C184.769 219.952 180.179 217.907 176.347 214.858C173.883 212.897 171.821 210.482 170.771 207.48C169.894 204.972 169.754 202.387 169.567 199.76C169.402 197.436 169.372 194.496 168.169 192.427C168.159 192.444 167.737 191.862 167.615 191.731C167.37 191.47 167.658 191.709 167.175 191.355L167.04 191.257C166.525 191.649 166.015 192.051 165.512 192.461C162.949 194.548 160.469 196.901 157.457 198.044C156.243 198.505 154.635 198.618 153.946 197.438C153.437 196.566 153.706 195.4 154.13 194.467C155.138 192.25 156.88 190.547 158.747 189.131C154.33 188.845 149.648 189.243 145.344 188.551C143.437 189.989 141.464 191.307 139.239 192.093C137.828 192.592 135.956 192.709 135.151 191.422C134.556 190.47 134.866 189.2 135.357 188.185C135.954 186.95 136.775 185.863 137.726 184.889C137.428 184.508 137.164 184.09 136.943 183.629C136.117 181.912 136.039 180.048 136.335 178.197C129.903 183.125 124.56 189.42 121.028 196.614C121.605 197.763 122.297 198.889 123.101 199.931C126.283 204.048 131.092 206.392 136.182 207.096C141.308 207.806 146.305 205.968 151.39 205.714C153.433 205.612 155.88 205.701 157.491 207.144C159.772 209.187 159.071 212.797 159.69 215.511C161.254 222.377 167.636 225.292 173.891 226.843C178.197 227.911 182.592 228.34 187.001 228.367C187.028 228.251 187.056 228.135 187.085 228.019C187.119 227.878 187.163 227.74 187.199 227.6C187.288 227.901 187.353 228.206 187.453 228.506C189.803 235.574 195.138 240.972 201.607 244.459C207.69 247.739 214.663 249.486 221.515 250.125C228.883 250.812 236.353 250.816 243.573 249.026C249.828 247.475 256.21 244.56 257.775 237.694C258.393 234.98 257.692 231.37 259.973 229.326C261.584 227.884 264.032 227.795 266.074 227.897C271.16 228.151 276.157 229.989 281.282 229.279C286.372 228.575 291.181 226.23 294.363 222.113C295.169 221.07 295.858 219.948 296.436 218.797C292.904 211.604 287.559 205.307 281.129 200.38Z" fill="var(--fill-0, #973413)"/>
<path id="Vector_29" d="M282.313 213.605C282.908 212.653 282.598 211.383 282.107 210.368C281.51 209.133 280.689 208.046 279.739 207.072C278.691 205.998 277.486 205.063 276.252 204.222C270.882 200.559 264.728 198.31 258.573 196.346L258.432 196.301C254.305 194.987 250.121 193.793 245.836 193.179C243.691 192.871 241.523 192.711 239.357 192.765C238.842 192.778 234.555 192.545 235.438 194.13C235.72 194.636 236.363 194.76 236.926 194.839C248.433 196.46 259.529 201.106 268.865 208.215C269.951 209.042 271.025 209.907 272.121 210.734C274.027 212.172 276.001 213.49 278.225 214.276C279.637 214.775 281.508 214.893 282.313 213.605Z" fill="var(--fill-0, #79280F)"/>
<path id="Vector_30" d="M260.008 220.227C261.221 220.688 262.829 220.801 263.518 219.621C264.027 218.749 263.758 217.583 263.334 216.65C262.326 214.433 260.584 212.73 258.718 211.314C258.576 211.207 258.433 211.1 258.29 210.996C253.668 207.623 248.376 205.545 243.084 203.728L242.963 203.687C239.415 202.472 235.818 201.367 232.135 200.793C230.292 200.506 228.429 200.354 226.568 200.399C226.126 200.409 222.442 200.186 223.204 201.642C223.448 202.107 224.001 202.223 224.484 202.297C233.753 203.715 242.719 207.573 250.424 213.44C250.939 213.832 251.449 214.234 251.952 214.644C254.515 216.73 256.995 219.084 260.008 220.227Z" fill="var(--fill-0, #79280F)"/>
<path id="Vector_31" d="M213.237 211.495C212.843 211.505 209.561 211.303 210.241 212.612C210.457 213.03 210.95 213.134 211.381 213.2C220.192 214.563 228.696 218.421 235.857 224.305C238.141 226.181 240.351 228.296 243.036 229.325C244.117 229.74 245.55 229.841 246.163 228.781C246.616 227.998 246.376 226.949 245.998 226.111C245.031 223.967 243.307 222.357 241.503 221.028C237.383 217.995 232.669 216.126 227.953 214.492L227.845 214.454C224.683 213.361 221.478 212.368 218.197 211.851C216.555 211.592 214.895 211.455 213.237 211.495Z" fill="var(--fill-0, #79280F)"/>
</g>
</svg>
