<svg width="104" height="64" viewBox="0 0 104 64" fill="none" xmlns="http://www.w3.org/2000/svg">
<path d="M83.1558 39.7931C83.0688 39.782 82.9805 39.782 82.8935 39.7931C82.6246 39.8302 82.4729 39.7931 82.6246 39.6779C83.0155 39.3585 83.5063 39.5107 84.181 39.5516C84.8565 39.5925 85.2063 38.9573 85.4463 38.9684C85.8446 38.9461 86.2875 39.2062 86.2801 38.9907C86.2322 38.7084 85.8743 38.6192 85.2508 38.1177C84.6273 37.6162 83.9855 37.8428 82.9711 38.2069C81.9566 38.571 81.5838 38.5301 81.4733 38.5041C81.3627 38.4781 81.3958 38.3443 81.9236 38.1921C82.7351 37.9432 82.5727 37.2596 82.7978 37.1965C83.023 37.1334 83.5171 36.8956 83.2474 36.7953C82.9468 36.7152 82.63 36.7152 82.3293 36.7953C80.9387 36.6467 80.1601 37.854 79.8502 38.2552C79.2268 39.0687 78.0463 38.4558 75.5379 38.0695C74.408 37.8819 73.2916 37.6201 72.1957 37.2856C72.1404 37.268 72.0919 37.2335 72.0569 37.1869C72.0219 37.1404 72.0021 37.084 72.0002 37.0256C72.0058 36.4622 71.8554 35.9085 71.5662 35.4263C71.277 34.9441 70.8601 34.5525 70.3623 34.2953C70.3502 34.2893 70.3397 34.2804 70.3316 34.2695C70.3235 34.2585 70.3182 34.2458 70.3161 34.2323C70.3139 34.2188 70.3149 34.2051 70.3192 34.1921C70.3233 34.1792 70.3306 34.1674 70.3402 34.1578L70.7091 33.7864C70.9673 33.5189 67.9719 32.2671 62.7152 33.0657C62.692 33.0684 62.6685 33.0629 62.6489 33.05C62.6294 33.0371 62.615 33.0177 62.6082 32.9951L62.5122 32.646C62.5084 32.6327 62.5075 32.6187 62.5097 32.6051C62.5118 32.5915 62.517 32.5784 62.5247 32.567C62.5325 32.5557 62.5427 32.5462 62.5546 32.5393C62.5665 32.5323 62.5798 32.5282 62.5935 32.5271C62.8716 32.5177 63.137 32.4072 63.3405 32.216C63.544 32.0248 63.6717 31.7658 63.7001 31.4869C63.7517 30.9074 63.5858 30.5471 63.6116 30.1608C63.6123 30.1476 63.6158 30.1347 63.6221 30.123C63.6283 30.1114 63.637 30.1013 63.6477 30.0934C63.6582 30.0856 63.6704 30.0803 63.6833 30.0778C63.6963 30.0753 63.7095 30.0757 63.7223 30.0791C63.9244 30.142 64.1381 30.1576 64.3471 30.1247C64.5562 30.092 64.755 30.0115 64.9285 29.8896C64.9445 29.876 64.9648 29.8686 64.9857 29.8686C65.0067 29.8686 65.0269 29.876 65.0429 29.8896C65.2172 30.1188 65.4731 30.2708 65.7566 30.3138C66.0401 30.3567 66.3291 30.2872 66.5628 30.1199C66.5707 30.1143 66.5797 30.1103 66.5892 30.1081C66.5988 30.106 66.6086 30.1058 66.6182 30.1075C66.6279 30.1093 66.637 30.1129 66.6452 30.1182C66.6534 30.1235 66.6605 30.1304 66.666 30.1385C66.8726 30.4468 67.8317 31.7284 69.0749 30.8815C69.0961 30.8667 69.1221 30.8607 69.1476 30.8649C69.173 30.869 69.1959 30.8829 69.2114 30.9037C69.4143 31.2084 70.2332 32.2299 71.7936 31.6021C71.8031 31.5966 71.814 31.5936 71.825 31.5936C71.836 31.5936 71.8468 31.5966 71.8563 31.6021C72.0261 31.7544 72.963 32.5494 73.7635 32.007C74.6267 31.4089 73.7045 29.351 71.7531 27.423C70.5689 26.2083 69.9602 26.2492 69.4364 26.1303C69.3308 26.1096 69.2312 26.0652 69.145 26.0003C69.0418 25.9225 68.9695 25.8102 68.9412 25.6836C68.9128 25.557 68.9301 25.4243 68.99 25.3093C69.1302 24.9602 69.8975 24.4327 70.2369 24.2358C70.3765 24.1602 70.5298 24.1137 70.6875 24.099C70.8454 24.0843 71.0045 24.1018 71.1554 24.1504C72.1404 24.2804 72.6642 23.9907 72.8782 23.8235C72.8924 23.8113 72.9093 23.8024 72.9274 23.7977C72.9456 23.7929 72.9645 23.7923 72.9829 23.7959C73.0013 23.7994 73.0187 23.8071 73.0337 23.8183C73.0488 23.8295 73.0612 23.844 73.07 23.8606C73.3282 24.3138 74.1767 25.6734 75.3682 25.7848C76.3716 25.8777 76.8733 25.1905 76.877 24.3696C76.8774 24.3463 76.8733 24.3232 76.8648 24.3016C76.8563 24.28 76.8437 24.2603 76.8276 24.2437C76.8114 24.2271 76.7921 24.2139 76.7708 24.2049C76.7495 24.1959 76.7266 24.1913 76.7036 24.1913C76.2425 24.1913 74.9292 24.1058 74.2025 23.2105C74.1978 23.2063 74.194 23.2012 74.1915 23.1955C74.1888 23.1897 74.1875 23.1835 74.1875 23.1771C74.1875 23.1708 74.1888 23.1645 74.1915 23.1587C74.194 23.153 74.1978 23.1479 74.2025 23.1437C74.4355 23.0179 74.6161 22.8124 74.7116 22.5642C74.7161 22.5497 74.7248 22.537 74.7367 22.5277C74.7486 22.5184 74.7629 22.513 74.778 22.5122C74.9551 22.5053 75.1325 22.5215 75.3055 22.5605C75.6744 22.6533 75.7223 21.8547 75.0399 21.0003C75.0285 20.9819 75.0223 20.9607 75.0223 20.939C75.0223 20.9173 75.0285 20.8961 75.0399 20.8777C75.2322 20.5405 75.3552 20.1677 75.4015 19.7816C75.4478 19.3955 75.4164 19.0039 75.3092 18.6303C75.2243 18.0322 75.8847 18.1511 75.7297 17.0738C75.7341 16.4066 75.8591 15.7457 76.0986 15.1236C76.2277 14.7521 77.2643 12.2707 76.0986 9.84127C74.9329 7.41182 72.7786 7.35236 71.86 7.9839C70.9415 8.61538 70.4878 9.78554 71.8047 11.7618C72.797 13.2476 72.3285 13.894 71.8969 13.9312C70.8124 14.0278 71.3473 11.5909 69.702 10.6957C69.0233 10.3242 67.378 10.7699 67.4517 12.1555C67.5255 13.5411 68.6248 13.8383 68.6322 14.923C68.6322 15.64 67.4887 15.6919 67.3005 14.4549C67.1124 13.2179 65.4302 14.3063 65.6995 15.9409C65.7833 16.339 65.9704 16.7078 66.242 17.0093C66.5135 17.3108 66.8598 17.5343 67.2452 17.657C67.6399 17.787 66.7988 18.868 65.9135 19.3955C64.0247 20.5099 58.9967 21.5018 54.2454 20.9297C53.1055 20.7923 52.4009 22.2596 52.9985 23.2403C53.0087 23.2561 53.0156 23.2737 53.0189 23.2923C53.0221 23.3107 53.0217 23.3297 53.0175 23.3481C53.0134 23.3665 53.0057 23.3838 52.9949 23.399C52.9839 23.4143 52.9702 23.4273 52.9543 23.4371C52.0504 23.9613 51.0004 24.1715 49.9662 24.0352C48.6703 23.7783 47.447 23.2352 46.3843 22.4453C45.9674 22.1036 46.2588 21.3309 46.6351 20.6251C47.0114 19.9193 48.9481 15.053 47.609 10.7253C47.1671 9.14639 46.1829 7.77674 44.8318 6.86037C43.4806 5.94397 41.8502 5.54042 40.2311 5.72161C40.141 5.7324 40.0497 5.72302 39.9636 5.69412C39.8775 5.66522 39.7988 5.61753 39.7331 5.55445C38.5453 4.36945 32.2778 -1.42553 26.5083 1.73199C26.4246 1.78021 26.3299 1.80558 26.2335 1.80558C26.1371 1.80558 26.0423 1.78021 25.9587 1.73199C24.8335 1.08563 20.3515 -1.21007 16.4707 0.821883C13.0216 2.7424 13.2208 6.83234 13.8442 8.65251C14.4676 10.4727 15.7809 9.84494 16.124 9.5515C17.4963 8.37767 17.393 7.87618 18.5734 7.72013C20.3589 7.47868 23.6752 10.5507 26.1763 13.868C28.6774 17.1853 31.3925 20.9929 35.2215 23.2217C35.2317 23.2272 35.2404 23.235 35.2472 23.2443C35.254 23.2537 35.2586 23.2644 35.2607 23.2758C35.2628 23.2872 35.2624 23.2989 35.2594 23.3101C35.2565 23.3213 35.2511 23.3317 35.2437 23.3405C34.9523 23.6563 33.746 24.9676 32.8496 25.7514C31.8241 26.6504 32.5692 27.3822 33.0746 27.5865C33.7017 27.8317 34.6129 27.958 35.9299 27.4082C35.9456 27.3991 35.9634 27.3942 35.9815 27.3942C35.9996 27.3942 36.0174 27.3991 36.0331 27.4082C36.2713 27.5694 36.5423 27.6748 36.8262 27.7165C37.4046 27.8271 38.0005 27.8017 38.5674 27.6422C38.586 27.6366 38.6058 27.6368 38.6242 27.6428C38.6427 27.6488 38.6589 27.6602 38.6707 27.6757C38.8072 27.8688 39.4085 28.5189 40.9099 28.3777C40.9309 28.3768 40.9517 28.3824 40.9695 28.3936C40.9873 28.4049 41.0013 28.4214 41.0095 28.4409C41.1017 28.6749 41.5038 29.4438 42.854 29.4438C43.1491 29.4698 42.699 30.4766 43.3188 31.5984C43.3241 31.6071 43.3278 31.6169 43.3294 31.6271C43.331 31.6373 43.3306 31.6477 43.3282 31.6576C43.3257 31.6677 43.3214 31.6771 43.3154 31.6855C43.3094 31.6938 43.3017 31.7008 43.293 31.7061C42.9536 31.9216 41.264 32.8391 38.8663 31.4387C38.3424 31.1155 38.715 32.4639 38.3683 32.5122C38.0214 32.5605 37.6563 31.799 37.5161 31.4907C37.3206 31.0598 36.2397 31.4127 36.2397 33.909C36.2397 34.0092 36.2397 34.117 36.2397 34.2322C36.2432 34.2819 36.228 34.3312 36.1973 34.3703C36.1667 34.4095 36.1226 34.4357 36.0737 34.4439C32.1745 35.0977 29.0315 33.7344 28.825 33.4929C28.6184 33.2514 28.825 32.9914 29.3377 32.8651C30.3264 32.6162 30.1936 31.5055 30.4186 31.4015C30.6436 31.2975 30.9793 31.1304 30.5219 31.0784C28.2606 30.9372 28.2495 33.0583 27.7404 32.7759C27.2313 32.4936 27.5154 31.7581 27.6998 31.5873C29.1237 30.7106 28.5151 29.5553 28.6663 29.3584C28.8176 29.1615 28.943 28.8606 28.4634 28.9126C26.6189 29.1949 26.346 30.5174 26.3238 31.1415C26.3238 31.5389 26.2944 31.955 26.1099 31.6912C25.4385 30.6549 25.9771 30.3614 26.0509 29.1207C26.1246 27.8799 25.457 27.7091 25.5492 27.2633C25.6414 26.8175 25.4828 26.5018 25.2246 26.8473C25.2246 26.8473 22.8821 29.793 26.0177 33.3666C28.4856 36.1786 34.2108 36.0784 36.5459 35.9037C36.591 35.9009 36.636 35.9113 36.6753 35.9337C36.7146 35.9561 36.7465 35.9896 36.7672 36.0301C37.3759 37.1779 38.6117 38.3332 40.9542 38.7641C44.8534 39.4773 49.933 37.1705 51.416 36.6281C51.4328 36.6228 51.4507 36.6224 51.4677 36.6271C51.4847 36.6317 51.5 36.641 51.5119 36.6541C51.7959 36.9848 53.8765 38.8273 58.6684 37.0999C58.6966 37.0901 58.7269 37.0873 58.7564 37.0918C58.786 37.0964 58.814 37.108 58.8381 37.1259C59.4062 37.5903 63.1837 40.5101 67.7432 40.5101C69.2187 40.5101 69.9934 40.0828 70.259 39.8971C70.2714 39.8882 70.2859 39.8824 70.301 39.8804C70.3162 39.8785 70.3316 39.8803 70.3459 39.8859C70.3601 39.8914 70.3728 39.9004 70.3828 39.9121C70.3927 39.9238 70.3997 39.9378 70.4029 39.9528C70.4287 40.0717 70.4656 40.2463 70.4951 40.432C70.532 40.6846 71.2993 40.3391 71.7309 38.9461C71.7505 38.8862 71.7916 38.8358 71.8463 38.8049C71.9009 38.7739 71.965 38.7647 72.0261 38.7789C73.9996 39.2322 77.6701 39.9937 78.1238 40.1274C78.7104 40.302 78.8616 40.889 78.3489 41.7879C77.8361 42.6869 78.6735 43.7084 78.8985 44.0836C79.1235 44.4588 79.426 44.6408 79.4113 43.9462C79.3855 43.3109 79.924 43.3221 80.0864 42.9989C80.5622 42.0479 79.8761 41.7396 80.2007 41.1415C80.6729 40.2871 82.5761 40.692 82.901 41.2641C83.0702 41.5433 83.3101 41.7724 83.5959 41.9283C83.8817 42.0842 84.2033 42.1613 84.5275 42.1519C85.151 42.1259 85.5642 42.1148 85.8042 42.3117C86.0442 42.5085 86.3799 42.6125 86.2545 42.1631C85.7449 40.3689 83.8379 39.8414 83.1591 39.7857" fill="black"/>
<path d="M62.6674 29.0205C62.8848 28.3999 63.2755 27.8555 63.7925 27.4529C64.5118 26.8145 65.3388 26.3113 66.2345 25.967C66.6034 25.8221 66.8579 25.681 66.6883 25.5509C66.1235 25.2832 65.6797 24.811 65.4451 24.2285C65.2016 23.5264 65.2274 22.5606 66.5518 22.4603C67.4305 22.4296 68.3071 22.354 69.1783 22.2337C69.3931 22.1995 69.6003 22.1279 69.7906 22.022C70.1596 21.7842 70.071 21.6505 69.7317 20.9373C69.5157 20.395 69.4619 19.8011 69.5767 19.2285C69.6248 19.097 69.6378 18.9551 69.6145 18.8169C69.5912 18.6787 69.5324 18.5491 69.4439 18.4409C68.3852 17.49 68.1823 19.2545 66.8247 20.2649C63.5047 22.75 57.038 22.5717 56.0531 22.4195C55.0681 22.2671 54.393 22.3823 54.4447 23.1252C54.489 23.7827 55.0829 23.8682 54.7804 24.7151C54.6972 24.9097 54.653 25.1189 54.6505 25.3306C54.648 25.5424 54.6871 25.7526 54.7656 25.9492C54.8442 26.1456 54.9605 26.3245 55.1081 26.4755C55.2556 26.6264 55.4313 26.7465 55.6252 26.8288C56.6396 27.3526 55.6657 28.4819 57.0122 28.9982C57.8938 29.3362 57.857 29.4291 58.0451 29.8972C58.2332 30.3652 58.3218 31.149 59.6018 30.6624C61.0294 30.12 60.8819 31.4425 61.8742 31.3757C62.8665 31.3088 62.3243 30.3392 62.6599 29.0353" fill="#82C341"/>
<path d="M67.7504 26.7916C67.7504 26.7916 67.1529 26.8399 66.9721 27.0925C66.8909 27.2076 66.9352 27.5234 67.4405 27.464C69.4289 27.2559 70.0487 28.0992 70.8566 29.2767C71.6644 30.4543 72.5165 31.3459 72.9777 31.3161C73.2875 31.2975 73.2027 30.6995 72.7895 30.0457C72.0685 28.8494 71.0697 27.8473 69.8789 27.1259C69.2138 26.8185 68.4773 26.7015 67.7504 26.7879" fill="#D5272E"/>
<path d="M69.1452 28.7382C68.6656 28.6676 69.0898 29.392 69.3518 29.7672C69.6136 30.1424 70.1227 31.0971 70.6281 31.0971C71.1335 31.0971 70.1412 28.8868 69.1525 28.7382" fill="#D5272E"/>
<path d="M67.4112 28.8941C67.0424 29.0353 67.2785 29.6891 67.6326 30.2129C67.9867 30.7366 68.4036 30.5583 68.4036 30.1646C68.4036 29.5145 67.865 28.7121 67.4112 28.8941Z" fill="#D5272E"/>
<path d="M73.749 19.5516C73.749 19.221 73.7085 18.909 74.118 18.7418C74.5274 18.5747 74.7119 18.5375 74.7746 18.8421C74.7746 18.8421 74.9553 19.9008 74.4905 20.5063C74.0257 21.1118 73.7306 20.2091 73.7527 19.5516" fill="white"/>
<path d="M69.6247 22.9096C69.534 22.9526 69.4403 22.9886 69.3443 23.0173C68.9017 23.1584 68.4473 23.2591 67.9867 23.3182C67.4851 23.3591 66.8469 23.3182 66.751 23.7566C66.644 24.2655 67.1494 24.5738 67.7286 24.3992C68.2081 24.2506 69.9641 23.1065 69.8091 22.9133C69.7685 22.8576 69.7095 22.8799 69.6247 22.9133" fill="#D5272E"/>
<path d="M72.3358 18.8308C72.0804 18.706 71.8152 18.6029 71.5427 18.5225C70.9673 18.3144 70.7754 18.4928 70.6648 18.5931C70.4545 18.7863 70.3955 19.4104 70.4766 20.079C70.5689 20.8219 70.8455 21.2974 71.5538 21.2231C72.2621 21.1488 72.465 20.0232 72.5498 19.4623C72.5867 19.1912 72.572 18.9423 72.3358 18.8345" fill="white"/>
<path d="M73.9517 22.5343C73.5616 22.4583 73.1624 22.442 72.7675 22.4861C72.6126 22.5269 72.6605 22.6161 72.7122 22.6829C72.7774 22.7539 72.8578 22.8092 72.9472 22.8446C73.0366 22.88 73.1329 22.8946 73.2286 22.8872C73.7783 22.8872 74.1361 22.6049 73.9664 22.5343" fill="#FFCE04"/>
<path d="M74.6268 21.446C74.396 21.2624 74.1385 21.1158 73.8632 21.0115C73.2546 20.7774 73.5239 20.2945 73.1992 20.2685C72.8746 20.2425 72.7197 21.0114 72.7233 21.446C72.7233 21.8175 73.0923 21.9401 73.5828 21.9401C74.1694 21.9401 74.4793 21.9401 74.6379 21.9661C74.7965 21.9921 75.0289 21.7655 74.6379 21.4535" fill="#FFCE04"/>
<path d="M58.8493 32.267C59.6091 32.085 60.2363 32.1556 60.3248 32.7574C60.4097 33.5003 59.089 34.9863 57.7426 35.5992C56.5842 36.1378 54.4705 36.8956 52.9248 35.8332C52.3236 35.4171 53.6921 34.6074 53.6626 34.039C53.6626 33.7567 53.2937 33.5932 52.7404 33.9573C51.7897 34.5723 50.783 35.0947 49.7339 35.5175C48.0038 36.2604 45.1929 36.8399 43.7615 37.0925C41.1277 37.5531 38.7778 36.2381 38.7778 34.6296C38.7778 33.7195 39.427 33.296 41.3306 33.3703C42.1179 33.356 42.8982 33.2181 43.6435 32.9617C44.5048 32.7668 45.4074 32.8991 46.1778 33.3332C47.1922 33.8978 47.5427 33.1214 47.5427 33.1214C47.8747 32.189 46.3622 31.9773 45.7314 31.7433C44.2558 31.1972 44.1083 29.9194 44.9936 29.2433C45.3625 28.9684 46.1741 28.4186 45.7314 27.9839C45.1043 27.3562 43.5181 28.7567 42.7803 28.4558C42.2122 28.2217 42.8319 27.5345 43.887 27.0664C44.2739 26.861 44.7013 26.7448 45.1384 26.7262C45.5754 26.7076 46.0111 26.787 46.4139 26.9587C47.2992 27.3562 48.7268 28.1103 49.081 27.6831C49.5938 27.0702 48.155 26.1786 47.5279 25.9149C46.9008 25.6512 45.3588 24.767 43.1012 23.556C40.9321 22.3896 39.3238 23.6601 37.3207 25.0419C36.2546 25.7849 35.1774 26.6318 34.6499 26.3644C34.1223 26.0969 34.8232 25.3354 36.4464 24.0798C38.0695 22.8242 39.866 21.5241 41.7916 21.8956C43.5254 22.2299 46.2183 24.0315 47.6755 24.6816C48.7822 25.1719 49.9884 26.0635 50.3684 26.9104C50.5971 27.4342 51.2759 27.4379 51.3128 26.9587C51.3349 26.6578 51.3128 26.0523 52.1059 26.0932C52.3512 26.1247 52.5778 26.2414 52.7469 26.4231C52.9159 26.6049 53.0166 26.8402 53.0318 27.0887C53.1646 27.8317 53.8876 27.7871 54.1901 28.1474C54.4927 28.5078 54.2898 29.6147 55.2489 30.2463C56.2707 30.9186 56.2818 30.2723 57.1486 31.6987C57.3375 31.9561 57.6015 32.1478 57.9037 32.2471C58.2059 32.3462 58.5312 32.3481 58.8345 32.2522" fill="#D5272E"/>
<path d="M40.8878 24.3658C40.5005 24.1169 39.7811 24.4438 39.3126 24.7373C38.4752 25.2685 37.4682 26.03 37.9182 26.4498C38.4826 26.9624 39.9176 25.9037 40.6997 25.2648C40.9763 25.0382 41.2567 24.5999 40.8878 24.3621" fill="#D5272E"/>
<path d="M43.4002 25.2833C43.2274 25.1772 43.0296 25.1196 42.8272 25.1164C42.6249 25.1131 42.4253 25.1643 42.2492 25.2647C41.6512 25.5598 41.1033 25.9485 40.6261 26.4163C40.4195 26.6875 40.2978 27.1592 40.9433 27.3487C41.5889 27.5381 42.5001 26.8063 42.8764 26.5649C43.2526 26.3234 43.9277 25.7142 43.4002 25.2833Z" fill="#D5272E"/>
<path d="M65.8878 28.296C65.434 28.322 65.2423 29.6742 65.921 29.6742C66.4633 29.6742 66.3194 28.27 65.8878 28.296Z" fill="#D5272E"/>
<path d="M35.6606 13.634C34.6129 11.9029 31.1859 6.08937 25.7816 3.07673C20.3773 0.0640878 18.3078 1.21937 17.666 1.48683C16.9238 1.82646 16.2883 2.36444 15.8285 3.04227C15.3687 3.72011 15.1022 4.51189 15.0579 5.33157C14.7886 8.19564 15.6555 7.891 16.0576 7.39324C16.4597 6.89549 17.4631 5.47273 19.4625 6.11167C21.4619 6.7506 23.6494 8.22537 26.1505 11.238C28.6516 14.2506 31.9237 19.3621 35.3175 20.0419C38.7113 20.7217 36.6972 15.3687 35.6495 13.634" fill="#D5272E"/>
<path d="M28.4228 3.38879C30.1161 4.64437 34.3841 8.15107 37.0918 13.3851C38.2354 15.5879 38.833 18.6861 40.7808 19.1021C42.9683 19.5701 43.4073 16.7692 42.2564 13.2811C41.1054 9.79299 39.556 6.39401 35.0076 3.52252C31.8941 1.55371 29.6365 1.99205 28.5225 2.46383C28.4358 2.5006 28.3604 2.55988 28.3039 2.63561C28.2474 2.71135 28.212 2.80082 28.2011 2.89489C28.1902 2.98896 28.2043 3.08425 28.242 3.17102C28.2797 3.2578 28.3395 3.33295 28.4155 3.38879" fill="#82C341"/>
<path d="M44.1711 18.5859C44.0899 19.7003 45.2999 20.3095 45.8496 19.1616C46.3992 18.0138 47.7309 15.5955 46.5247 11.1787C45.5471 7.59771 42.5369 6.87331 41.1942 6.92164C41.1395 6.92307 41.0863 6.93942 41.0401 6.96888C40.994 6.99834 40.9566 7.03988 40.932 7.08903C40.9074 7.13817 40.8965 7.19316 40.9005 7.248C40.9044 7.30292 40.923 7.35572 40.9544 7.4008C43.2189 10.6715 44.3496 14.6027 44.1711 18.5859Z" fill="#D5272E"/>
<path d="M74.7892 17.8763C74.1879 17.7723 73.8965 18.1512 73.6825 17.9357C73.4686 17.7203 73.6825 17.4268 74.0219 17.4268C74.3613 17.4268 74.7191 16.8362 75.0253 17.0553C75.3315 17.2745 75.2245 17.9543 74.7929 17.8801" fill="#D5272E"/>
<path d="M72.6422 17.4787C73.0812 17.4973 73.1771 17.6681 73.1476 17.8241C73.1354 17.8749 73.1112 17.9219 73.0772 17.9614C73.0432 18.0008 73.0003 18.0314 72.9521 18.0508C72.7086 18.1548 72.277 18.125 71.4765 17.7201C70.5396 17.2372 70.344 17.5604 69.8313 17.6235C69.3185 17.6867 69.2632 16.7469 70.2481 16.5277C71.2331 16.3085 71.7237 17.4378 72.6349 17.4787" fill="#D5272E"/>
<path d="M70.0523 37.5643C69.6244 39.8748 67.1196 39.5703 66.2712 39.4439C65.4227 39.3176 65.574 38.7307 65.8765 38.649C66.4262 38.4967 66.5147 38.2181 66.463 38.0769C66.3856 37.8615 66.1716 37.828 65.8765 37.9209C64.401 38.3667 61.1879 36.6133 62.2429 34.9008C62.6929 34.1579 64.6223 33.8125 67.3742 34.1394C68.5068 34.2767 70.4803 35.2537 70.0523 37.5643Z" fill="#D5272E"/>
<path d="M74.5384 19.6035C74.5384 19.8264 74.4056 20.001 74.2616 19.9973C74.1178 19.9936 74.0035 19.8078 74.0145 19.585C74.0256 19.3621 74.1473 19.1875 74.2912 19.1912C74.4351 19.195 74.5457 19.3844 74.5384 19.6035Z" fill="black"/>
<path d="M71.8787 19.834C71.8418 20.1163 71.6611 20.328 71.4766 20.302C71.2921 20.276 71.1704 20.0309 71.2073 19.7448C71.2441 19.4589 71.4249 19.2545 71.6131 19.2768C71.8012 19.2991 71.9156 19.548 71.8787 19.834Z" fill="black"/>
<path d="M66.5519 15.0902C66.3048 15.1757 66.5187 15.6326 66.6884 15.8555C66.858 16.0783 67.0831 16.279 67.2344 16.1935C67.3856 16.108 67.3008 15.7477 67.1422 15.5212C66.9835 15.2945 66.7327 15.0271 66.5519 15.0902Z" fill="#D5272E"/>
<path d="M70.2075 12.735C70.2555 12.9839 70.333 13.5039 70.1337 13.5411C69.9345 13.5783 69.835 13.2365 69.6468 12.8353C69.468 12.5202 69.2224 12.2488 68.9275 12.0403C68.7061 11.8435 68.5918 11.5388 68.8611 11.3977C69.0394 11.3485 69.2286 11.3581 69.4012 11.4249C69.5737 11.4917 69.7206 11.6124 69.8202 11.7692C70.0157 12.0626 70.1477 12.3943 70.2075 12.7424" fill="#D5272E"/>
<path d="M72.9187 8.49657C72.4465 8.72315 72.8523 9.45495 73.1031 9.77819C73.354 10.1014 73.841 10.6697 74.1434 11.0857C75.4862 12.8985 75.0583 13.7678 75.4826 13.7418C75.8108 13.7232 75.9879 11.9884 75.3534 10.6511C74.719 9.31383 73.6823 8.12881 72.9187 8.49657Z" fill="#D5272E"/>
<path d="M52.7084 61.9801C52.7142 61.77 52.8006 61.5704 52.9492 61.424C52.956 61.4172 52.9613 61.4091 52.9649 61.4002C52.9685 61.3913 52.9705 61.3817 52.9705 61.3721C52.9705 61.3624 52.9685 61.3529 52.9649 61.3439C52.9613 61.335 52.956 61.3269 52.9492 61.3201C52.8331 61.1914 52.7672 61.024 52.7641 60.8495C52.7641 60.3805 52.9929 60.0704 53.5047 60.0704C53.7161 60.0691 53.9272 60.0875 54.1354 60.1254C54.1539 60.1292 54.1704 60.1393 54.1825 60.154C54.1945 60.1688 54.2013 60.1872 54.2016 60.2063V60.5486C54.2018 60.5603 54.1994 60.5718 54.1946 60.5825C54.1899 60.5932 54.1829 60.6026 54.1741 60.6102C54.1654 60.6178 54.155 60.6233 54.1439 60.6264C54.1328 60.6295 54.1212 60.63 54.1098 60.628C53.9349 60.5914 53.757 60.572 53.5784 60.57C53.5393 60.5649 53.4995 60.5688 53.4619 60.5812C53.4244 60.5935 53.39 60.6141 53.3612 60.6416C53.3324 60.6691 53.31 60.7026 53.2955 60.7399C53.281 60.7772 53.2748 60.8172 53.2774 60.8572C53.2774 61.0176 53.3557 61.1368 53.5227 61.1368H54.0466C54.057 61.1368 54.0672 61.1389 54.0768 61.143C54.0864 61.147 54.0952 61.153 54.1024 61.1606C54.1097 61.1681 54.1154 61.1771 54.1193 61.1869C54.1231 61.1967 54.125 61.2072 54.1249 61.2178V61.5554C54.125 61.5659 54.1231 61.5765 54.1193 61.5862C54.1154 61.5961 54.1097 61.605 54.1024 61.6125C54.0952 61.6201 54.0864 61.6261 54.0768 61.6302C54.0672 61.6342 54.057 61.6364 54.0466 61.6364H53.5303C53.488 61.6362 53.4463 61.6449 53.4077 61.6622C53.369 61.6794 53.3343 61.7047 53.306 61.7364C53.2776 61.7681 53.256 61.8055 53.2429 61.8461C53.2296 61.8868 53.225 61.9299 53.2292 61.9725C53.2292 62.1665 53.324 62.3117 53.5875 62.3117C53.7799 62.3115 53.9719 62.2932 54.161 62.2567C54.1724 62.2546 54.1841 62.2552 54.1953 62.2583C54.2065 62.2613 54.2169 62.2669 54.2258 62.2744C54.2346 62.282 54.2418 62.2914 54.2467 62.3021C54.2517 62.3127 54.2542 62.3243 54.2543 62.3361V62.6676C54.2545 62.6872 54.2477 62.7061 54.2353 62.721C54.2228 62.7359 54.2056 62.7457 54.1866 62.7486C53.964 62.7847 53.7391 62.8036 53.5137 62.8052C52.9838 62.8052 52.7129 62.4828 52.7129 61.974" fill="black"/>
<path d="M29.6158 62.7684H29.3147C29.3007 62.7682 29.2868 62.7652 29.274 62.7596C29.2611 62.7539 29.2494 62.7458 29.2396 62.7355C29.2298 62.7253 29.2221 62.7132 29.2169 62.7C29.2117 62.6868 29.2092 62.6726 29.2094 62.6584V60.2231C29.2092 60.2088 29.2117 60.1947 29.2169 60.1814C29.2221 60.1682 29.2298 60.1561 29.2396 60.1459C29.2494 60.1357 29.2611 60.1275 29.274 60.1219C29.2868 60.1162 29.3007 60.1133 29.3147 60.113H30.3985C30.4126 60.1133 30.4264 60.1162 30.4393 60.1219C30.4522 60.1275 30.4639 60.1357 30.4737 60.1459C30.4835 60.1561 30.4912 60.1682 30.4964 60.1814C30.5016 60.1947 30.5041 60.2088 30.5039 60.2231V60.5042C30.5041 60.5183 30.5015 60.5324 30.4963 60.5456C30.4911 60.5587 30.4834 60.5707 30.4736 60.5808C30.4638 60.5909 30.4521 60.5989 30.4392 60.6044C30.4263 60.6099 30.4125 60.6126 30.3985 60.6126H29.8326C29.8184 60.6126 29.8044 60.6155 29.7913 60.621C29.7782 60.6266 29.7664 60.6347 29.7565 60.6449C29.7465 60.6552 29.7387 60.6673 29.7334 60.6807C29.7281 60.694 29.7255 60.7083 29.7257 60.7227V61.0282C29.7255 61.0426 29.7281 61.0569 29.7334 61.0702C29.7387 61.0835 29.7465 61.0957 29.7565 61.1059C29.7664 61.1161 29.7782 61.1242 29.7913 61.1298C29.8044 61.1353 29.8184 61.1382 29.8326 61.1382H30.3549C30.3689 61.1382 30.3828 61.141 30.3958 61.1465C30.4088 61.1519 30.4206 61.1599 30.4304 61.17C30.4404 61.18 30.4482 61.192 30.4536 61.2052C30.459 61.2183 30.4617 61.2325 30.4617 61.2467V61.5278C30.4619 61.5422 30.4593 61.5564 30.4541 61.5698C30.4487 61.5831 30.4409 61.5953 30.431 61.6055C30.421 61.6157 30.4092 61.6238 30.3961 61.6294C30.3831 61.635 30.369 61.6378 30.3549 61.6378H29.8326C29.8185 61.6378 29.8046 61.6406 29.7916 61.6461C29.7787 61.6515 29.7669 61.6595 29.757 61.6696C29.747 61.6796 29.7392 61.6916 29.7338 61.7048C29.7284 61.7179 29.7257 61.732 29.7257 61.7463V62.663C29.7259 62.6773 29.7233 62.6916 29.718 62.7049C29.7127 62.7182 29.7049 62.7304 29.6949 62.7406C29.685 62.7509 29.6731 62.759 29.66 62.7646C29.647 62.7701 29.6329 62.7729 29.6188 62.7729" fill="black"/>
<path d="M32.477 62.3316V62.7044C32.477 62.7211 32.4706 62.7372 32.4591 62.7492C32.4476 62.7612 32.4319 62.7681 32.4153 62.7685H31.2427C31.2262 62.7681 31.2106 62.7612 31.199 62.7492C31.1875 62.7372 31.181 62.7211 31.181 62.7044V60.1789C31.181 60.1622 31.1875 60.146 31.199 60.1341C31.2106 60.1221 31.2262 60.1152 31.2427 60.1147H31.6356C31.6438 60.1147 31.652 60.1164 31.6596 60.1196C31.6672 60.1229 31.674 60.1276 31.6798 60.1336C31.6855 60.1396 31.6901 60.1467 31.6931 60.1545C31.6961 60.1622 31.6976 60.1705 31.6973 60.1789V62.2094C31.6973 62.2259 31.7039 62.2419 31.7154 62.2536C31.727 62.2654 31.7427 62.272 31.759 62.272H32.4153C32.4319 62.2724 32.4476 62.2793 32.4591 62.2913C32.4706 62.3033 32.477 62.3194 32.477 62.3362" fill="black"/>
<path d="M34.1149 61.7509L33.9027 60.9518C33.9013 60.9465 33.8983 60.9419 33.8941 60.9386C33.8898 60.9353 33.8847 60.9335 33.8793 60.9335C33.874 60.9335 33.8688 60.9353 33.8645 60.9386C33.8603 60.9419 33.8573 60.9465 33.856 60.9518L33.6453 61.7509C33.6438 61.7555 33.6435 61.7603 33.6443 61.765C33.645 61.7697 33.6469 61.7742 33.6496 61.778C33.6524 61.7819 33.6561 61.7851 33.6603 61.7872C33.6645 61.7894 33.6691 61.7905 33.6739 61.7906H34.0848C34.0895 61.7905 34.0942 61.7893 34.0984 61.7872C34.1027 61.785 34.1064 61.7819 34.1093 61.7781C34.1122 61.7742 34.1142 61.7698 34.1151 61.7651C34.1161 61.7604 34.116 61.7555 34.1149 61.7509ZM33.4842 62.3543L33.3894 62.7088C33.3844 62.7268 33.3738 62.7427 33.3591 62.754C33.3444 62.7653 33.3265 62.7714 33.3081 62.7714H32.9829C32.9699 62.7714 32.9571 62.7684 32.9455 62.7625C32.9338 62.7567 32.9236 62.7481 32.9158 62.7377C32.9079 62.7271 32.9025 62.7149 32.9 62.702C32.8976 62.689 32.8982 62.6757 32.9017 62.663L33.5504 60.2185C33.5581 60.1883 33.5754 60.1616 33.5997 60.1425C33.6239 60.1235 33.6537 60.1131 33.6844 60.113H34.0743C34.1049 60.1131 34.1347 60.1235 34.159 60.1425C34.1832 60.1616 34.2006 60.1883 34.2082 60.2185L34.857 62.663C34.8605 62.6757 34.861 62.689 34.8586 62.702C34.8561 62.7149 34.8507 62.7271 34.8429 62.7377C34.835 62.7481 34.8248 62.7567 34.8132 62.7625C34.8016 62.7684 34.7887 62.7714 34.7757 62.7714H34.4521C34.4336 62.7717 34.4155 62.7657 34.4008 62.7543C34.3861 62.743 34.3755 62.727 34.3708 62.7088L34.276 62.3543C34.2713 62.336 34.2608 62.3198 34.2461 62.3082C34.2314 62.2966 34.2133 62.2903 34.1947 62.2902H33.5655C33.5468 62.2903 33.5288 62.2966 33.514 62.3082C33.4994 62.3198 33.4889 62.336 33.4842 62.3543Z" fill="black"/>
<path d="M35.6986 62.7685H35.4954C35.4781 62.7684 35.4609 62.7646 35.4451 62.7574C35.4293 62.7502 35.4151 62.7397 35.4035 62.7266C35.3919 62.7136 35.3831 62.6981 35.3776 62.6814C35.3722 62.6647 35.3702 62.647 35.3719 62.6295L35.5767 60.2064C35.5785 60.1817 35.5895 60.1586 35.6073 60.1416C35.6252 60.1246 35.6486 60.115 35.673 60.1147H35.9349C35.9545 60.1146 35.9736 60.1206 35.9897 60.1318C36.0058 60.143 36.0182 60.1589 36.0252 60.1774L36.4076 61.1674C36.4111 61.1851 36.4205 61.2009 36.4342 61.2123C36.4479 61.2237 36.4651 61.23 36.4828 61.23C36.5006 61.23 36.5178 61.2237 36.5315 61.2123C36.5452 61.2009 36.5546 61.1851 36.5581 61.1674L36.9405 60.1774C36.9475 60.1589 36.9599 60.143 36.976 60.1318C36.9921 60.1206 37.0112 60.1146 37.0308 60.1147H37.2927C37.3171 60.115 37.3406 60.1246 37.3584 60.1416C37.3762 60.1586 37.3871 60.1817 37.389 60.2064L37.5952 62.6509C37.5967 62.6665 37.595 62.6822 37.5901 62.6971C37.5853 62.712 37.5774 62.7257 37.5671 62.7373C37.5568 62.7489 37.5442 62.7582 37.5301 62.7647C37.5161 62.7711 37.5008 62.7745 37.4854 62.7746H37.2551C37.2273 62.7744 37.2006 62.7635 37.1802 62.7443C37.1599 62.7251 37.1474 62.6988 37.1452 62.6707L37.0248 61.2957C37.0235 61.2908 37.0206 61.2865 37.0167 61.2834C37.0127 61.2804 37.0079 61.2787 37.0029 61.2787C36.998 61.2787 36.9931 61.2804 36.9891 61.2834C36.9852 61.2865 36.9824 61.2908 36.9811 61.2957L36.656 62.1269C36.6469 62.1502 36.6312 62.1703 36.6108 62.1844C36.5904 62.1986 36.5662 62.2062 36.5415 62.2063H36.4317C36.4069 62.2062 36.3829 62.1986 36.3625 62.1844C36.3421 62.1703 36.3263 62.1502 36.3173 62.1269L35.9921 61.2957C35.9908 61.2908 35.988 61.2865 35.9841 61.2834C35.9801 61.2804 35.9753 61.2787 35.9703 61.2787C35.9653 61.2787 35.9604 61.2804 35.9565 61.2834C35.9526 61.2865 35.9498 61.2908 35.9485 61.2957L35.8295 62.66C35.8269 62.6916 35.8128 62.7209 35.79 62.7424C35.7672 62.7638 35.7372 62.7759 35.7061 62.7762" fill="black"/>
<path d="M38.2138 61.9801C38.219 61.7702 38.3049 61.5706 38.4531 61.424C38.4598 61.4172 38.4652 61.4091 38.4689 61.4002C38.4725 61.3913 38.4743 61.3817 38.4743 61.3721C38.4743 61.3624 38.4725 61.3529 38.4689 61.3439C38.4652 61.335 38.4598 61.3269 38.4531 61.3201C38.3364 61.1918 38.2705 61.0242 38.268 60.8495C38.268 60.3805 38.4953 60.0704 39.0071 60.0704C39.2185 60.0691 39.4296 60.0875 39.6378 60.1254C39.6567 60.1286 39.6738 60.1385 39.6862 60.1533C39.6986 60.1681 39.7054 60.1869 39.7055 60.2063V60.5486C39.7055 60.5603 39.7029 60.572 39.698 60.5826C39.6931 60.5933 39.6859 60.6027 39.677 60.6102C39.6682 60.6178 39.6577 60.6233 39.6465 60.6264C39.6353 60.6294 39.6236 60.63 39.6122 60.628C39.4373 60.5913 39.2594 60.5719 39.0808 60.57C39.0417 60.5649 39.0019 60.5688 38.9644 60.5812C38.9268 60.5935 38.8924 60.6141 38.8637 60.6416C38.8349 60.6691 38.8124 60.7026 38.798 60.7399C38.7835 60.7772 38.7772 60.8172 38.7798 60.8572C38.7798 61.0176 38.8565 61.1368 39.0251 61.1368H39.5399C39.5503 61.1368 39.5606 61.1389 39.5702 61.143C39.5798 61.147 39.5885 61.153 39.5958 61.1606C39.6031 61.1681 39.6088 61.1771 39.6127 61.1869C39.6165 61.1967 39.6184 61.2072 39.6182 61.2178V61.5554C39.6184 61.5659 39.6165 61.5765 39.6127 61.5862C39.6088 61.5961 39.6031 61.605 39.5958 61.6125C39.5885 61.6201 39.5798 61.6261 39.5702 61.6302C39.5606 61.6342 39.5503 61.6364 39.5399 61.6364H39.0251C38.9829 61.6362 38.9411 61.6449 38.9025 61.6622C38.8639 61.6794 38.8292 61.7047 38.8009 61.7364C38.7725 61.7681 38.751 61.8055 38.7378 61.8461C38.7245 61.8868 38.7198 61.9299 38.7241 61.9725C38.7241 62.1665 38.8189 62.3117 39.0808 62.3117C39.2732 62.3117 39.4653 62.2932 39.6543 62.2567C39.6658 62.2544 39.6776 62.2548 39.6889 62.2577C39.7002 62.2606 39.7107 62.2662 39.7197 62.2738C39.7286 62.2813 39.7358 62.2909 39.7407 62.3017C39.7455 62.3125 39.7479 62.3243 39.7477 62.3361V62.6676C39.7479 62.6872 39.7411 62.7061 39.7287 62.721C39.7163 62.7359 39.6989 62.7457 39.6799 62.7486C39.4574 62.7847 39.2325 62.8036 39.0071 62.8052C38.4787 62.8052 38.2078 62.4828 38.2078 61.974" fill="black"/>
<path d="M40.5155 61.8593V61.598C40.5155 61.5672 40.5276 61.5377 40.5491 61.5159C40.5705 61.4942 40.5996 61.4819 40.63 61.4819H41.5211C41.536 61.4819 41.5508 61.4849 41.5646 61.4908C41.5784 61.4967 41.5909 61.5052 41.6014 61.516C41.612 61.5268 41.6202 61.5396 41.6258 61.5537C41.6314 61.5678 41.6341 61.5829 41.634 61.598V61.8638C41.6341 61.8791 41.6314 61.8943 41.6258 61.9084C41.6203 61.9226 41.612 61.9355 41.6015 61.9464C41.591 61.9573 41.5786 61.9661 41.5647 61.9721C41.5509 61.9781 41.5361 61.9813 41.5211 61.9815H40.63C40.5995 61.9811 40.5704 61.9685 40.549 61.9465C40.5275 61.9245 40.5155 61.8948 40.5155 61.8638" fill="black"/>
<path d="M42.4557 61.4454C42.4557 60.6326 42.7432 60.0703 43.4025 60.0703C43.6107 60.0691 43.8165 60.1155 44.0046 60.2063C44.0171 60.2124 44.0278 60.2219 44.0352 60.2338C44.0427 60.2457 44.0467 60.2595 44.0467 60.2736V60.6188C44.0467 60.6313 44.0435 60.6434 44.0376 60.6543C44.0316 60.6651 44.0231 60.6743 44.0127 60.6808C44.0023 60.6874 43.9905 60.6912 43.9782 60.6918C43.9661 60.6925 43.9539 60.69 43.9429 60.6846C43.8085 60.61 43.6579 60.5706 43.5048 60.5699C43.0788 60.5699 42.9795 60.9595 42.9795 61.4408C42.9795 61.922 43.0352 62.3117 43.4612 62.3117C43.5 62.3098 43.5384 62.3031 43.5756 62.2918C43.5986 62.2854 43.619 62.2714 43.6334 62.2521C43.6478 62.2327 43.6556 62.2091 43.6554 62.1848V61.8517C43.6554 61.8412 43.6512 61.8312 43.6439 61.8237C43.6366 61.8163 43.6266 61.8121 43.6162 61.8121H43.4221C43.4121 61.8121 43.4025 61.8081 43.3954 61.8009C43.3884 61.7937 43.3844 61.784 43.3844 61.7738V61.3613C43.3842 61.3551 43.3852 61.3489 43.3874 61.3431C43.3896 61.3373 43.3928 61.332 43.397 61.3274C43.4012 61.3229 43.4062 61.3192 43.4118 61.3166C43.4174 61.3141 43.4235 61.3126 43.4296 61.3125H44.1085C44.1146 61.3126 44.1206 61.3141 44.1262 61.3166C44.1318 61.3192 44.1368 61.3229 44.141 61.3274C44.1452 61.332 44.1485 61.3373 44.1507 61.3431C44.1528 61.3489 44.1538 61.3551 44.1536 61.3613V62.5668C44.1535 62.5869 44.1463 62.6062 44.1333 62.6213C44.1203 62.6364 44.1024 62.6464 44.0829 62.6493C43.8797 62.6783 43.6433 62.8112 43.3664 62.8112C42.704 62.8112 42.4632 62.2597 42.4632 61.4362" fill="black"/>
<path d="M45.4558 61.1873C45.4556 61.1968 45.4573 61.2063 45.4608 61.2152C45.4642 61.2241 45.4694 61.2322 45.476 61.239C45.4826 61.2459 45.4905 61.2513 45.4991 61.255C45.5078 61.2587 45.5172 61.2606 45.5266 61.2606H45.787C45.9992 61.2606 46.067 61.1078 46.067 60.9367C46.067 60.7656 45.9992 60.6143 45.787 60.6143H45.5266C45.5078 60.6143 45.4898 60.6219 45.4765 60.6354C45.4633 60.6488 45.4558 60.6671 45.4558 60.6862V61.1873ZM46.7745 62.6142C46.7691 62.6472 46.7559 62.6784 46.736 62.7051C46.716 62.7317 46.69 62.7529 46.6601 62.767C46.5855 62.798 46.5058 62.814 46.4252 62.8143C46.3478 62.8152 46.2721 62.7909 46.2093 62.745C46.1465 62.6991 46.0998 62.634 46.076 62.5592C45.9421 62.1513 45.9676 61.7266 45.6244 61.7266C45.5941 61.7268 45.5639 61.7299 45.5341 61.7357C45.5107 61.7403 45.4897 61.7531 45.4746 61.7718C45.4594 61.7904 45.4512 61.8139 45.4513 61.8381V62.6142C45.4513 62.6547 45.4355 62.6936 45.4072 62.7222C45.379 62.7509 45.3407 62.767 45.3008 62.767H45.0886C45.0486 62.767 45.0103 62.7509 44.9821 62.7222C44.9539 62.6936 44.938 62.6547 44.938 62.6142V60.1927C44.938 60.1722 44.9459 60.1527 44.9599 60.1381C44.974 60.1235 44.9932 60.1152 45.0133 60.1147H45.7991C46.3334 60.1147 46.5788 60.4905 46.5788 60.9367C46.5836 61.0606 46.5604 61.1841 46.5108 61.2974C46.4612 61.4108 46.3866 61.5111 46.2928 61.5906C46.2879 61.5941 46.2838 61.5985 46.2806 61.6036C46.2774 61.6087 46.2753 61.6145 46.2743 61.6204C46.2733 61.6264 46.2735 61.6325 46.2749 61.6384C46.2762 61.6443 46.2788 61.6498 46.2822 61.6548C46.3804 61.8075 46.4527 61.9758 46.496 62.1528C46.5351 62.2811 46.5652 62.3973 46.6601 62.4003C46.7549 62.4034 46.7955 62.5027 46.773 62.6142" fill="black"/>
<path d="M47.9787 60.2583V62.6249C47.9787 62.6627 47.964 62.699 47.9378 62.7259C47.9116 62.7528 47.876 62.7681 47.8387 62.7685H47.6009C47.5825 62.7683 47.5643 62.7645 47.5474 62.7571C47.5305 62.7498 47.5152 62.7392 47.5023 62.7258C47.4894 62.7125 47.4793 62.6967 47.4725 62.6794C47.4656 62.6621 47.4622 62.6436 47.4624 62.6249V60.2583C47.4622 60.2397 47.4656 60.2212 47.4725 60.2039C47.4793 60.1865 47.4894 60.1708 47.5023 60.1575C47.5152 60.1441 47.5305 60.1335 47.5474 60.1261C47.5643 60.1188 47.5825 60.1149 47.6009 60.1147H47.8387C47.876 60.1152 47.9116 60.1305 47.9378 60.1573C47.964 60.1842 47.9787 60.2205 47.9787 60.2583Z" fill="black"/>
<path d="M50.199 62.3696V62.6675C50.1992 62.6808 50.1968 62.6941 50.1919 62.7065C50.187 62.7189 50.1797 62.7302 50.1704 62.7397C50.1612 62.7493 50.1502 62.7568 50.138 62.762C50.1259 62.7672 50.1128 62.7698 50.0997 62.7698H49.0023C48.9891 62.7698 48.9761 62.7672 48.9639 62.762C48.9518 62.7568 48.9408 62.7493 48.9315 62.7397C48.9223 62.7302 48.915 62.7189 48.9101 62.7065C48.9052 62.6941 48.9027 62.6808 48.903 62.6675V60.223C48.903 60.1961 48.9134 60.1703 48.932 60.1511C48.9506 60.1319 48.9758 60.121 49.0023 60.1206H49.3199C49.3331 60.1206 49.3461 60.1233 49.3583 60.1285C49.3704 60.1336 49.3815 60.1411 49.3907 60.1507C49.4 60.1602 49.4073 60.1715 49.4122 60.1839C49.417 60.1964 49.4194 60.2096 49.4193 60.223V62.1724C49.4193 62.1858 49.4219 62.199 49.427 62.2114C49.432 62.2237 49.4395 62.2349 49.4489 62.2443C49.4583 62.2537 49.4694 62.2611 49.4816 62.2661C49.4939 62.271 49.507 62.2735 49.5202 62.2733H50.0997C50.1261 62.2737 50.1514 62.2847 50.17 62.3038C50.1886 62.323 50.199 62.3488 50.199 62.3757" fill="black"/>
<path d="M52.1528 62.3835V62.6524C52.1528 62.6828 52.1409 62.7119 52.1198 62.7335C52.0986 62.7549 52.0699 62.767 52.0399 62.767H50.9697C50.9398 62.767 50.911 62.7549 50.8899 62.7335C50.8687 62.7119 50.8568 62.6828 50.8568 62.6524V60.2308C50.8568 60.2003 50.8687 60.171 50.8897 60.1492C50.9109 60.1275 50.9396 60.1152 50.9697 60.1147H51.2617C51.2766 60.1149 51.2912 60.1181 51.3048 60.1241C51.3184 60.13 51.3308 60.1386 51.3411 60.1494C51.3514 60.1601 51.3596 60.1729 51.3651 60.1869C51.3706 60.2009 51.3733 60.2158 51.3731 60.2308V62.1528C51.3731 62.1833 51.385 62.2127 51.4061 62.2344C51.4272 62.2561 51.4559 62.2685 51.486 62.2689H52.0399C52.0699 62.2689 52.0986 62.281 52.1198 62.3025C52.1409 62.324 52.1528 62.3531 52.1528 62.3835Z" fill="black"/>
<path d="M55.4748 62.1528C55.4746 62.1679 55.4773 62.1828 55.4828 62.1968C55.4883 62.2107 55.4965 62.2235 55.5068 62.2343C55.5171 62.2451 55.5295 62.2537 55.5431 62.2596C55.5567 62.2656 55.5713 62.2688 55.5862 62.2689C56.0047 62.2689 56.1883 62.0566 56.1883 61.4409C56.1883 60.8251 56.0122 60.6143 55.5862 60.6143C55.5565 60.6147 55.5282 60.627 55.5073 60.6484C55.4865 60.6699 55.4748 60.6988 55.4748 60.7289V62.1528ZM54.9585 60.2034C54.9585 60.1801 54.9674 60.1578 54.9835 60.1412C54.9996 60.1246 55.0214 60.1152 55.0443 60.1147H55.6043C56.4472 60.1147 56.6971 60.7075 56.6971 61.4409C56.6971 62.1742 56.4472 62.7685 55.6043 62.7685H55.0443C55.0215 62.7677 54.9999 62.7581 54.984 62.7416C54.968 62.7251 54.9589 62.703 54.9585 62.6799V60.2034Z" fill="black"/>
<path d="M59.4897 60.5699C59.151 60.5699 59.0516 60.9595 59.0516 61.4407C59.0516 61.922 59.151 62.3115 59.4897 62.3115C59.6344 62.3107 59.7758 62.2666 59.8961 62.1848C59.9031 62.18 59.9113 62.1774 59.9197 62.177C59.9281 62.1767 59.9365 62.1787 59.9439 62.1827C59.9513 62.1868 59.9575 62.1928 59.9618 62.2002C59.9661 62.2075 59.9683 62.2159 59.9683 62.2244V62.6095C59.9685 62.6238 59.9647 62.6379 59.9576 62.6503C59.9504 62.6627 59.9401 62.6728 59.9277 62.6798C59.7633 62.7658 59.5812 62.8108 59.3963 62.8111C58.7852 62.8111 58.5353 62.2596 58.5353 61.4361C58.5353 60.6126 58.7852 60.0611 59.3963 60.0611C59.5823 60.0564 59.7661 60.1017 59.9292 60.1925C59.9412 60.1997 59.9511 60.21 59.958 60.2223C59.9649 60.2347 59.9685 60.2486 59.9683 60.2628V60.6493C59.9686 60.658 59.9665 60.6665 59.9622 60.674C59.9579 60.6814 59.9516 60.6875 59.9441 60.6915C59.9365 60.6955 59.928 60.6972 59.9195 60.6965C59.911 60.6958 59.9029 60.6927 59.8961 60.6875C59.7757 60.6058 59.6344 60.5617 59.4897 60.5607" fill="black"/>
<path d="M61.141 62.7685H60.7481C60.7316 62.7681 60.7159 62.7612 60.7044 62.7492C60.6929 62.7372 60.6864 62.7211 60.6864 62.7044V60.1789C60.6864 60.1622 60.6929 60.146 60.7044 60.1341C60.7159 60.1221 60.7316 60.1152 60.7481 60.1147H61.141C61.1492 60.1147 61.1573 60.1164 61.165 60.1196C61.1725 60.1229 61.1794 60.1276 61.1851 60.1336C61.1909 60.1396 61.1954 60.1467 61.1984 60.1545C61.2014 60.1622 61.2029 60.1705 61.2027 60.1789V61.0742C61.2027 61.0908 61.2092 61.1067 61.2208 61.1185C61.2323 61.1303 61.2481 61.1368 61.2644 61.1368H61.7566C61.773 61.1368 61.7887 61.1303 61.8003 61.1185C61.8119 61.1067 61.8184 61.0908 61.8184 61.0742V60.1789C61.8184 60.1622 61.8248 60.146 61.8363 60.1341C61.8479 60.1221 61.8636 60.1152 61.8801 60.1147H62.273C62.2812 60.1147 62.2893 60.1164 62.2969 60.1196C62.3045 60.1229 62.3114 60.1276 62.3171 60.1336C62.3229 60.1396 62.3274 60.1467 62.3304 60.1545C62.3334 60.1622 62.3349 60.1705 62.3347 60.1789V62.7044C62.3349 62.7127 62.3334 62.721 62.3304 62.7288C62.3274 62.7366 62.3229 62.7436 62.3171 62.7496C62.3114 62.7556 62.3045 62.7604 62.2969 62.7636C62.2893 62.7668 62.2812 62.7685 62.273 62.7685H61.8741C61.8576 62.7681 61.8418 62.7612 61.8303 62.7492C61.8188 62.7372 61.8123 62.7211 61.8123 62.7044V61.699C61.8123 61.6825 61.8058 61.6665 61.7943 61.6548C61.7827 61.643 61.767 61.6364 61.7506 61.6364H61.2719C61.2556 61.6364 61.2399 61.643 61.2283 61.6548C61.2167 61.6665 61.2102 61.6825 61.2102 61.699V62.7044C61.2104 62.7127 61.209 62.721 61.206 62.7288C61.203 62.7366 61.1984 62.7436 61.1927 62.7496C61.1869 62.7556 61.1801 62.7604 61.1725 62.7636C61.1649 62.7668 61.1568 62.7685 61.1485 62.7685" fill="black"/>
<path d="M63.7764 60.185V62.6983C63.7764 62.7166 63.7693 62.7343 63.7567 62.7474C63.744 62.7606 63.7268 62.7681 63.7087 62.7685H63.3278C63.3098 62.7681 63.2925 62.7606 63.2799 62.7474C63.2672 62.7343 63.2601 62.7166 63.2601 62.6983V60.185C63.2601 60.1666 63.2672 60.149 63.2799 60.1359C63.2925 60.1227 63.3098 60.1152 63.3278 60.1147H63.7087C63.7268 60.1152 63.744 60.1227 63.7567 60.1359C63.7693 60.149 63.7764 60.1666 63.7764 60.185Z" fill="black"/>
<path d="M65.5664 60.5699C65.2277 60.5699 65.1284 60.9595 65.1284 61.4408C65.1284 61.922 65.2277 62.3116 65.5664 62.3116C65.7034 62.311 65.8375 62.2713 65.9533 62.197C65.9625 62.1912 65.9731 62.1881 65.9839 62.1879C65.9948 62.1878 66.0055 62.1905 66.0148 62.196C66.0243 62.2015 66.0321 62.2095 66.0374 62.2191C66.0427 62.2286 66.0454 62.2395 66.0451 62.2505V62.6202C66.0451 62.6314 66.0422 62.6424 66.0367 62.6521C66.0311 62.6618 66.0231 62.6697 66.0135 62.6752C65.8468 62.764 65.6614 62.8107 65.4731 62.8112C64.862 62.8112 64.6121 62.2597 64.6121 61.4362C64.6121 60.6127 64.862 60.0611 65.4731 60.0611C65.6625 60.0562 65.8497 60.1032 66.015 60.1971C66.0243 60.2028 66.0321 60.2108 66.0373 60.2205C66.0426 60.2302 66.0453 60.2411 66.0451 60.2521V60.6218C66.0454 60.6328 66.0427 60.6437 66.0374 60.6533C66.0321 60.6629 66.0243 60.6708 66.0148 60.6763C66.0055 60.6818 65.9948 60.6846 65.9839 60.6844C65.9731 60.6843 65.9625 60.6811 65.9533 60.6753C65.8373 60.6014 65.7034 60.5617 65.5664 60.5608" fill="black"/>
<path d="M68.5469 62.5363C68.5499 62.5804 68.54 62.6245 68.5182 62.6628C68.4965 62.7012 68.464 62.7321 68.425 62.7517C68.3425 62.7909 68.2526 62.8113 68.1616 62.8113C68.0844 62.8118 68.0091 62.7874 67.9466 62.7415C67.884 62.6956 67.8375 62.6307 67.8138 62.5562C67.6799 62.1437 67.6844 61.7648 67.3879 61.7648C67.3753 61.7632 67.3627 61.7632 67.3502 61.7648C67.3303 61.768 67.3122 61.7785 67.2992 61.7942C67.2862 61.8099 67.2792 61.8298 67.2795 61.8503V62.6952C67.2795 62.7136 67.2724 62.7312 67.2597 62.7443C67.2471 62.7575 67.2299 62.765 67.2117 62.7655H66.8309C66.8128 62.765 66.7956 62.7575 66.7829 62.7443C66.7702 62.7312 66.7632 62.7136 66.7632 62.6952V60.1682C66.7632 60.154 66.7687 60.1404 66.7786 60.1304C66.7885 60.1204 66.8019 60.1147 66.8158 60.1147H67.2268C67.2408 60.1147 67.2542 60.1204 67.2641 60.1304C67.2739 60.1404 67.2795 60.154 67.2795 60.1682V61.1674C67.2795 61.172 67.2811 61.1766 67.2839 61.1802C67.2867 61.1839 67.2906 61.1865 67.2951 61.1877C67.2995 61.189 67.3042 61.1887 67.3084 61.1869C67.3127 61.1852 67.3162 61.1821 67.3186 61.1781L67.9012 60.1422C67.906 60.134 67.9128 60.1272 67.921 60.1224C67.9291 60.1175 67.9384 60.1149 67.9478 60.1147H68.4069C68.4163 60.1147 68.4254 60.1172 68.4334 60.122C68.4415 60.1268 68.4482 60.1337 68.4528 60.1419C68.4573 60.1501 68.4597 60.1594 68.4596 60.1689C68.4595 60.1783 68.4569 60.1876 68.4521 60.1957L67.7747 61.3965C68.0411 61.557 68.1224 61.7815 68.2353 62.1605C68.2745 62.2888 68.3046 62.408 68.3994 62.408C68.4185 62.4047 68.438 62.4059 68.4565 62.4114C68.4751 62.4168 68.4922 62.4264 68.5067 62.4394C68.5211 62.4524 68.5325 62.4686 68.54 62.4867C68.5475 62.5048 68.5509 62.5243 68.5499 62.544" fill="black"/>
<path d="M68.997 61.9801C68.9998 61.8734 69.0235 61.7684 69.0667 61.671C69.1098 61.5738 69.1716 61.4861 69.2484 61.4132C69.2539 61.4081 69.2583 61.4018 69.2613 61.3949C69.2643 61.3879 69.266 61.3804 69.266 61.3728C69.266 61.3652 69.2643 61.3576 69.2613 61.3507C69.2583 61.3437 69.2539 61.3374 69.2484 61.3323C69.1263 61.2016 69.0566 61.0295 69.0527 60.8495C69.0527 60.3805 69.2816 60.0704 69.7934 60.0704C70.0089 60.0693 70.2241 60.0887 70.4361 60.1284C70.4513 60.1306 70.4651 60.1383 70.4751 60.1501C70.485 60.1619 70.4904 60.177 70.4903 60.1925V60.5684C70.4902 60.5777 70.4881 60.5868 70.4842 60.5952C70.4803 60.6036 70.4747 60.611 70.4676 60.617C70.4606 60.6229 70.4524 60.6273 70.4436 60.6297C70.4347 60.6321 70.4255 60.6326 70.4165 60.6311C70.2352 60.593 70.0507 60.5726 69.8656 60.5699C69.8264 60.5649 69.7866 60.5687 69.7491 60.5811C69.7115 60.5935 69.6772 60.6141 69.6484 60.6416C69.6196 60.669 69.5972 60.7026 69.5827 60.7399C69.5682 60.7771 69.562 60.8172 69.5645 60.8571C69.5645 61.0176 69.6428 61.1367 69.8099 61.1367H70.3413C70.358 61.1367 70.3741 61.1435 70.386 61.1556C70.3978 61.1675 70.4045 61.1839 70.4045 61.2009V61.5706C70.4047 61.5792 70.4032 61.5877 70.4001 61.5956C70.397 61.6036 70.3924 61.6109 70.3865 61.617C70.3806 61.6231 70.3736 61.628 70.3658 61.6313C70.358 61.6346 70.3497 61.6363 70.3413 61.6363H69.8099C69.7677 61.6361 69.7259 61.6449 69.6873 61.6621C69.6486 61.6794 69.614 61.7046 69.5856 61.7363C69.5572 61.768 69.5357 61.8055 69.5225 61.8461C69.5093 61.8868 69.5046 61.9298 69.5089 61.9724C69.5089 62.1665 69.6037 62.3116 69.8656 62.3116C70.0647 62.3113 70.2633 62.2914 70.4587 62.2521C70.4679 62.2502 70.4773 62.2504 70.4864 62.2529C70.4954 62.2553 70.5038 62.2597 70.511 62.2659C70.518 62.2721 70.5237 62.2798 70.5274 62.2885C70.5311 62.2973 70.5329 62.3067 70.5324 62.3162V62.689C70.5326 62.7045 70.5272 62.7196 70.5172 62.7314C70.5073 62.7432 70.4934 62.7509 70.4782 62.7532C70.2517 62.7901 70.0227 62.8095 69.7934 62.8112C69.2635 62.8112 68.9926 62.4889 68.9926 61.9801" fill="black"/>
<path d="M71.6762 62.7684H71.3406C71.3305 62.7684 71.3206 62.7665 71.3114 62.7625C71.3021 62.7585 71.2938 62.7528 71.2868 62.7456C71.2798 62.7383 71.2742 62.7297 71.2706 62.7203C71.2669 62.7108 71.2651 62.7007 71.2653 62.6905V60.1636C71.2651 60.1572 71.2662 60.1509 71.2684 60.145C71.2707 60.139 71.2741 60.1336 71.2784 60.1291C71.2827 60.1245 71.288 60.1209 71.2937 60.1184C71.2995 60.1159 71.3057 60.1146 71.3119 60.1146H71.7124C71.7214 60.1146 71.7303 60.1174 71.7379 60.1226C71.7454 60.1277 71.7511 60.1351 71.7545 60.1437L72.3732 61.5187C72.3756 61.5233 72.3795 61.527 72.3841 61.5292C72.3888 61.5314 72.394 61.5321 72.3991 61.5311C72.4041 61.53 72.4087 61.5274 72.4122 61.5235C72.4156 61.5197 72.4178 61.5147 72.4184 61.5096V60.159C72.4181 60.1526 72.4192 60.1463 72.4214 60.1404C72.4237 60.1344 72.4271 60.1291 72.4315 60.1245C72.4358 60.1199 72.441 60.1163 72.4468 60.1138C72.4526 60.1113 72.4587 60.1101 72.465 60.1101H72.8564C72.8691 60.1101 72.8814 60.1152 72.8904 60.1244C72.8995 60.1336 72.9046 60.146 72.9046 60.159V62.6859C72.9046 62.7064 72.8966 62.726 72.8826 62.7405C72.8685 62.7551 72.8494 62.7635 72.8293 62.7639H72.4756C72.4609 62.7637 72.4466 62.7594 72.4343 62.7512C72.4221 62.7431 72.4123 62.7316 72.4063 62.7181L71.7952 61.3537C71.7933 61.3484 71.7895 61.3439 71.7846 61.3412C71.7797 61.3386 71.774 61.3378 71.7686 61.3391C71.7632 61.3405 71.7584 61.3438 71.7552 61.3485C71.7521 61.3531 71.7507 61.3588 71.7515 61.3644V62.6859C71.7515 62.7064 71.7436 62.726 71.7295 62.7405C71.7154 62.7551 71.6963 62.7635 71.6762 62.7639" fill="black"/>
<path d="M81.3961 55.8872C81.3961 56.0319 81.3395 56.1706 81.2384 56.2729C81.1378 56.3752 81.0009 56.4327 80.8588 56.4327C80.7161 56.4327 80.5791 56.3752 80.4786 56.2729C80.3775 56.1706 80.3209 56.0319 80.3209 55.8872C80.3209 55.7426 80.3775 55.6039 80.4786 55.5016C80.5791 55.3993 80.7161 55.3418 80.8588 55.3418C81.0009 55.3418 81.1378 55.3993 81.2384 55.5016C81.3395 55.6039 81.3961 55.7426 81.3961 55.8872ZM80.8599 55.2639C80.6976 55.2647 80.5427 55.3308 80.4283 55.4477C80.3139 55.5645 80.2498 55.7226 80.2504 55.8872C80.2504 56.0509 80.3145 56.2079 80.4283 56.3237C80.5427 56.4394 80.697 56.5045 80.8588 56.5045C81.02 56.5045 81.1742 56.4394 81.2886 56.3237C81.4025 56.2079 81.4666 56.0509 81.4666 55.8872C81.4677 55.8062 81.4533 55.7258 81.4233 55.6506C81.3938 55.5754 81.3493 55.5069 81.2933 55.4492C81.2372 55.3915 81.1708 55.3456 81.0968 55.3144C81.0234 55.2831 80.9443 55.2669 80.8645 55.2669" fill="black"/>
<path d="M80.7334 55.8688V55.6396H80.8992C80.9836 55.6396 81.0333 55.6779 81.0333 55.7512C81.0333 55.8245 80.9819 55.8627 80.9004 55.8627L80.7334 55.8688ZM81.1488 55.7512C81.1488 55.6198 81.057 55.5388 80.9079 55.5388H80.619V56.2049H80.7334V55.9727H80.8842L81.0344 56.2049H81.1685L80.994 55.9528C81.0385 55.9423 81.0772 55.9163 81.1049 55.8795C81.1327 55.8427 81.1465 55.7973 81.1442 55.7512" fill="black"/>
<path d="M37.0366 55.1464C36.8694 55.063 36.7308 54.9306 36.6386 54.7663C36.5464 54.6021 36.505 54.4135 36.5196 54.225C36.5341 54.0366 36.6042 53.8569 36.7205 53.7093C36.8368 53.5617 36.9941 53.4529 37.1721 53.397C37.5537 53.2805 37.9629 53.2972 38.3341 53.4444C38.3599 53.4569 38.382 53.4764 38.3979 53.5006C38.4138 53.5248 38.4229 53.5528 38.4244 53.5819C38.4473 54.0081 38.5337 54.4284 38.6804 54.8286C38.695 54.8682 38.6941 54.9119 38.6779 54.9509C38.6616 54.9898 38.6312 55.021 38.593 55.0378C38.292 55.1662 37.5965 55.4091 37.0366 55.1464ZM35.0345 56.2677C35.2718 56.5077 35.5536 56.6975 35.8637 56.826C36.1738 56.9545 36.5059 57.0192 36.8409 57.0164C38.1595 57.0164 39.2689 56.1745 39.2689 56.1745C39.871 56.8376 40.5379 57.0149 41 57.0149C41.9588 57.0149 42.6738 56.5901 42.6738 55.9729C42.6738 55.707 42.5233 55.5894 42.2629 55.5894C42.0341 55.5894 41.8896 55.7422 41.5313 55.7422C41 55.7422 40.9006 54.4375 40.9006 53.4214C40.9006 52.4055 41.0165 50.8089 41.0617 49.7547C41.1746 47.0887 39.5564 46.2102 37.4626 46.2102C35.9302 46.2102 34.6025 47.4035 34.6025 48.8564C34.6025 49.8266 35.0827 50.6133 36.1379 50.6133C36.2751 50.619 36.4119 50.5957 36.5396 50.5446C36.6673 50.4936 36.7832 50.4161 36.8797 50.317C36.9761 50.2179 37.0512 50.0994 37.1 49.9692C37.1488 49.8389 37.1702 49.6998 37.163 49.5607C37.163 48.9862 36.7867 48.7372 36.4013 48.5279C36.016 48.3186 36.016 48.0619 36.0762 47.8985C36.1545 47.6497 36.3118 47.4342 36.5233 47.2856C36.7348 47.1369 36.9889 47.0634 37.2458 47.0765C37.863 47.0765 38.7827 47.8404 38.572 50.1779C38.5208 50.7493 38.4907 51.4582 38.4681 51.7179C38.4673 51.7299 38.4639 51.7414 38.458 51.7517C38.4521 51.762 38.444 51.7708 38.4343 51.7774C38.4246 51.7841 38.4134 51.7884 38.4018 51.79C38.3902 51.7916 38.3783 51.7905 38.3672 51.7867C37.9927 51.6723 37.6038 51.6136 37.2127 51.6126C35.8835 51.6126 34.3421 52.5613 34.3421 54.468C34.3282 54.8008 34.3822 55.1329 34.5009 55.4434C34.6195 55.7539 34.8002 56.0361 35.0315 56.2723" fill="black"/>
<path d="M78.4622 47.8937C78.5027 48.0633 78.5223 48.3139 78.1369 48.5231C77.7516 48.7325 77.3843 48.9815 77.3843 49.5544C77.3771 49.6935 77.3985 49.8327 77.4473 49.9629C77.4961 50.0931 77.5711 50.2116 77.6676 50.3107C77.7641 50.4097 77.88 50.4873 78.0075 50.5383C78.1352 50.5894 78.2721 50.6128 78.4097 50.6071C79.4629 50.6071 79.9448 49.8203 79.9448 48.8516C79.9448 47.4766 78.9245 46.2956 77.2353 46.2238C75.5102 46.152 73.7415 47.3284 73.7551 49.7699C73.7641 51.3572 74.7455 52.5275 76.6467 53.5542C77.717 54.0904 78.2334 54.4342 78.2334 55.0667C78.2334 55.4578 78.0393 56.0461 77.2488 56.0461C76.4586 56.0461 75.8941 55.5725 75.7962 54.7627C75.7756 54.5419 75.672 54.3376 75.5069 54.1922C75.3418 54.0469 75.1279 53.9716 74.9096 53.982C74.324 53.982 73.8138 54.6038 74.1976 55.5007C74.4053 55.9865 75.1008 57.0116 77.2639 57.0116C79.4271 57.0116 79.7085 55.3494 79.7565 55.0514C79.9991 53.5695 79.3439 52.7338 78.4593 51.9851C77.1615 50.8867 75.8775 50.4711 75.6623 49.2351C75.4199 47.8372 76.2975 47.0962 77.3346 47.0962C77.5831 47.093 77.8265 47.1686 78.0306 47.3124C78.2352 47.4561 78.39 47.6609 78.4744 47.8983" fill="black"/>
<path d="M61.7232 54.1117C62.6956 54.1117 62.3479 56.9717 59.6534 56.9717C57.826 56.9717 56.7076 55.7969 56.7076 53.2806V48.9172C56.7076 47.9057 56.5195 47.8477 55.6539 47.8477C55.2987 47.8477 54.9916 47.6689 54.9916 47.1434C54.9916 46.7691 55.2325 46.5032 55.7593 46.5032C56.6625 46.5032 57.0147 46.2053 57.1276 45.6675C57.528 43.7792 57.3564 41.4661 58.383 41.4661C59.3177 41.4661 59.1356 42.9007 59.1356 45.527C59.1356 46.3138 59.3283 46.4803 59.9379 46.4803H61.526C61.9068 46.4803 62.2184 46.7018 62.2184 47.1388C62.2184 47.6628 61.9023 47.8508 61.5576 47.8508H60.1306C59.256 47.8508 59.1883 48.1471 59.1883 48.6528V54.5823C59.1883 55.3003 59.5616 55.5814 60.1095 55.5814C61.1753 55.5814 60.7944 54.1163 61.7232 54.1163" fill="black"/>
<path d="M44.2321 40.0469C43.7068 40.0469 43.4659 40.3387 43.4659 40.7145C43.4659 41.2386 43.767 41.3577 44.1192 41.4433C44.2953 41.483 44.6747 41.5013 44.6762 42.004V54.755C44.6762 55.2577 44.2953 55.276 44.1177 55.3157C43.773 55.4028 43.4659 55.522 43.4659 56.046C43.4659 56.4203 43.7053 56.7121 44.2321 56.7121H47.6536C48.1805 56.7121 48.4213 56.4203 48.4213 56.046C48.4213 55.5205 48.1128 55.4013 47.768 55.3157C47.5904 55.276 47.2126 55.2577 47.2096 54.755C47.2096 54.1729 47.2096 43.6754 47.2096 40.7145C47.2096 40.3402 46.9687 40.0484 46.4419 40.0484L44.2321 40.0469Z" fill="black"/>
<path d="M51.6997 44.8564C52.0089 44.8603 52.3123 44.7709 52.5713 44.5994C52.8304 44.4278 53.0333 44.182 53.1543 43.8932C53.2754 43.6043 53.309 43.2855 53.2511 42.9772C53.1932 42.6688 53.0462 42.385 52.8289 42.1616C52.6116 41.9382 52.3338 41.7855 52.0308 41.7228C51.7277 41.6601 51.4132 41.6903 51.1271 41.8095C50.841 41.9287 50.5963 42.1315 50.424 42.3922C50.2518 42.6529 50.1598 42.9597 50.1598 43.2736C50.1578 43.6906 50.3188 44.0913 50.6074 44.388C50.8961 44.6847 51.2889 44.8532 51.6997 44.8564Z" fill="black"/>
<path d="M52.5922 46.5002C53.1176 46.5002 53.3584 46.7921 53.3584 47.1664C53.3584 49.8079 53.3584 54.7229 53.3584 54.7229C53.375 55.1812 53.5646 55.2592 54.0614 55.334C54.3956 55.4028 54.6153 55.5387 54.6108 55.9849C54.6108 56.5226 54.3218 56.7045 53.676 56.7045H50.3764C49.8496 56.7045 49.6103 56.4126 49.6103 56.0383C49.6103 55.5128 49.9113 55.3951 50.262 55.308C50.4397 55.2683 50.8175 55.25 50.8205 54.7473V48.4497C50.8205 47.8753 50.3779 47.9287 50.2063 47.8753C50.0347 47.8218 49.6042 47.695 49.6042 47.1603C49.6042 46.6255 50.0046 46.4941 50.5074 46.4941H52.5847" fill="black"/>
<path d="M31.2489 43.8098C31.2489 41.4952 28.9608 40.8658 27.4465 41.2997C25.6808 41.8054 23.6201 43.9932 23.6201 48.7141C23.6201 51.5558 25.151 55.58 28.0426 55.58C29.0963 55.58 29.0526 54.839 29.0526 53.4014C29.0526 52.3579 29.1068 52.0508 27.9989 52.0508C27.6542 52.0508 27.3396 51.8629 27.3396 51.3388C27.3396 50.963 27.579 50.6712 28.1058 50.6712H32.8219C33.3487 50.6712 33.588 50.963 33.588 51.3388C33.588 51.4626 33.7115 52.0752 32.5615 52.0752C31.6764 52.0752 31.869 52.526 31.869 54.943C31.869 57.0161 32.0677 57.0085 28.0291 57.0085C22.5905 57.0085 20.4545 52.4251 20.4545 48.025C20.4434 46.8186 20.6784 45.6228 21.1447 44.513C21.611 43.4031 22.2985 42.4033 23.164 41.5762C25.1494 39.7245 28.6959 39.3593 30.6332 40.6946C33.3984 42.5983 32.6759 46.8318 30.7702 46.8318C29.9182 46.8318 29.3477 46.2987 29.3477 45.6539C29.3477 44.6517 30.0793 44.563 30.567 44.563C31.0547 44.563 31.2474 44.2239 31.2474 43.8098" fill="black"/>
<path d="M71.9473 42.1765C71.4747 42.1765 70.9779 42.5631 70.9268 43.246C70.9268 44.9021 72.3267 44.3918 72.3267 45.6064C72.3267 46.132 72.1761 46.3306 72.1189 46.5705C72.0632 46.8409 72.2213 46.9983 72.42 46.9983C73.424 46.9983 73.7582 44.9128 73.4135 43.6524C73.1124 42.531 72.5013 42.1826 71.9534 42.1826" fill="black"/>
<path d="M67.517 55.7252C66.5717 55.7252 65.7106 54.7275 65.7106 51.5192C65.7106 50.5643 65.8341 47.4934 67.517 47.4934C69.1998 47.4934 69.4302 50.549 69.4302 51.5069C69.4302 54.7153 68.4623 55.7252 67.517 55.7252ZM67.517 46.2024C64.3785 46.2024 63.0011 48.7279 63.0011 51.8461C63.0011 54.2906 64.4838 57.0162 67.544 57.0162C70.6043 57.0162 72.0855 54.2937 72.0855 51.8461C72.0855 48.7279 70.6494 46.2024 67.5094 46.2024" fill="black"/>
</svg>
