<svg preserveAspectRatio="none" width="100%" height="100%" overflow="visible" style="display: block;" viewBox="0 0 14.9448 15.9707" fill="none" xmlns="http://www.w3.org/2000/svg">
<g id="Group">
<path id="Vector" d="M11.0256 10.4452C12.921 9.40448 14.358 8.61144 14.4818 8.54982C14.878 8.33908 15.2872 7.78142 14.4818 7.34824C14.2218 7.21206 12.8218 6.44366 11.0256 5.45282L8.53554 7.96751L11.0256 10.4452Z" fill="var(--fill-0, #FFD900)"/>
<path id="Vector_2" d="M8.53554 7.96751L0.606953 15.9583C0.793044 15.983 1.00317 15.9337 1.25088 15.7975C1.77095 15.5128 7.28405 12.5021 11.0256 10.4459L8.53554 7.96751Z" fill="var(--fill-0, #F43249)"/>
<path id="Vector_3" d="M8.53554 7.96751L11.0256 5.46514C11.0256 5.46514 1.80853 0.435137 1.25088 0.138131C1.04075 0.0136595 0.805368 -0.0233122 0.594629 0.0136595L8.53554 7.96751Z" fill="var(--fill-0, #00EE76)"/>
<path id="Vector_4" d="M8.53554 7.96751L0.594629 0.0136595C0.272358 0.0882192 0 0.372902 0 0.955206C0 1.88443 0 14.2484 0 15.0168C0 15.5498 0.210739 15.9337 0.606953 15.9707L8.53554 7.96751Z" fill="var(--fill-0, #00D3FF)"/>
</g>
</svg>
