<svg preserveAspectRatio="none" width="100%" height="100%" overflow="visible" style="display: block;" viewBox="0 0 1695.72 710.454" fill="none" xmlns="http://www.w3.org/2000/svg">
<g id="Clip path group">
<path id="Vector" d="M1637.19 27.0479H297V663.048H1637.19V27.0479Z" fill="var(--fill-0, black)"/>
<g id="Group">
<path id="Vector_2" d="M1664 24.795L82.0002 24.795L82.0002 675.795H1664L1664 24.795Z" fill="var(--fill-0, #F2EFEB)"/>
<g id="Group_2">
<path id="Vector_3" d="M1056.5 517.915C1052.57 517.915 1048.94 516.893 1047.25 515.255L1011.91 481.083C1009.52 478.775 1011.73 476.029 1016.84 474.953C1021.96 473.872 1028.03 474.871 1030.42 477.179L1062.6 508.296L1292.98 494.886C1298.56 494.568 1303.7 496.345 1304.42 498.872C1305.14 501.4 1301.19 503.711 1295.59 504.037L1057.8 517.877C1057.37 517.903 1056.93 517.915 1056.5 517.915Z" fill="var(--fill-0, #C2C2C2)"/>
</g>
<g id="Group_3">
<path id="Vector_4" d="M1056.37 517.339C1052.45 517.339 1048.71 516.315 1047.02 514.593C1044.74 512.263 1047.07 509.538 1052.22 508.507L1274.84 463.98C1280 462.945 1286.03 464.002 1288.31 466.33C1290.6 468.659 1288.27 471.384 1283.11 472.416L1060.5 516.942C1059.15 517.211 1057.75 517.339 1056.37 517.339Z" fill="var(--fill-0, #C2C2C2)"/>
</g>
<g id="Group_4">
<path id="Vector_5" d="M996.342 85.8451C994.731 85.8451 993.104 85.6729 991.582 85.31L871.269 56.6072C866.28 55.4171 864.373 52.6263 867.009 50.3737C869.645 48.1195 875.828 47.2616 880.813 48.4501L1001.13 77.1529C1006.11 78.343 1008.02 81.1338 1005.39 83.3864C1003.55 84.9502 1000.01 85.8451 996.342 85.8451Z" fill="var(--fill-0, #C2C2C2)"/>
</g>
<path id="Vector_6" d="M285.149 126.797C285.149 126.797 543.444 131.113 567.33 134.386C591.221 137.658 619.442 70.14 619.442 70.14L589.658 7.82942L253.294 12.7637" fill="var(--fill-0, #FFD297)"/>
<path id="Vector_7" d="M1041.5 267.083L1058.02 341.516L1209.86 325.691L1354.39 284.941L1332.66 236.387L1358.92 189.764C1358.92 189.764 1200.22 187.857 1148.16 207.611C1113.33 226.11 1141.28 252.599 1141.28 252.599L1041.5 267.083Z" fill="var(--fill-0, #FFD297)"/>
<path id="Vector_8" d="M312.121 434.795L421 511.265L341.672 518.703L391.395 586.067L45 624.795L102.161 470.422C102.161 470.422 178.971 443.603 312.121 434.795Z" fill="var(--fill-0, #FFD297)"/>
<path id="Vector_9" d="M1666.15 271.743C1650.88 275.853 1406.38 332.753 1400.61 336.288C1400.61 336.288 1483.93 401.114 1484.07 401.231C1484.23 401.345 1304.22 425.744 1304.22 425.744L1415.8 540.585L1686.18 496.805L1666.15 271.743Z" fill="var(--fill-0, #FFD297)"/>
<path id="Vector_10" d="M695.3 665.556C680.464 659.192 607.404 613.759 616.966 612.938C626.524 612.114 707.089 617.457 726.205 612.938C745.321 608.416 929.266 576.804 954.045 570.103C983.192 571.158 1007.13 572.088 1021.11 570.103C1035.09 568.118 1116.84 556.511 1120.1 556.049C1123.36 555.585 1102.41 647.587 1113.33 650.964C1124.26 654.337 1322.91 625.61 1331.1 627.458C1339.29 629.308 1310.75 676.021 1310.75 676.021L1422.62 663.912C1422.62 663.912 1355.4 602.89 1354.34 599.167C1353.29 595.445 1331.32 549.538 1331.32 549.538C1331.32 549.538 1531.86 547.371 1553.71 540.59C1575.56 533.808 1683.43 518.701 1683.43 518.701L1695.72 688.579L695.3 665.556Z" fill="var(--fill-0, #299BE2)"/>
<path id="Vector_11" d="M1217.19 10.6002C1180.03 21.0345 1099 33.0141 1138.14 88.8651C1165.45 94.5651 1182.75 96.6224 1182.75 96.6224C1182.75 96.6224 1214.63 99.4962 1231.01 98.6767C1247.39 97.8556 1373.02 74.0102 1373.93 72.777C1374.84 71.5438 1383.94 7.82787 1383.94 7.82787L1217.19 10.6002Z" fill="var(--fill-0, #0DA239)"/>
<path id="Vector_12" d="M558.247 547.368L480.413 499.891L520.018 482.625L489.157 430.741L718.018 401.846L794.49 375.949L816.341 395.065L922.846 369.167L1036.19 355.602L1068.17 377.801L845.015 435.146L855.935 452.411C855.928 452.409 608.772 549.219 558.247 547.368Z" fill="var(--fill-0, #0DA239)"/>
<path id="Vector_13" d="M597.395 220.768C597.395 223.235 597.391 264.752 598.307 267.218C599.22 269.685 655.656 324.358 660.216 327.65C664.765 330.937 712.103 360.536 712.103 360.536C712.103 360.536 833.182 338.335 869.596 319.428C906.916 304.218 968.821 279.965 968.821 279.965C968.821 279.965 971.76 247.182 968.821 241.912C967.401 239.36 946.048 187.882 946.048 187.882C946.048 187.882 882.879 197.745 813.153 218.716C790.39 224.468 608.322 219.121 597.395 220.768Z" fill="var(--fill-0, #0DA239)"/>
<g id="Group_5">
<path id="Vector_14" d="M261.558 451.984L245.016 436.809C281.124 428.781 336.839 420.11 401.352 410.068C552.198 386.587 758.793 354.432 885.44 304.037C976.625 267.754 1046.02 237.833 1088.3 209.744C1130.97 181.393 1143.55 156.756 1129.06 129.861C1109.92 94.3361 1106.22 69.9095 1117.05 50.6554C1130.08 27.465 1165.04 10.8956 1223.91 0L1238.11 15.6514C1148.36 32.2624 1130.02 60.0733 1165.46 125.864C1202.22 194.123 1082.85 248.026 910.208 316.725C778.005 369.332 567.365 402.117 413.563 426.056C350.238 435.914 295.558 444.425 261.558 451.984Z" fill="var(--fill-0, #299BE2)"/>
</g>
<g id="Group_6">
<path id="Vector_15" d="M828.409 127.644C807.669 127.644 803.648 126.189 801.758 125.507C797.702 124.038 793.871 122.654 791.277 99.0856C790.211 89.3863 789.819 79.7885 789.741 77.0131C785.59 72.5647 756.654 49.1698 746.636 42.4243C722.109 44.8506 617.64 57.1239 553.014 64.7167C473.12 74.1023 472.991 74.1023 470.852 74.1023C469.201 74.1408 447.565 74.9234 422.51 75.8291C375.54 77.5266 304.56 80.0914 277.605 80.8756C272.004 81.0447 267.118 79.1119 266.753 76.5687C266.389 74.027 270.659 71.8328 276.291 71.6683C303.086 70.8887 373.97 68.327 420.879 66.631C455.768 65.3702 466.286 64.995 469.575 64.9012C474.819 64.3677 510.335 60.1946 547.869 55.7847C748.454 32.2191 749.452 32.3605 754.011 33.0463C758.159 33.6706 760.661 34.0473 785.791 54.1148C810.155 73.5688 810.155 75.0664 810.155 76.2704C810.155 84.5043 812.157 111.313 815.661 118.175C824.306 118.698 847.781 118.211 867.173 117.313C872.792 117.054 877.804 118.896 878.376 121.43C878.952 123.964 874.869 126.231 869.257 126.491C851.128 127.333 837.985 127.642 828.409 127.644Z" fill="var(--fill-0, #C2C2C2)"/>
</g>
<g id="Group_7">
<path id="Vector_16" d="M799.935 80.8867C798.184 80.8867 796.414 80.6838 794.796 80.2563C789.923 78.9724 788.279 76.1478 791.122 73.9475C798.47 68.2629 812.064 54.2305 817.192 48.8612L780.233 20.6596C777.359 18.467 778.966 15.6378 783.822 14.3416C788.684 13.0423 794.943 13.7696 797.813 15.9622L837.415 46.178C839.069 47.4389 839.294 48.9796 838.027 50.3296C837.237 51.1707 818.543 71.0321 808.764 78.5987C806.867 80.0672 803.449 80.8867 799.935 80.8867Z" fill="var(--fill-0, #C2C2C2)"/>
</g>
<g id="Group_8">
<path id="Vector_17" d="M289 247.991C285.908 247.991 282.854 247.36 280.845 246.161C277.44 244.13 278.328 241.236 282.827 239.698C295.442 235.388 554.994 149.578 569.796 147.163C572.333 146.747 574.777 146.761 579.211 146.787C596.792 146.897 650.18 147.206 693.02 116.948C743.821 81.0664 740.613 38.0422 740.572 37.6117C740.348 35.0669 744.727 32.9189 750.362 32.8143C755.994 32.7451 760.751 34.6856 760.986 37.2303C761.16 39.1016 764.595 83.5189 710.233 121.918C661.271 156.499 599.315 156.136 578.942 156.012C578.022 156.007 576.974 155.995 576.17 156.002C553.55 161.835 324.26 237.109 295.153 247.054C293.311 247.686 291.145 247.991 289 247.991Z" fill="var(--fill-0, #C2C2C2)"/>
</g>
<g id="Group_9">
<path id="Vector_18" d="M640.173 151.181C634.708 151.181 630.176 149.226 629.971 146.74C629.859 145.385 627.23 113.53 627.23 110.6C627.033 109.157 622.936 100.344 620.226 94.5116C615.159 83.6083 613.671 80.2086 613.579 78.6802C613.303 77.6546 611.015 73.7829 609.17 70.6615C604.283 62.3937 600.827 56.2925 600.827 53.0496C600.827 50.5018 605.4 48.4368 611.042 48.4368C616.685 48.4368 621.258 50.5018 621.258 53.0496C621.258 55.333 626.045 63.4393 628.909 68.2828C632.76 74.8008 634.006 77.0334 634.006 78.5357C634.224 79.7073 637.691 87.1694 640.221 92.6172C645.894 104.826 647.661 108.899 647.661 110.6C647.661 112.891 649.629 137.217 650.388 146.397C650.596 148.943 646.2 151.084 640.561 151.179C640.432 151.181 640.303 151.181 640.173 151.181Z" fill="var(--fill-0, #C2C2C2)"/>
</g>
<g id="Group_10">
<path id="Vector_19" d="M969.745 271.696C969.34 271.696 968.928 271.685 968.516 271.664C962.915 271.361 958.92 269.063 959.591 266.534C961.471 259.459 962.908 250.67 962.101 248.678C958.062 243.327 936.729 195.331 935.892 191.177C935.217 187.822 940.475 181.036 956.619 162.348C961.876 156.26 966.844 150.51 968.049 148.465C971.788 142.137 987.857 90.0028 987.871 84.2906C986.699 81.8304 989.256 78.1847 1007.06 58.2279C1012.03 52.654 1018.21 45.7193 1018.89 44.3201C1021.32 38.8416 1041.19 24.9691 1060.57 15.2283C1064.35 13.334 1070.81 13.1787 1075 14.8808C1079.19 16.583 1079.54 19.4998 1075.77 21.3957C1056.53 31.0612 1040.14 43.3991 1038.92 46.1422C1038.09 48.035 1034.53 52.1158 1026 61.6752C1019.75 68.6914 1009.4 80.2881 1008.16 83.1589C1008.54 85.3054 1007.61 91.5235 1000.11 115.81C995.675 130.144 989.934 147.221 987.792 150.842C986.369 153.261 982.252 158.064 975.653 165.703C968.601 173.866 956.847 187.476 956.275 190.488C957.531 195.504 978.667 242.015 981.312 245.547C982.085 246.388 984.748 249.313 979.879 267.635C979.252 269.975 974.843 271.696 969.745 271.696Z" fill="var(--fill-0, #C2C2C2)"/>
</g>
<g id="Group_11">
<path id="Vector_20" d="M1542.23 684.944C1535.66 684.944 1530.17 682.844 1528.89 680.047C1522.12 670.583 1387.03 528.025 1278.33 413.331C1203.02 333.861 1137.98 265.227 1121.9 247.563C1121.73 247.376 1121.58 247.186 1121.46 246.993C1112.19 233.045 1124.65 210.347 1141.08 202.932C1157.63 195.456 1222.51 186.649 1246.13 185.662C1278.78 184.296 1653.65 181.834 1669.6 181.73C1669.66 181.73 1669.73 181.73 1669.8 181.73C1677.23 181.73 1683.3 184.425 1683.41 187.791C1683.52 191.186 1677.51 193.98 1669.99 194.029C1666.09 194.055 1280.24 196.588 1248.65 197.909C1223.6 198.957 1168.56 207.92 1160.35 211.629C1152.04 215.378 1140.73 232.602 1147.38 243.186C1163.83 261.236 1228.53 329.509 1303.38 408.489C1543.63 662 1555.85 675.901 1555.85 678.791C1555.85 682.19 1549.75 684.944 1542.23 684.944Z" fill="var(--fill-0, white)"/>
</g>
<g id="Group_12">
<path id="Vector_21" d="M698.904 507.274C694.835 507.274 690.814 506.456 688.131 504.89C643.701 479 642.294 475.201 641.767 473.772C640.04 469.09 642.897 434.361 646.197 429.143C648.526 425.466 657.914 420.892 691.365 405.925C703.937 400.3 716.938 394.485 725.651 390.126C730.688 387.605 739.299 387.402 744.887 389.68C750.471 391.955 750.914 395.845 745.871 398.366C736.647 402.982 723.373 408.92 710.536 414.664C695.949 421.19 676.138 430.054 672.242 432.835C670.162 437.847 667.822 466.273 668.578 471.407C672.133 474.722 692.268 487.22 709.658 497.356C714.268 500.041 713.182 503.905 707.237 505.985C704.754 506.854 701.819 507.274 698.904 507.274Z" fill="var(--fill-0, white)"/>
</g>
<g id="Group_13">
<path id="Vector_22" d="M1309.28 710.454C1303.83 710.454 1299.3 708.508 1299.08 706.026C1296.82 680.541 1302.59 641.392 1342.9 599.604C1343.36 599.126 1343.74 598.732 1344.04 598.419C1342.31 592.32 1325.1 557.704 1312.75 533.532L1010.57 576.435C1009.32 576.61 1008 576.681 1006.69 576.632L835.997 570.466C832.2 570.329 828.887 569.25 827.402 567.666L801.418 539.927L786.337 542.953C783.715 543.481 780.725 543.482 778.1 542.966C775.471 542.448 773.448 541.456 772.522 540.23L734.289 489.666C732.464 487.255 735.318 484.633 740.657 483.809C745.993 482.985 751.802 484.273 753.624 486.683L788.247 532.475L802.623 529.59C805.126 529.086 807.973 529.056 810.523 529.515C813.073 529.97 815.11 530.868 816.179 532.007L843.801 561.493L1006.33 567.363L1317.14 523.235C1319.85 522.854 1322.8 522.994 1325.27 523.632C1327.75 524.268 1329.51 525.342 1330.16 526.593C1366.22 596.741 1364.98 598.96 1364.25 600.287C1363.9 600.931 1363.28 601.572 1361.62 603.288C1322.87 643.472 1317.32 681.138 1319.49 705.657C1319.71 708.203 1315.33 710.35 1309.69 710.451C1309.56 710.453 1309.42 710.454 1309.28 710.454Z" fill="var(--fill-0, #C2C2C2)"/>
</g>
<g id="Group_14">
<path id="Vector_23" d="M1320.21 533.788C1314.53 533.788 1309.24 532.172 1307.32 529.61C1306.38 528.366 1213.75 404.98 1196.25 383.093C1184.15 367.963 1160.56 357.547 1126.13 352.135C1047.99 339.852 933.98 356.374 913.631 362.063C907.236 363.85 898.842 362.96 894.882 360.07C890.922 357.183 892.897 353.391 899.292 351.604C918.755 346.164 1042.25 325.926 1135.09 340.518C1177.65 347.208 1206.84 360.127 1221.87 378.915C1239.46 400.914 1332.18 524.416 1333.11 525.66C1335.53 528.878 1331.71 532.369 1324.59 533.459C1323.14 533.683 1321.67 533.788 1320.21 533.788Z" fill="var(--fill-0, white)"/>
</g>
<g id="Group_15">
<path id="Vector_24" d="M1415.8 546.74C1410.57 546.74 1405.58 545.371 1403.33 543.071C1400.29 539.963 1403.41 536.332 1410.29 534.96L1608.3 495.495C1609.4 495.277 1610.56 495.123 1611.75 495.042L1674.56 490.726C1682.02 490.212 1688.94 492.522 1690.08 495.881C1691.21 499.24 1686.1 502.376 1678.66 502.887L1617.64 507.08L1421.3 546.214C1419.51 546.572 1417.64 546.74 1415.8 546.74Z" fill="var(--fill-0, white)"/>
</g>
<g id="Group_16">
<path id="Vector_25" d="M841.599 530.172C832.181 530.172 826.817 525.417 819.772 519.175C814.419 514.43 807.657 508.022 801.119 501.827C791.816 493.011 782.197 483.893 777.348 480.242C773.476 477.328 775.567 473.55 782.02 471.804C788.469 470.055 796.835 471.001 800.707 473.912C806.23 478.07 815.696 487.04 825.718 496.536C832.385 502.856 840.809 510.842 846.38 515.646C848.423 515.069 850.64 514.445 852.894 513.808C893.524 502.338 978.066 478.469 1017.31 473.235C1024.53 472.265 1032.1 474.135 1034.23 477.391C1036.36 480.65 1032.24 484.071 1025.03 485.032C989.347 489.791 903.848 513.93 867.335 524.238C849.867 529.171 848.896 529.429 846.584 529.777C844.793 530.044 843.142 530.172 841.599 530.172Z" fill="var(--fill-0, white)"/>
</g>
<g id="Group_17">
<path id="Vector_26" d="M1021.17 485.284C1015.99 485.284 1011.09 483.943 1008.81 481.717C1000.12 473.247 851.383 317.835 845.397 306.114C839.169 293.935 861.412 47.3555 866.005 14.8379C866.482 11.4474 872.962 8.86116 880.466 9.09181C887.975 9.30861 893.668 12.2316 893.191 15.6221C887.365 56.8734 867.405 290.922 871.995 303.468C876.489 312.218 998.845 441.163 1028.35 471.338C1037.07 469.831 1049.95 467.589 1064.6 465.036C1162.39 448.013 1365.87 412.59 1438.12 402.352C1531.99 389.053 1647.94 367.913 1669.31 361.233C1675.5 359.3 1683.98 359.997 1688.26 362.791C1692.54 365.583 1691 369.415 1684.81 371.348C1658.89 379.452 1538.5 401.022 1446.27 414.089C1374.84 424.208 1171.92 459.536 1074.39 476.515C1042.39 482.086 1028.13 484.566 1025.47 484.967C1024.05 485.181 1022.6 485.284 1021.17 485.284Z" fill="var(--fill-0, white)"/>
</g>
<g id="Group_18">
<path id="Vector_27" d="M1392.51 167.117C1390.21 167.117 1387.9 166.768 1385.99 166.052C1373.23 161.262 1309.27 136.722 1303.38 123.939C1300.06 116.728 1300.77 93.4729 1302.25 58.8164C1302.99 41.3398 1303.7 24.8319 1303.17 15.3448C1303.03 12.7985 1307.49 10.6812 1313.12 10.6181C1313.21 10.6181 1313.3 10.6166 1313.38 10.6166C1318.91 10.6166 1323.45 12.6063 1323.59 15.1141C1324.13 24.8073 1323.42 41.4136 1322.67 58.9948C1321.6 84.0918 1320.28 115.326 1323.38 122.06C1326.65 129.147 1369.59 147.903 1399.05 158.959C1403.38 160.587 1403.98 163.496 1400.37 165.455C1398.35 166.55 1395.45 167.117 1392.51 167.117Z" fill="var(--fill-0, #C2C2C2)"/>
</g>
<g id="Group_19">
<path id="Vector_28" d="M1588.03 291.926C1584.62 291.926 1581.28 291.153 1579.34 289.744C1565.65 279.787 1547.99 268.158 1541.55 265.476C1530.6 265.127 1483.25 268.927 1448.31 271.725C1395.39 275.966 1362.42 278.489 1350.69 277.879C1345.08 277.585 1341.07 275.294 1341.72 272.763C1342.37 270.232 1347.45 268.428 1353.05 268.714C1362.63 269.216 1408.16 265.573 1444.73 262.641C1528.33 255.943 1544.36 255.159 1551.87 257.421C1563.08 260.793 1589.02 279.289 1596.7 284.878C1599.67 287.043 1598.2 289.886 1593.4 291.23C1591.73 291.702 1589.87 291.926 1588.03 291.926Z" fill="var(--fill-0, #C2C2C2)"/>
</g>
<g id="Group_20">
<path id="Vector_29" d="M476.01 505.738C472.223 505.738 468.583 504.783 466.816 503.142C466.087 502.467 465.757 501.749 465.788 501.046C463.833 495.754 438.625 453.139 422.853 426.956C421.371 424.497 424.586 421.963 430.027 421.295C435.472 420.624 441.084 422.076 442.568 424.534C442.681 424.722 453.989 443.504 464.93 462.095C471.359 473.025 476.405 481.754 479.929 488.041C482.037 491.797 483.617 494.725 484.638 496.739C486.498 500.417 488.105 503.594 480.474 505.27C479.03 505.588 477.508 505.738 476.01 505.738ZM471.515 496.979C470.313 497.245 469.336 497.587 468.553 497.966C469.373 497.57 470.368 497.231 471.515 496.979Z" fill="var(--fill-0, #C2C2C2)"/>
</g>
<g id="Group_21">
<path id="Vector_30" d="M273.301 469.455C270.318 469.455 267.312 469.016 264.799 468.107C258.925 465.985 257.975 462.115 262.674 459.463C288.427 444.93 319.083 435.137 356.396 429.519C365.975 428.077 383.661 425.449 405.12 422.26C465.666 413.262 566.999 398.204 581.869 395.521C605.504 391.252 632.418 386.149 654.047 382.049C667.814 379.44 678.687 377.38 685.177 376.203C689.45 375.428 694.299 375.679 698.062 376.872C701.865 378.073 705.744 379.345 709.574 380.603C716.987 383.033 727.649 386.529 733.23 387.776C747.892 383.232 800.627 364.507 833.228 352.932C863.319 342.247 880.555 336.139 884.801 334.861C898.671 330.239 1008.25 279.771 1028.89 267.077C1022.65 263.671 1010.01 257.387 998.982 252.124C993.809 249.656 994.051 245.764 999.513 243.428C1004.98 241.093 1013.6 241.205 1018.77 243.67C1056.62 261.737 1057.39 263.653 1058.14 265.507C1059.63 269.205 1060.72 271.877 983.189 308.177C953.483 322.087 908.014 342.656 899.907 345.099C896.338 346.172 872.815 354.524 850.063 362.603C751.522 397.592 744.593 399.589 739.059 400.212C727.652 401.505 715.612 397.789 693.564 390.557C691.864 390.002 690.162 389.441 688.456 388.887C682.136 390.068 673.804 391.647 664.586 393.394C642.865 397.512 615.832 402.637 591.979 406.942C576.319 409.77 478.415 424.317 413.633 433.946C392.215 437.127 374.566 439.75 365.008 441.189C332.383 446.101 306.62 454.35 283.939 467.148C281.252 468.665 277.292 469.455 273.301 469.455Z" fill="var(--fill-0, white)"/>
</g>
<g id="Group_22">
<path id="Vector_31" d="M260.558 539.956C254.67 539.956 249.243 538.219 247.499 535.54C245.374 532.281 249.505 528.863 256.724 527.903C258.576 527.657 261.426 527.286 265.114 526.805C434.477 504.736 475.679 495.235 485.166 491.535C510.534 481.641 557.365 467.842 576.004 467.842C583.342 467.842 625.763 465.602 650.777 464.19C658.275 463.761 665.051 466.16 665.981 469.53C666.914 472.901 661.619 475.975 654.155 476.396C647.416 476.777 588.409 480.089 576.29 480.145C567.924 480.68 531.55 489.701 502.968 500.847C482.837 508.7 407.502 521.058 272.663 538.626C269.037 539.1 266.231 539.464 264.406 539.707C263.125 539.875 261.828 539.956 260.558 539.956Z" fill="var(--fill-0, white)"/>
</g>
<g id="Group_23">
<path id="Vector_32" d="M321.574 299.374C321.023 299.374 320.468 299.354 319.906 299.313C314.338 298.899 310.569 296.525 311.481 294.013L337.428 222.756C338.341 220.242 343.578 218.537 349.166 218.952C354.733 219.366 358.503 221.74 357.59 224.252L331.643 295.509C330.822 297.769 326.488 299.374 321.574 299.374Z" fill="var(--fill-0, #C2C2C2)"/>
</g>
<g id="Group_24">
<path id="Vector_33" d="M478.795 271.046C467.285 271.046 435.233 269.787 337.462 263.703C331.874 263.355 327.965 261.027 328.738 258.504C329.508 255.979 334.66 254.206 340.251 254.565C399.585 258.256 466.604 261.981 478.76 261.916C482.67 260.93 494.673 257.618 506.318 254.405C554.058 241.23 576.603 235.212 583.999 234.379C595.42 233.092 700.624 237.031 745.326 238.782C750.948 239.002 755.109 241.24 754.622 243.777C754.132 246.314 749.181 248.193 743.562 247.974C675.593 245.311 598.655 242.802 588.804 243.351C581.534 244.461 539.579 256.038 516.973 262.277C496.045 268.053 488.485 270.119 485.809 270.636C484.869 270.817 483.691 271.046 478.795 271.046Z" fill="var(--fill-0, #C2C2C2)"/>
</g>
<g id="Group_25">
<path id="Vector_34" d="M273.32 619.09C268.345 619.09 263.554 617.855 261.156 615.717C257.758 612.686 260.448 608.985 267.156 607.452C310.721 597.493 349.414 590.192 386.832 583.133C474.613 566.57 557.527 550.924 679.58 503.845C794.305 459.597 944.76 428.948 1077.51 401.906C1147.15 387.717 1212.94 374.318 1262.25 361.01C1417.93 318.991 1608.45 273.651 1661.98 265.886C1669.16 264.845 1676.82 266.627 1679.12 269.861C1681.42 273.096 1677.48 276.559 1670.31 277.598C1619.27 285.004 1427.75 330.672 1276.22 371.57C1225.57 385.239 1159.09 398.781 1088.71 413.118C957.628 439.822 809.049 470.089 697.276 513.199C571.979 561.529 487.15 577.536 397.341 594.481C360.375 601.457 322.145 608.67 279.466 618.424C277.487 618.876 275.39 619.09 273.32 619.09Z" fill="var(--fill-0, white)"/>
</g>
<g id="Group_26">
<path id="Vector_35" d="M1351.86 277.913C1347.2 277.913 1343 276.465 1341.91 274.324C1340.66 271.841 1344.1 269.367 1349.6 268.801C1361.33 267.593 1413.7 254.249 1448.75 242.174L1451.1 241.366C1486.03 229.357 1533.86 212.915 1533.94 162.184C1530.8 137.279 1533.04 131.581 1533.88 129.434L1533.95 129.255C1534.07 128.211 1535.56 125.52 1554.65 103.183C1556.17 101.404 1559.96 100.232 1564.18 100.232H1600.07L1661.68 86.7178C1666.74 85.6046 1672.86 86.5579 1675.33 88.8505C1677.8 91.1415 1675.68 93.9031 1670.6 95.0148L1606.88 108.993C1605.5 109.299 1603.97 109.458 1602.42 109.458H1571.2C1563.35 118.693 1555.56 128.138 1554.3 130.134C1554.22 130.46 1554.11 130.755 1554 131.044C1552.23 135.562 1552.35 145.905 1554.35 161.792C1554.36 161.88 1554.37 161.967 1554.37 162.055C1554.36 217.46 1499.66 236.264 1463.47 248.708L1461.14 249.51C1427.06 261.25 1371.06 276.054 1354.14 277.796C1353.38 277.875 1352.61 277.913 1351.86 277.913Z" fill="var(--fill-0, #C2C2C2)"/>
</g>
<g id="Group_27">
<path id="Vector_36" d="M1602.42 109.457C1596.99 109.457 1592.47 107.527 1592.22 105.053L1587.66 59.8333C1587.59 59.1045 1587.9 58.3772 1588.57 57.7129C1588.92 57.3608 1624.17 22.4061 1633.15 13.3449C1635.46 11.0184 1641.5 9.97747 1646.65 11.02C1651.8 12.0609 1654.11 14.7902 1651.8 17.1151C1643.65 25.3275 1614.07 54.6853 1608.18 60.5237L1612.63 104.635C1612.89 107.18 1608.53 109.337 1602.9 109.452C1602.73 109.455 1602.58 109.457 1602.42 109.457Z" fill="var(--fill-0, #C2C2C2)"/>
</g>
<g id="Group_28">
<path id="Vector_37" d="M812.891 311.952C805.975 311.952 802.09 311.111 798.985 309.011C788.695 302.038 688.754 204.906 684.215 195.338C681.028 188.629 638.573 156.259 630.313 150.89C617.925 147.596 547.575 137.303 533.669 137.303C527.1 137.303 497.922 136.721 457.537 135.913C391.386 134.593 291.422 132.591 273.504 132.981C265.986 133.146 259.608 130.522 259.251 127.13C258.893 123.737 264.695 120.855 272.207 120.694C291.361 120.282 384.177 122.136 458.743 123.625C495.746 124.364 527.703 125.002 533.669 125.002C549.295 125.002 640.433 136.864 650.818 142.727C656.198 145.763 706.015 182.579 710.85 192.759C715.062 200.993 798.634 282.466 818.234 299.418C827.091 298.886 843.415 297.51 857.74 296.149C865.252 294.191 871.401 293.212 877.36 292.263C890.759 290.131 904.611 287.927 941.887 271.093C992.746 248.127 1024.53 230.745 1030.87 226.433C1032.35 209.075 1049.45 50.4462 1143.33 13.6663C1149.01 11.4414 1157.61 11.7166 1162.54 14.2814C1167.47 16.8461 1166.86 20.7317 1161.18 22.9582C1082.29 53.869 1059.26 200.463 1057.99 228.045C1057.99 230.08 1057.99 231.907 1029.25 246.936C1010.21 256.889 986.031 268.558 961.15 279.793C919.499 298.601 901.925 301.398 886.418 303.866C880.769 304.766 875.893 305.542 869.859 307.206C868.544 307.569 867.104 307.827 865.599 307.973C865.075 308.024 852.602 309.223 839.673 310.29C827.387 311.302 818.966 311.951 812.891 311.952Z" fill="var(--fill-0, white)"/>
</g>
<g id="Group_29">
<path id="Vector_38" d="M1484.09 407.383C1479.56 407.383 1475.14 406.366 1472.55 404.51C1392.82 347.336 1301.96 268.824 1321.83 219.46C1338.35 178.438 1433.67 123.202 1489.02 93.9271L1491.43 92.6493C1496.99 89.3373 1504.46 70.0832 1509.4 57.3425C1517.19 37.2703 1522.37 24.7126 1530.34 19.6707C1534.71 16.9046 1543.22 16.268 1549.34 18.2407C1555.46 20.2151 1556.88 24.0545 1552.51 26.8191C1547.68 29.9497 1540.79 47.7123 1536.23 59.4659C1527.65 81.603 1521.9 95.4339 1512.22 100.597L1509.74 101.917C1418.58 150.129 1359.86 193.776 1348.64 221.662C1334.35 257.142 1386.55 319.751 1495.6 397.956C1499.61 400.832 1497.7 404.63 1491.33 406.439C1489.08 407.077 1486.57 407.383 1484.09 407.383Z" fill="var(--fill-0, white)"/>
</g>
<path id="Vector_39" d="M46.342 138.238C211.401 136.804 449.594 138.021 463.286 154.615C486.144 182.322 273.186 177.549 252.858 205.096C237.178 226.37 3.05176e-05 237.795 3.05176e-05 237.795L46.342 138.238Z" fill="var(--fill-0, #299BE2)"/>
<g id="Group_30">
<path id="Vector_40" d="M297.001 674.278C292.945 674.278 289.111 673.18 287.51 671.377C285.416 669.01 287.963 666.327 293.2 665.381C300.072 664.139 313.335 661.717 330.701 658.547C561.619 616.374 609.668 608.327 617.023 608.327C617.037 608.327 617.054 608.327 617.067 608.327C619.703 608.339 624.685 608.519 632.227 608.792C652.896 609.537 707.814 611.525 722.125 608.709C743.176 604.57 957.007 567.918 966.102 566.359C971.38 565.459 977.274 566.652 979.276 569.034C981.278 571.416 978.626 574.079 973.351 574.983C971.131 575.365 750.888 613.115 730.284 617.168C712.748 620.615 669.636 619.4 630.596 617.987C624.906 617.781 619.914 617.601 617.561 617.56C599.453 619.417 410.067 654.005 338.359 667.101C320.959 670.277 307.669 672.707 300.787 673.948C299.548 674.172 298.264 674.278 297.001 674.278Z" fill="var(--fill-0, #C2C2C2)"/>
</g>
<g id="Group_31">
<path id="Vector_41" d="M619.634 335.272C612.79 335.272 605.026 335.21 596.204 335.079C572.542 334.726 534.149 333.586 526.627 332.453C523.91 332.044 515.915 330.842 479.146 312.801C473.586 313.706 466.179 314.967 459.996 316.21C449.27 318.364 430.123 316.954 381.573 311.907C370.261 310.733 359.576 309.621 354.226 309.277C344.229 308.631 330.939 306.106 315.544 303.181C299.612 300.155 279.787 296.388 270.12 296.388C262.598 296.388 256.499 293.634 256.499 290.238C256.499 286.841 262.598 284.087 270.12 284.087C285.283 284.087 306.037 288.03 326.107 291.843C338.621 294.22 351.56 296.679 358.077 297.099C364.568 297.518 375.28 298.632 387.681 299.92C405.051 301.725 440.934 305.449 449.545 304.847C462.199 302.333 478.148 299.923 478.833 299.82C483.954 299.048 489.607 299.717 493.233 301.524C509.254 309.506 529.569 318.871 535.736 320.809C551.345 322.122 637.79 324.247 654.346 321.902C656.862 320.435 659.569 318.395 662.198 316.411C669.23 311.111 675.873 306.104 686.96 304.674C698.493 303.184 794.912 299.642 817.233 299.642C824.755 299.642 830.853 302.396 830.853 305.792C830.853 309.189 824.755 311.943 817.233 311.943C794.824 311.943 707.53 315.329 695.085 316.44C692.667 317.378 688.257 320.703 685.567 322.731C681.89 325.503 678.086 328.369 673.636 330.666C669.805 332.651 664.728 335.272 619.634 335.272Z" fill="var(--fill-0, white)"/>
</g>
</g>
</g>
</svg>
