<svg preserveAspectRatio="none" width="100%" height="100%" overflow="visible" style="display: block;" viewBox="0 0 48.0869 15.8867" fill="none" xmlns="http://www.w3.org/2000/svg">
<g id="Group 271">
<path id="Union" d="M44.6865 0C45.7058 1.56524e-05 46.5277 0.358691 47.1514 1.07617C47.775 1.79395 48.0869 2.78971 48.0869 4.06152C48.0869 4.53986 48.0448 5.00581 47.9609 5.45898C47.7691 6.57957 47.4216 7.55566 46.918 8.38672C46.4142 9.20522 45.8082 9.83561 45.1006 10.2764C44.393 10.7044 43.6431 10.918 42.8516 10.918C42.1921 10.9179 41.6465 10.7798 41.2148 10.5029C40.7951 10.2133 40.5009 9.82217 40.333 9.33105L39.2354 15.8867H35.2412L37.8857 0.131836H41.8799L41.6279 1.58691C41.9636 1.09602 42.3898 0.711567 42.9053 0.43457C43.4329 0.145033 44.0271 5.33258e-05 44.6865 0ZM32.0078 0C32.9073 2.8484e-05 33.6992 0.188653 34.3828 0.566406C35.0663 0.931581 35.5996 1.45486 35.9834 2.13477C36.3671 2.80208 36.5595 3.58267 36.5596 4.47656C36.5596 5.71062 36.2831 6.81953 35.7314 7.80176C35.1798 8.78376 34.4186 9.55243 33.4473 10.1064C32.4758 10.6479 31.3841 10.9179 30.1729 10.918C29.2733 10.918 28.4815 10.7353 27.7979 10.3701C27.1142 10.0049 26.5801 9.48871 26.1963 8.82129C25.8126 8.14133 25.6211 7.35393 25.6211 6.45996C25.6211 6.39357 25.6244 6.32738 25.626 6.26172C25.4881 6.80517 25.2847 7.31911 25.0137 7.80176C24.462 8.78385 23.6999 9.5524 22.7285 10.1064C21.7571 10.6478 20.6653 10.918 19.4541 10.918C18.5547 10.9179 17.7627 10.7353 17.0791 10.3701C16.3957 10.0049 15.8622 9.48856 15.4785 8.82129C15.0948 8.1413 14.9023 7.354 14.9023 6.45996C14.9024 5.22602 15.1788 4.11789 15.7305 3.13574C16.2942 2.15356 17.0617 1.38512 18.0332 0.831055C19.0046 0.277096 20.0899 6.94789e-05 21.2891 0C22.1885 9.33505e-06 22.9805 0.188739 23.6641 0.566406C24.3477 0.931585 24.8818 1.4548 25.2656 2.13477C25.6493 2.80204 25.8417 3.58275 25.8418 4.47656C25.8418 4.54322 25.8366 4.60986 25.835 4.67578C25.9728 4.13212 26.1771 3.61855 26.4482 3.13574C27.0119 2.15364 27.7796 1.38511 28.751 0.831055C29.7225 0.277006 30.8085 0 32.0078 0ZM3.72461 6.61133L6.11719 0.131836H10.3809L10.6689 6.68652L12.6299 0.131836H16.3184L12.1084 10.7861H7.61035L7.39453 4.7793L5.0918 10.7861H0.59375L0 0.131836H3.95801L3.72461 6.61133ZM20.6777 3.62695C20.1621 3.62698 19.7539 3.8723 19.4541 4.36328C19.1543 4.85434 19.0049 5.40247 19.0049 6.00684C19.0049 6.43494 19.1011 6.75662 19.293 6.9707C19.4848 7.18446 19.7428 7.29102 20.0664 7.29102C20.5819 7.2909 20.9893 7.04556 21.2891 6.55469C21.5888 6.0636 21.7393 5.51553 21.7393 4.91113C21.7392 4.48332 21.6373 4.16227 21.4336 3.94824C21.2417 3.73424 20.9895 3.62697 20.6777 3.62695ZM31.3955 3.62695C30.8801 3.6271 30.4726 3.87258 30.1729 4.36328C29.873 4.85435 29.7227 5.40246 29.7227 6.00684C29.7227 6.43494 29.8189 6.75662 30.0107 6.9707C30.2026 7.18457 30.4605 7.291 30.7842 7.29102C31.2999 7.29099 31.708 7.04581 32.0078 6.55469C32.3076 6.06361 32.457 5.51551 32.457 4.91113C32.457 4.48319 32.3552 4.16227 32.1514 3.94824C31.9595 3.73424 31.7073 3.62697 31.3955 3.62695ZM42.7441 3.66406C42.3125 3.66406 41.9285 3.82212 41.5928 4.13672C41.269 4.45149 41.0589 4.89244 40.9629 5.45898C40.9389 5.57222 40.9268 5.72346 40.9268 5.91211C40.9268 6.34019 41.0352 6.67382 41.251 6.91309C41.4668 7.13971 41.7602 7.25385 42.1318 7.25391C42.5636 7.25389 42.9418 7.09607 43.2656 6.78125C43.6013 6.46643 43.8172 6.02556 43.9131 5.45898C43.937 5.34571 43.9492 5.19453 43.9492 5.00586C43.9492 4.5778 43.8409 4.25007 43.625 4.02344C43.4092 3.78443 43.1156 3.66414 42.7441 3.66406Z" fill="var(--fill-0, white)"/>
</g>
</svg>
