<svg preserveAspectRatio="none" width="100%" height="100%" overflow="visible" style="display: block;" viewBox="0 0 80.9639 26.7471" fill="none" xmlns="http://www.w3.org/2000/svg">
<g id="Group 271">
<path id="Union" d="M75.2393 0C76.9554 0.000128083 78.3387 0.604225 79.3887 1.8125C80.4387 3.02101 80.9638 4.69653 80.9639 6.83789C80.9639 7.64345 80.8933 8.42824 80.752 9.19141C80.4289 11.0783 79.8432 12.7218 78.9951 14.1211C78.147 15.4992 77.1269 16.5597 75.9355 17.3018C74.7443 18.0225 73.482 18.3827 72.1494 18.3828C71.0387 18.3828 70.1196 18.1491 69.3926 17.6826C68.6859 17.195 68.1909 16.5378 67.9082 15.7109L66.0605 26.7471H59.3359L63.7881 0.222656H70.5137L70.0889 2.6709C70.6543 1.84417 71.372 1.19784 72.2402 0.731445C73.1287 0.243912 74.1287 0 75.2393 0ZM53.8906 0C55.4052 9.34254e-06 56.7386 0.318046 57.8896 0.954102C59.0405 1.56892 59.9388 2.44902 60.585 3.59375C61.2311 4.71736 61.5546 6.03194 61.5547 7.53711C61.5547 9.61487 61.09 11.481 60.1611 13.1348C59.2323 14.7884 57.95 16.0817 56.3145 17.0146C54.6787 17.9264 52.8404 18.3828 50.8008 18.3828C49.2864 18.3828 47.9537 18.0748 46.8027 17.46C45.6517 16.8451 44.7526 15.9762 44.1064 14.8525C43.4603 13.7076 43.1377 12.3822 43.1377 10.877C43.1377 10.7724 43.1392 10.668 43.1416 10.5645C42.9095 11.4715 42.5681 12.3285 42.1152 13.1348C41.1864 14.7884 39.904 16.0818 38.2686 17.0146C36.6328 17.9264 34.7945 18.3828 32.7549 18.3828C31.2404 18.3828 29.9079 18.0748 28.7568 17.46C27.6058 16.8451 26.7068 15.9762 26.0605 14.8525C25.4144 13.7076 25.0918 12.3822 25.0918 10.877C25.0918 8.79923 25.5555 6.93302 26.4844 5.2793C27.4335 3.62558 28.7266 2.3323 30.3623 1.39941C31.998 0.466606 33.8254 2.25844e-05 35.8447 0C37.3593 9.34254e-06 38.6927 0.318046 39.8438 0.954102C40.9946 1.56893 41.8929 2.44903 42.5391 3.59375C43.1852 4.71736 43.5087 6.03194 43.5088 7.53711C43.5088 7.64131 43.5062 7.7455 43.5039 7.84863C43.736 6.94195 44.0785 6.08527 44.5312 5.2793C45.4804 3.6257 46.7726 2.33225 48.4082 1.39941C50.0438 0.466596 51.8714 4.64043e-05 53.8906 0ZM6.27051 11.1309L10.2988 0.222656H17.4785L17.9629 11.2588L21.2646 0.222656H27.4746L20.3867 18.1602H12.8135L12.4502 8.0459L8.57227 18.1602H1L0 0.222656H6.66406L6.27051 11.1309ZM34.8154 6.10645C33.9471 6.10645 33.2597 6.51991 32.7549 7.34668C32.2502 8.1734 31.9981 9.09582 31.998 10.1133C31.998 10.834 32.1595 11.3749 32.4824 11.7354C32.8055 12.0958 33.2399 12.2764 33.7852 12.2764C34.6533 12.2763 35.3399 11.8628 35.8447 11.0361C36.3495 10.2093 36.6025 9.2862 36.6025 8.26855C36.6024 7.54796 36.4301 7.00683 36.0869 6.64648C35.764 6.28648 35.34 6.10657 34.8154 6.10645ZM52.8613 6.10645C51.993 6.10645 51.3056 6.51991 50.8008 7.34668C50.2961 8.17339 50.044 9.09585 50.0439 10.1133C50.0439 10.834 50.2054 11.3749 50.5283 11.7354C50.8514 12.0958 51.2858 12.2764 51.8311 12.2764C52.6993 12.2763 53.3858 11.8628 53.8906 11.0361C54.3954 10.2093 54.6484 9.2862 54.6484 8.26855C54.6483 7.54796 54.476 7.00683 54.1328 6.64648C53.8098 6.2865 53.3859 6.10653 52.8613 6.10645ZM71.9668 6.16992C71.2401 6.17004 70.5936 6.43499 70.0283 6.96484C69.4832 7.49486 69.1303 8.23746 68.9688 9.19141C68.9284 9.38209 68.9082 9.63643 68.9082 9.9541C68.9082 10.6749 69.0897 11.2378 69.4531 11.6406C69.8166 12.0221 70.3116 12.2129 70.9375 12.2129C71.6643 12.2128 72.3006 11.9478 72.8457 11.418C73.411 10.8879 73.775 10.1454 73.9365 9.19141C73.9769 9.00061 73.9971 8.74564 73.9971 8.42773C73.997 7.70706 73.8146 7.15599 73.4512 6.77441C73.0877 6.37166 72.5927 6.16994 71.9668 6.16992Z" fill="var(--fill-0, white)"/>
</g>
</svg>
