<svg preserveAspectRatio="none" width="100%" height="100%" overflow="visible" style="display: block;" viewBox="0 0 40.4816 31.8078" fill="none" xmlns="http://www.w3.org/2000/svg">
<g id="Group 271">
<path id="Union" d="M0 0.250135C7.83311 -0.141021 22.9845 -0.0720384 27.0244 0.447401C30.6434 0.912768 35.3609 1.67967 40.4814 5.04506C38.5232 7.48703 38.1136 8.21415 35.7861 11.0187C33.1675 9.05545 27.0245 5.79 25.0215 8.214C24.2516 9.14572 24.149 10.4576 26.1855 11.299C27.0589 11.8599 32.7293 12.8679 35.3477 15.1115C37.9661 17.3553 41.4193 23.1111 34.9141 29.2482C27.851 35.9111 12.5152 27.6041 10.8115 26.3546L15.502 20.3966C15.5824 20.4394 27.4233 26.7378 29.251 23.8556C31.0843 20.9638 29.2502 19.1567 23.8555 18.0724C18.4648 16.9889 7.58223 12.4285 7.56445 12.421C7.58398 12.4201 16.0745 12.023 15.666 11.9835C12.7563 11.7026 2.91212 6.84404 3.49121 6.81166C7.68084 6.5873 12.3171 6.81165 13.9658 6.81166C13.9512 6.80616 9.66472 5.18865 6.98242 4.00697C4.21265 2.7867 0.00959403 0.255912 0 0.250135Z" fill="var(--fill-0, white)"/>
</g>
</svg>
