<svg preserveAspectRatio="none" width="100%" height="100%" overflow="visible" style="display: block;" viewBox="0 0 24.0439 18.8925" fill="none" xmlns="http://www.w3.org/2000/svg">
<g id="Group 271">
<path id="Union" d="M0 0.14856C4.65238 -0.0837665 13.6514 -0.0427767 16.0508 0.265747C18.2003 0.542155 21.0026 0.997285 24.0439 2.99622C22.8809 4.44664 22.6373 4.87929 21.2549 6.54504C19.6997 5.37899 16.051 3.43927 14.8613 4.87903C14.4041 5.43242 14.3432 6.21135 15.5527 6.71106C16.072 7.04425 19.4392 7.64331 20.9941 8.97571C22.5493 10.3085 24.6002 13.7271 20.7363 17.3722C16.5412 21.3295 7.43256 16.3955 6.4209 15.6534L9.20703 12.1144C9.23443 12.129 16.2859 15.8833 17.373 14.1691C18.4619 12.4515 17.3727 11.3785 14.1689 10.7345C10.973 10.0921 4.52679 7.39117 4.49316 7.37708C4.54089 7.37485 9.54624 7.14163 9.30469 7.11829C7.57728 6.95164 1.7334 4.0671 2.07324 4.04602C4.56158 3.91276 7.31566 4.04602 8.29492 4.04602C8.2847 4.04216 5.74008 3.08164 4.14746 2.38001C2.50322 1.65562 0.00815976 0.153473 0 0.14856Z" fill="var(--fill-0, white)"/>
</g>
</svg>
