<svg preserveAspectRatio="none" width="100%" height="100%" overflow="visible" style="display: block;" viewBox="0 0 24 24" fill="none" xmlns="http://www.w3.org/2000/svg">
<g id="tiktok-svgrepo-com 1">
<path id="Vector" d="M12.492 0.77175C13.7198 0.753 14.9385 0.76275 16.1565 0.753C16.197 2.27625 16.815 3.64725 17.7982 4.66275L17.7967 4.66125C18.855 5.6145 20.232 6.2325 21.75 6.3375L21.771 6.339V10.116C20.337 10.08 18.9885 9.74925 17.7727 9.18075L17.8342 9.20625C17.2462 8.9235 16.749 8.63325 16.2765 8.30925L16.3155 8.33475C16.3065 11.0715 16.3245 13.8083 16.2967 16.5353C16.2195 17.925 15.7575 19.1925 15.0165 20.2507L15.0315 20.2275C13.7925 22.002 11.7855 23.1668 9.50325 23.2358H9.49275C9.4005 23.2403 9.29175 23.2425 9.18225 23.2425C7.88475 23.2425 6.672 22.881 5.6385 22.2532L5.6685 22.2705C3.7875 21.1388 2.49 19.2023 2.25 16.95L2.247 16.9193C2.22825 16.4505 2.21925 15.9818 2.238 15.5228C2.6055 11.9385 5.6085 9.16575 9.25875 9.16575C9.669 9.16575 10.071 9.201 10.4618 9.26775L10.4197 9.26175C10.4385 10.6485 10.3823 12.036 10.3823 13.4227C10.065 13.308 9.699 13.2413 9.31725 13.2413C7.91625 13.2413 6.7245 14.1368 6.2835 15.387L6.27675 15.4095C6.177 15.7297 6.11925 16.098 6.11925 16.479C6.11925 16.6335 6.129 16.7865 6.147 16.9365L6.1455 16.9185C6.3945 18.453 7.71 19.611 9.29625 19.611C9.342 19.611 9.387 19.6102 9.432 19.608H9.42525C10.5225 19.575 11.475 18.9847 12.0135 18.1125L12.021 18.099C12.2212 17.82 12.3585 17.4825 12.4042 17.1157L12.405 17.1052C12.4988 15.4275 12.4613 13.7595 12.4703 12.0817C12.4793 8.30475 12.4613 4.53675 12.489 0.7695L12.492 0.77175Z" fill="var(--fill-0, #CEC7FF)"/>
</g>
</svg>
